<svg id="Grupo_1065499" data-name="Grupo 1065499" xmlns="http://www.w3.org/2000/svg" xmlns:xlink="http://www.w3.org/1999/xlink" width="400" height="400" viewBox="0 0 400 400">
  <defs>
    <clipPath id="clip-path">
      <rect id="Rectángulo_374262" data-name="Rectángulo 374262" width="400" height="400" fill="none"/>
    </clipPath>
  </defs>
  <g id="Grupo_1065498" data-name="Grupo 1065498" clip-path="url(#clip-path)">
    <path id="Trazado_779826" data-name="Trazado 779826" d="M526.984,189.336A190.909,190.909,0,0,0,337.2,20.274c-.253,0-.505,0-.758,0l23.083,31.127-23.09,31.137c.255,0,.509,0,.764,0,63.514,0,116.433,46.224,126.889,106.8h-9.579l8.633,6.4,2.061,1.528,32.251,23.917,30.364-22.517,3.949-2.929,8.633-6.4Z" transform="translate(-140.4 -8.461)" fill="#ffb206"/>
    <path id="Trazado_779827" data-name="Trazado 779827" d="M491.183,359.23l-31.691-23.5q.2,3.586.2,7.221c0,63.389-46.042,116.225-106.441,126.827V454.215l-6.4,8.632-6.313,8.513-19.132,25.8,25.445,34.313v1.854c.431-.035.863-.07,1.294-.109l5.108,6.888v-7.413A190.907,190.907,0,0,0,521.958,342.95q0-3.239-.11-6.461Z" transform="translate(-134.128 -140.106)" fill="#8f52f5"/>
    <path id="Trazado_779828" data-name="Trazado 779828" d="M47.076,180.875l25.129,18.635c1.637-64.109,50.362-116.717,112.8-124.452V85.891l6.4-8.633,2.2-2.972,23.241-31.34-22.991-31-2.454-3.308L185.006,0V12.467A190.9,190.9,0,0,0,9.9,202.844q0,2.777.082,5.541Z" transform="translate(-4.131)" fill="#ade3ff"/>
    <path id="Trazado_779829" data-name="Trazado 779829" d="M199.77,465.7q-1.482.034-2.971.036c-65.488,0-119.714-49.142-127.742-112.486H85.891l-8.632-6.4-9.189-6.814L42.945,321.405,8.633,346.85H6.019q.047.932.1,1.862L0,353.252H6.451A190.9,190.9,0,0,0,196.8,528q5.6,0,11.144-.321l-27.067-36.5Z" transform="translate(0 -134.128)" fill="#e01650"/>
  </g>
</svg>
