<svg xmlns="http://www.w3.org/2000/svg" xmlns:xlink="http://www.w3.org/1999/xlink" width="85" height="97" viewBox="0 0 85 97">
  <defs>
    <linearGradient id="linear-gradient" x1="1" y1="0.5" x2="0" y2="0.5" gradientUnits="objectBoundingBox">
      <stop offset="0" stop-color="#ffb206"/>
      <stop offset="1" stop-color="#ffb206" stop-opacity="0"/>
    </linearGradient>
    <linearGradient id="linear-gradient-2" y1="0.5" x2="1" y2="0.5" gradientUnits="objectBoundingBox">
      <stop offset="0" stop-color="#e01650"/>
      <stop offset="1" stop-color="#e01650" stop-opacity="0"/>
    </linearGradient>
  </defs>
  <g id="Grupo_1065635" data-name="Grupo 1065635" transform="translate(-180 -429)">
    <rect id="Rect치ngulo_374270" data-name="Rect치ngulo 374270" width="46" height="14" transform="translate(219 429)" fill="url(#linear-gradient)"/>
    <rect id="Rect치ngulo_374271" data-name="Rect치ngulo 374271" width="52" height="14" transform="translate(180 512)" fill="url(#linear-gradient-2)"/>
    <g id="audit_4308094" transform="translate(178.256 434)">
      <g id="Grupo_1065259" data-name="Grupo 1065259" transform="translate(2.988 1.245)">
        <g id="Grupo_1065253" data-name="Grupo 1065253" transform="translate(30.294 14.665)">
          <path id="Trazado_778817" data-name="Trazado 778817" d="M191.711,113.064v36.744a5.243,5.243,0,0,0,5.243,5.243h41.151a5.243,5.243,0,0,0,5.243-5.243V101.073a5.243,5.243,0,0,0-5.243-5.243h-29.16a6.554,6.554,0,0,0-4.634,1.92L193.631,108.43a6.554,6.554,0,0,0-1.92,4.634Z" transform="translate(-191.711 -95.83)" fill="#b1e4f9"/>
        </g>
        <g id="Grupo_1065254" data-name="Grupo 1065254" transform="translate(25.406 9.776)">
          <path id="Trazado_778818" data-name="Trazado 778818" d="M162.267,83.62v36.744a5.243,5.243,0,0,0,5.243,5.243h41.151a5.243,5.243,0,0,0,5.243-5.243V71.629a5.243,5.243,0,0,0-5.243-5.243H179.5a6.554,6.554,0,0,0-4.634,1.92L164.186,78.986a6.555,6.555,0,0,0-1.92,4.634Z" transform="translate(-162.267 -66.386)" fill="#d3effb"/>
        </g>
        <g id="Grupo_1065255" data-name="Grupo 1065255" transform="translate(20.517 4.888)">
          <path id="Trazado_778819" data-name="Trazado 778819" d="M132.824,54.177V90.921a5.243,5.243,0,0,0,5.243,5.243h41.151a5.243,5.243,0,0,0,5.243-5.243V42.186a5.243,5.243,0,0,0-5.243-5.243h-29.16a6.554,6.554,0,0,0-4.634,1.92L134.744,49.543a6.554,6.554,0,0,0-1.92,4.634Z" transform="translate(-132.824 -36.943)" fill="#e4f6ff"/>
        </g>
        <g id="Grupo_1065256" data-name="Grupo 1065256" transform="translate(15.629)">
          <path id="Trazado_778820" data-name="Trazado 778820" d="M103.381,24.734V61.478a5.243,5.243,0,0,0,5.243,5.243h41.151a5.243,5.243,0,0,0,5.243-5.243V12.743A5.243,5.243,0,0,0,149.775,7.5h-29.16a6.554,6.554,0,0,0-4.634,1.92L105.3,20.1A6.554,6.554,0,0,0,103.381,24.734Z" transform="translate(-103.381 -7.5)" fill="#f4fbff"/>
          <path id="Trazado_778821" data-name="Trazado 778821" d="M103.38,24.736v1.119a3.835,3.835,0,0,1,3.835-3.835h5.442a5.243,5.243,0,0,0,5.243-5.243V11.336A3.835,3.835,0,0,1,121.734,7.5h-1.119a6.559,6.559,0,0,0-4.635,1.92L105.3,20.1a6.559,6.559,0,0,0-1.92,4.635Z" transform="translate(-103.38 -7.501)" fill="#e4f6ff"/>
        </g>
        <g id="Grupo_1065257" data-name="Grupo 1065257" transform="translate(0 31.97)">
          <path id="Trazado_778822" data-name="Trazado 778822" d="M0,0H6.224V14.419H0Z" transform="translate(19.249 26.889) rotate(45)" fill="#407093"/>
          <path id="Trazado_778823" data-name="Trazado 778823" d="M0,0H3.112V14.419H0Z" transform="translate(19.249 26.889) rotate(45)" fill="#365e7d"/>
          <circle id="Elipse_4845" data-name="Elipse 4845" cx="18.446" cy="18.446" r="18.446" transform="translate(13.65 0)" fill="#ffe07d"/>
          <path id="Trazado_778824" data-name="Trazado 778824" d="M98.01,232.612q-.591-.5-1.147-1.054a18.446,18.446,0,0,1,26.087-26.087q.556.556,1.054,1.147A18.446,18.446,0,0,0,98.01,232.612Z" transform="translate(-77.81 -200.068)" fill="#ffd064"/>
          <circle id="Elipse_4846" data-name="Elipse 4846" cx="13.04" cy="13.04" r="13.04" transform="translate(19.056 5.406)" fill="#d3effb"/>
          <path id="Trazado_778825" data-name="Trazado 778825" d="M129.863,256.543a13.04,13.04,0,1,1,18.075-18.075,13.043,13.043,0,0,0-18.075,18.075Z" transform="translate(-104.966 -227.222)" fill="#b1e4f9"/>
          <path id="Trazado_778826" data-name="Trazado 778826" d="M13.693,410.64l-3.607-3.607a2.879,2.879,0,0,1,0-4.072l9.152-9.152a2.879,2.879,0,0,1,4.071,0l3.607,3.607a2.879,2.879,0,0,1,0,4.071l-9.152,9.152A2.879,2.879,0,0,1,13.693,410.64Z" transform="translate(-9.242 -360.941)" fill="#a77d73"/>
          <path id="Trazado_778827" data-name="Trazado 778827" d="M12.724,409.669l-2.64-2.64a2.878,2.878,0,0,1,0-4.072l9.151-9.151a2.878,2.878,0,0,1,4.072,0l2.64,2.64a2.878,2.878,0,0,0-4.072,0L12.724,405.6a2.878,2.878,0,0,0,0,4.072Z" transform="translate(-9.24 -360.938)" fill="#98695e"/>
        </g>
        <g id="Grupo_1065258" data-name="Grupo 1065258" transform="translate(23.94 43.662)">
          <path id="Trazado_778828" data-name="Trazado 778828" d="M160.487,286.066a2.639,2.639,0,0,1-2.085-1.022l-4.412-5.691a2.639,2.639,0,1,1,4.171-3.233l1.98,2.555,3.865-6.844a2.639,2.639,0,1,1,4.595,2.6l-5.816,10.3a2.639,2.639,0,0,1-2.106,1.334c-.064,0-.128.007-.192.007Z" transform="translate(-153.437 -270.49)" fill="#b3e59f"/>
        </g>
      </g>
      <g id="Grupo_1065260" data-name="Grupo 1065260" transform="translate(1.744 0)">
        <path id="Trazado_778829" data-name="Trazado 778829" d="M81.114,14.827a6.51,6.51,0,0,0-4.889-4.888,6.508,6.508,0,0,0-4.887-4.888A6.5,6.5,0,0,0,65.012,0H35.851a7.746,7.746,0,0,0-5.514,2.284l-.037.039L19.654,12.965a7.758,7.758,0,0,0-2.283,5.517V43.06a19.768,19.768,0,0,0,1.053,19.1l-2.064,2.064A4.126,4.126,0,0,0,12.1,65.2L2.952,74.355a4.124,4.124,0,0,0,0,5.832l3.608,3.608a4.128,4.128,0,0,0,5.831,0l4.312-4.31a1.245,1.245,0,1,0-1.761-1.761l-4.312,4.31a1.635,1.635,0,0,1-2.31,0L4.712,78.426a1.634,1.634,0,0,1,0-2.31l9.151-9.153a1.638,1.638,0,0,1,2.312,0l3.607,3.607a1.637,1.637,0,0,1,0,2.312l-1.32,1.32a1.245,1.245,0,0,0,1.761,1.761l1.32-1.32a4.126,4.126,0,0,0,.978-4.257l2.064-2.064a19.587,19.587,0,0,0,6.37,2.586,6.438,6.438,0,0,0,1.243.421,6.5,6.5,0,0,0,6.327,5.048H79.677a6.5,6.5,0,0,0,6.488-6.49V21.153a6.5,6.5,0,0,0-5.051-6.326ZM71.5,55.223V7.715a4.009,4.009,0,0,1,2.389,3.408c.005.077.008.16.008.254V60.113a4,4,0,0,1-4,4H50.342a19.573,19.573,0,0,0,1.677-2.4H65.012A6.5,6.5,0,0,0,71.5,55.223ZM31.976,4.168a5.089,5.089,0,0,0-.084.911v5.442a4,4,0,0,1-4,4H22.452a5.086,5.086,0,0,0-.915.084ZM19.861,19.628c0-.01,0-.019,0-.029a2.592,2.592,0,0,1,2.589-2.589h5.442a6.5,6.5,0,0,0,6.488-6.488V5.08A2.592,2.592,0,0,1,36.972,2.49H65.012A4,4,0,0,1,69,6.235c.005.077.008.159.008.253V55.223a4,4,0,0,1-4,4H53.265a19.691,19.691,0,0,0-32.1-21.485q-.692.692-1.3,1.434Zm3.06,19.87a17.2,17.2,0,1,1,0,24.326,17.145,17.145,0,0,1,0-24.326ZM21.06,68.326l-2.641-2.641L19.9,64.2q.59.714,1.257,1.383t1.383,1.257Zm62.615,1.562a4,4,0,0,1-4,4H38.526a4.009,4.009,0,0,1-3.665-2.4H74.788A6.5,6.5,0,0,0,81.277,65V29.009a1.245,1.245,0,0,0-2.49,0V65a4,4,0,0,1-4,4H44.423a19.569,19.569,0,0,0,3.49-2.4H69.9a6.5,6.5,0,0,0,6.488-6.488V12.6a4.007,4.007,0,0,1,2.4,3.664v7.773a1.245,1.245,0,1,0,2.49,0V17.49a4.008,4.008,0,0,1,2.4,3.663V69.888Z" transform="translate(-1.744 0)"/>
        <path id="Trazado_778830" data-name="Trazado 778830" d="M130.838,253.7a14.285,14.285,0,1,0-10.1-4.184A14.192,14.192,0,0,0,130.838,253.7Zm-8.34-22.626a11.8,11.8,0,1,1,0,16.681A11.717,11.717,0,0,1,122.5,231.076Z" transform="translate(-97.498 -187.755)"/>
        <path id="Trazado_778831" data-name="Trazado 778831" d="M136.1,125.829a1.245,1.245,0,0,0,1.607-.72l.469-1.231h3.277l.463,1.228a1.245,1.245,0,1,0,2.33-.879l-3.081-8.164-.013-.034a1.428,1.428,0,0,0-1.325-.888h0a1.428,1.428,0,0,0-1.325.89l-.011.028-3.109,8.163a1.245,1.245,0,0,0,.72,1.607Zm4.412-4.442h-1.388l.7-1.831Z" transform="translate(-113.126 -96.024)"/>
        <path id="Trazado_778832" data-name="Trazado 778832" d="M314.751,125.91A1.245,1.245,0,0,0,316,124.665v-8.28a1.245,1.245,0,1,0-2.49,0v8.28A1.245,1.245,0,0,0,314.751,125.91Z" transform="translate(-261.747 -96.024)"/>
        <path id="Trazado_778833" data-name="Trazado 778833" d="M255.581,124.669a1.245,1.245,0,0,0,1.245,1.241h0c.071,0,1.744-.007,2.414-.018,2.607-.046,4.5-2.3,4.5-5.367,0-3.221-1.844-5.385-4.589-5.385h-2.345a1.245,1.245,0,0,0-1.245,1.247s.006,3.185.006,4.128c0,1.151.011,4.154.011,4.154Zm3.573-7.039c1.947,0,2.1,2.216,2.1,2.895,0,1.414-.634,2.852-2.052,2.877-.265,0-.7.008-1.134.011,0-.962-.007-2.236-.007-2.9,0-.555,0-1.883,0-2.886Z" transform="translate(-213.425 -96.024)"/>
        <path id="Trazado_778834" data-name="Trazado 778834" d="M197.832,125.278a4.021,4.021,0,0,0,2.195.632h.006a4.232,4.232,0,0,0,1.923-.446,3.722,3.722,0,0,0,2.246-3.387v-5.691a1.245,1.245,0,1,0-2.49,0v5.691c0,.357-.1.775-.875,1.163a1.743,1.743,0,0,1-.8.18h0a1.549,1.549,0,0,1-.857-.241c-.6-.385-.724-.705-.724-1.1v-5.7a1.245,1.245,0,1,0-2.49,0v5.7A3.658,3.658,0,0,0,197.832,125.278Z" transform="translate(-163.714 -96.024)"/>
        <path id="Trazado_778835" data-name="Trazado 778835" d="M341.189,117.63h1.032v7.035a1.245,1.245,0,1,0,2.49,0V117.63h1.05a1.245,1.245,0,1,0,0-2.49h-4.573a1.245,1.245,0,1,0,0,2.49Z" transform="translate(-283.796 -96.024)"/>
        <path id="Trazado_778836" data-name="Trazado 778836" d="M154.241,281.062c.094,0,.188,0,.282-.01a3.875,3.875,0,0,0,3.1-1.964l5.816-10.3a3.884,3.884,0,1,0-6.763-3.82l-2.944,5.213-.833-1.075a3.884,3.884,0,1,0-6.139,4.759l4.412,5.691A3.909,3.909,0,0,0,154.241,281.062Zm-5.265-10.676a1.393,1.393,0,0,1,1.955.248l1.981,2.555a1.245,1.245,0,0,0,2.068-.151l3.865-6.843a1.393,1.393,0,0,1,2.427,1.37l-5.816,10.3a1.393,1.393,0,0,1-2.314.169l-4.412-5.691A1.4,1.4,0,0,1,148.975,270.386Z" transform="translate(-122.007 -219.334)"/>
      </g>
    </g>
  </g>
</svg>
