<svg xmlns="http://www.w3.org/2000/svg" xmlns:xlink="http://www.w3.org/1999/xlink" width="400" height="326.125" viewBox="0 0 400 326.125">
  <defs>
    <linearGradient id="linear-gradient" x1="1" y1="0.5" x2="0" y2="0.5" gradientUnits="objectBoundingBox">
      <stop offset="0" stop-color="#ffb206"/>
      <stop offset="1" stop-color="#ffb206" stop-opacity="0"/>
    </linearGradient>
    <linearGradient id="linear-gradient-2" y1="0.5" x2="1" y2="0.5" gradientUnits="objectBoundingBox">
      <stop offset="0" stop-color="#e01650"/>
      <stop offset="1" stop-color="#e01650" stop-opacity="0"/>
    </linearGradient>
    <clipPath id="clip-path">
      <rect id="Rectángulo_374351" data-name="Rectángulo 374351" width="275.131" height="326.125" fill="none"/>
    </clipPath>
  </defs>
  <g id="Grupo_1065637" data-name="Grupo 1065637" transform="translate(-1003 -631)">
    <path id="Rectángulo_373558" data-name="Rectángulo 373558" d="M135,0H384a0,0,0,0,1,0,0V305a0,0,0,0,1,0,0H0a0,0,0,0,1,0,0V135A135,135,0,0,1,135,0Z" transform="translate(1019 652)" fill="#8f52f5"/>
    <rect id="Rectángulo_373560" data-name="Rectángulo 373560" width="105" height="19.342" transform="translate(1298 681.854)" fill="url(#linear-gradient)"/>
    <rect id="Rectángulo_373561" data-name="Rectángulo 373561" width="125.429" height="13.667" transform="translate(1003 922.945)" fill="url(#linear-gradient-2)"/>
    <g id="Grupo_1065636" data-name="Grupo 1065636" transform="translate(1073.435 631)">
      <g id="Grupo_1065635" data-name="Grupo 1065635" clip-path="url(#clip-path)">
        <path id="Trazado_779854" data-name="Trazado 779854" d="M137.659.014a2.057,2.057,0,0,0-.3.029V0c.1,0,.2.015.3.015" fill="#4a4a4a"/>
        <path id="Trazado_779855" data-name="Trazado 779855" d="M220.835,114.876c-2.806,24.931-33.245,57.789-33.245,57.789H137.357V13.31c.073,0,.187.014.375.028.112-.014.2-.028.243-.028h.041v.057c3.808.286,22.468,2.375,38.127,14.769a121.51,121.51,0,0,1,16.685,16.3C203.775,65.46,210.646,88.4,217.943,99.791c2.778,4.323,3.521,9.5,2.892,15.085" fill="#4a4a4a"/>
        <path id="Trazado_779856" data-name="Trazado 779856" d="M137.731,13.338c.114-.014.2-.028.243-.028V172.665H87.742s-32.2-32.859-35.65-57.8c-.773-5.566-.114-10.748,2.662-15.07,6.669-10.4,13.495-30.439,23.442-49.859A127.8,127.8,0,0,1,99.133,28.193c15.657-12.408,34.361-14.526,38.182-14.826V13.31h.043c.071,0,.186.014.373.028" fill="#4a4a4a"/>
        <path id="Trazado_779857" data-name="Trazado 779857" d="M137.974,0V.043a2.073,2.073,0,0,0-.315-.028c.1,0,.214-.015.315-.015" fill="#4a4a4a"/>
        <rect id="Rectángulo_374347" data-name="Rectángulo 374347" width="32.337" height="54.813" transform="translate(121.116 143.261)" fill="#fd916f"/>
        <path id="Trazado_779858" data-name="Trazado 779858" d="M153.527,185.145c0,3.366-7.146,6.1-15.962,6.1s-16.45-4.02-16.45-7.389,7.634-4.812,16.45-4.812,15.962,2.733,15.962,6.1" fill="#fd916f"/>
        <path id="Trazado_779859" data-name="Trazado 779859" d="M275.131,270.938c-4.691,3.723-48.707,33.505-53.806,36.676-8.662,5.408-18.106-54.607-27.783-50.96a158.58,158.58,0,0,1-112.374-.367c-9.372-3.6-18.005,56.255-26.428,51-5.527-3.431-49.7-28.779-54.74-32.863,6.912-23.485,52.755-100.184,56.592-101.893,12.658-5.546,64.52-20.285,64.52-20.285s32.145,2.1,32.336,2.241c.009,0,53.7,10.076,65.165,18.044,4.939,3.42,51.209,77.046,56.518,98.4" fill="#4a4a4a"/>
        <path id="Trazado_779860" data-name="Trazado 779860" d="M107.358,104.589c0,7.417-5.747,13.424-12.835,13.424s-14.852-8.847-14.852-16.262S82.226,91.16,89.314,91.16s18.044,6.014,18.044,13.429" fill="#fd916f"/>
        <path id="Trazado_779861" data-name="Trazado 779861" d="M170.139,104.589c0,7.417,5.746,13.424,12.833,13.424s14.856-8.847,14.856-16.262-2.557-10.591-9.642-10.591-18.047,6.014-18.047,13.429" fill="#fd916f"/>
        <path id="Trazado_779862" data-name="Trazado 779862" d="M189.886,83.22c0,37.49-22.735,75.831-50.78,75.831S88.322,120.71,88.322,83.22s22.736-59.947,50.784-59.947,50.78,22.451,50.78,59.947" fill="#fd9e80"/>
        <path id="Trazado_779863" data-name="Trazado 779863" d="M187.333,90.412H139.1v-.056H90.875S89.011,104.845,94.886,118c0,0,11.374,4.078,38.207-7.371A15.664,15.664,0,0,1,139.1,109.2v.056a15.683,15.683,0,0,1,6.01,1.431c26.835,11.449,38.208,7.371,38.208,7.371,5.875-13.156,4.011-27.645,4.011-27.645" fill="#4a4a4a"/>
        <path id="Trazado_779864" data-name="Trazado 779864" d="M138.017,6.7V6.636h-.043c-.043,0-.129.015-.243.03-.186-.015-.3-.03-.373-.03h-.042V6.7C82.051,13.309,48.7,98.72,51.792,114.947l.3-.091c2.963-.916,27.95-8.068,85.265-9.654h.616c57.759,1.6,80.47,8.845,82.861,9.668.144.046.215.077.215.077C224.8,93.931,189.887,4.728,138.017,6.7" fill="#636363"/>
        <rect id="Rectángulo_374348" data-name="Rectángulo 374348" width="174.131" height="17.527" transform="translate(49.002 305.615)" fill="#4a4a4a"/>
        <path id="Rectángulo_374349" data-name="Rectángulo 374349" d="M5.937,0H179.483a5.938,5.938,0,0,1,5.938,5.938v95.937a5.938,5.938,0,0,1-5.938,5.938H5.937A5.937,5.937,0,0,1,0,101.876V5.937A5.937,5.937,0,0,1,5.937,0Z" transform="translate(44.612 209.094)" fill="#636363"/>
        <path id="Trazado_779865" data-name="Trazado 779865" d="M230.033,323.143a2.983,2.983,0,0,1-2.983,2.982H47.6a2.984,2.984,0,0,1,0-5.967H227.05a2.983,2.983,0,0,1,2.983,2.985" fill="#636363"/>
        <path id="Trazado_779866" data-name="Trazado 779866" d="M152.248,265.754a15.028,15.028,0,1,1-15.028-15.028,15.028,15.028,0,0,1,15.028,15.028" fill="#fff"/>
        <rect id="Rectángulo_374350" data-name="Rectángulo 374350" width="17.527" height="12.025" transform="translate(128.457 271.139)" fill="#fff"/>
        <path id="Trazado_779867" data-name="Trazado 779867" d="M136.081,266.359a4.579,4.579,0,1,1-4.579-4.58,4.579,4.579,0,0,1,4.579,4.58" fill="#636363"/>
        <path id="Trazado_779868" data-name="Trazado 779868" d="M147.722,266.359a4.579,4.579,0,1,1-4.579-4.58,4.579,4.579,0,0,1,4.579,4.58" fill="#636363"/>
        <path id="Trazado_779869" data-name="Trazado 779869" d="M137.028,275.512a1.083,1.083,0,1,1-1.083-1.085,1.082,1.082,0,0,1,1.083,1.085" fill="#636363"/>
        <path id="Trazado_779870" data-name="Trazado 779870" d="M139.783,275.512a1.084,1.084,0,1,1-1.084-1.085,1.083,1.083,0,0,1,1.084,1.085" fill="#636363"/>
        <path id="Trazado_779871" data-name="Trazado 779871" d="M133.475,281.5a1.255,1.255,0,1,0-2.509,0v2.2a1.255,1.255,0,0,0,2.509,0Z" fill="#636363"/>
        <path id="Trazado_779872" data-name="Trazado 779872" d="M130.966,281.386a1.255,1.255,0,0,0-2.509,0v2.2a1.255,1.255,0,1,0,2.509,0Z" fill="#fff"/>
        <path id="Trazado_779873" data-name="Trazado 779873" d="M138.493,281.5a1.255,1.255,0,1,0-2.509,0v2.2a1.255,1.255,0,0,0,2.509,0Z" fill="#636363"/>
        <path id="Trazado_779874" data-name="Trazado 779874" d="M135.984,281.386a1.254,1.254,0,0,0-2.509,0v2.2a1.254,1.254,0,1,0,2.509,0Z" fill="#fff"/>
        <path id="Trazado_779875" data-name="Trazado 779875" d="M143.512,281.537a1.255,1.255,0,1,0-2.51,0v2.2a1.255,1.255,0,0,0,2.51,0Z" fill="#636363"/>
        <path id="Trazado_779876" data-name="Trazado 779876" d="M141,281.42a1.255,1.255,0,1,0-2.509,0v2.194a1.255,1.255,0,1,0,2.509,0Z" fill="#fff"/>
        <path id="Trazado_779877" data-name="Trazado 779877" d="M146.02,281.42a1.254,1.254,0,1,0-2.508,0v2.194a1.254,1.254,0,1,0,2.508,0Z" fill="#fff"/>
      </g>
    </g>
  </g>
</svg>
