<svg id="Grupo_1065397" data-name="Grupo 1065397" xmlns="http://www.w3.org/2000/svg" xmlns:xlink="http://www.w3.org/1999/xlink" width="400" height="254.888" viewBox="0 0 400 254.888">
  <defs>
    <clipPath id="clip-path">
      <rect id="Rect치ngulo_374232" data-name="Rect치ngulo 374232" width="400" height="254.888" fill="none"/>
    </clipPath>
  </defs>
  <g id="Grupo_1065396" data-name="Grupo 1065396" clip-path="url(#clip-path)">
    <path id="Trazado_779703" data-name="Trazado 779703" d="M422.768,238.511c85.771-42.382,55.6-123.847,24.3-170.053C403.246,3.764,299.69-19.488,256.856,32.13c-58.139,70.061-116.945,53.488-137,99.184s16.74,90.362,37.441,107.291c35.447-1.493,82.926-2.4,133.867-2.4s96.436.87,131.608,2.307M214.317,58.226c-22.448,14.37-59.576,25.5-71.907,10.229-9.212-11.413,2.135-32.827,24.359-49.063,22.207-16.222,51.961-26.044,68.177-14.1,19.246,14.177-3.343,41.868-20.63,52.933" transform="translate(-91.161 -0.001)" fill="#bc97f9" fill-rule="evenodd"/>
    <path id="Trazado_779704" data-name="Trazado 779704" d="M515.162,149.305a2.73,2.73,0,1,1-5.126,1.879,179.034,179.034,0,0,0-9.246-20.753,209.787,209.787,0,0,0-12.323-20.64,118.668,118.668,0,0,0-12.726-15.663,133.023,133.023,0,0,0-15.716-13.916,146.706,146.706,0,0,0-46.858-23.548,2.726,2.726,0,0,1,1.536-5.231,152.952,152.952,0,0,1,48.609,24.425,138.551,138.551,0,0,1,16.358,14.49,124.3,124.3,0,0,1,13.3,16.388,215.583,215.583,0,0,1,12.663,21.175,184.342,184.342,0,0,1,9.525,21.393M393.245,46.9a2.723,2.723,0,0,1-.685,5.4,115.456,115.456,0,0,0-19.682-.891,92.567,92.567,0,0,0-18.051,2.508,2.727,2.727,0,0,1-1.3-5.3,98.06,98.06,0,0,1,19.119-2.655,120.829,120.829,0,0,1,20.6.932M243.717,126.272A2.727,2.727,0,1,1,246,131.224c-5.359,2.467-10.575,4.659-15.788,6.85-4.791,2.011-9.582,4.026-14.128,6.084-3.116,1.41-6.216,2.883-9.141,4.478a67.4,67.4,0,0,0-8.413,5.35,2.729,2.729,0,0,1-3.289-4.355,73.117,73.117,0,0,1,9.1-5.777c3.168-1.727,6.355-3.245,9.5-4.67,4.84-2.192,9.548-4.171,14.255-6.148,5.3-2.228,10.6-4.455,15.619-6.764m-56.789,31.283a2.725,2.725,0,0,1,4.228,3.438,38.791,38.791,0,0,0-3.136,4.465,43.173,43.173,0,0,0-2.576,4.979,2.725,2.725,0,0,1-5-2.179,48.721,48.721,0,0,1,2.9-5.617,44.223,44.223,0,0,1,3.584-5.086m99.629-106.79a2.726,2.726,0,0,1-5.316,1.216,2.24,2.24,0,0,0-.467-.9,6.487,6.487,0,0,0-1.169-1.062,14.162,14.162,0,0,0-6.631-2.393,35.133,35.133,0,0,0-10.233.458,67.11,67.11,0,0,0-13.359,3.953,98.625,98.625,0,0,0-14.258,7.238,2.727,2.727,0,1,1-2.841-4.655,104.141,104.141,0,0,1,15.071-7.643A72.445,72.445,0,0,1,261.8,42.705a40.341,40.341,0,0,1,11.855-.478,19.478,19.478,0,0,1,9.171,3.4l.01.011A11.644,11.644,0,0,1,285,47.645a7.593,7.593,0,0,1,1.555,3.12M219.934,63.4a2.721,2.721,0,1,1,3.481,4.184,77.054,77.054,0,0,0-8.5,8.169,50.674,50.674,0,0,0-5.977,8.167,2.721,2.721,0,1,1-4.718-2.712,56.2,56.2,0,0,1,6.617-9.065,82.492,82.492,0,0,1,9.092-8.743" transform="translate(-144.042 -33.553)" fill="#fff" fill-rule="evenodd"/>
    <path id="Trazado_779705" data-name="Trazado 779705" d="M121.729,840.2c2.014-19.166-4.677-16.046-13.758-29.063-3.747-5.372-3.59-10.182-.98-15.908,1.713-3.755,3.451-8.434,1.375-12.389-2.251-4.29-6.589-4.484-10.744-5.4-10.672-2.356-14.078-11.029-19.449-19.309a10.353,10.353,0,0,0-5.773-4.715c-11.837-3.008-16.05,16.273-11.29,23.87,2.973,4.745,7.628,7.907,10.651,12.68,2.7,4.263,2.651,7.634,2.153,12.417-.792,7.594,3,14.718,8.263,19.885,2.985,2.934,6.285,5.673,8.418,9.349a27.568,27.568,0,0,0,9.891,9.509c6.59-.333,13.689-.644,21.243-.928" transform="translate(-47.309 -601.922)" fill="#6b3db8" fill-rule="evenodd"/>
    <path id="Trazado_779706" data-name="Trazado 779706" d="M154.944,883.4a121.54,121.54,0,0,1-10.593-12.067,36.786,36.786,0,0,1,1.269-10.671,36.722,36.722,0,0,0-2.83,8.573,104.614,104.614,0,0,1-13.07-24.754,47.286,47.286,0,0,1,6.981-15.063,39.8,39.8,0,0,0-7.91,12.639c-4.515-11.918-8.122-23-19.519-35.142a119.4,119.4,0,0,1,10.862,19.03,39.09,39.09,0,0,0-13.289-4.325A46.684,46.684,0,0,1,121.3,828.55c4.367,10.029,7.257,19.452,12.424,29.837a39.072,39.072,0,0,0-13.341-4.353,46.335,46.335,0,0,1,14.8,7.187A128.037,128.037,0,0,0,150.4,883.586q2.243-.1,4.546-.19" transform="translate(-85.397 -644.932)" fill="#bc97f9" fill-rule="evenodd"/>
    <path id="Trazado_779707" data-name="Trazado 779707" d="M67.724,1015.679c-4.265-12.277-8.034-8.511-17.952-14.482-4.236-2.548-5.594-5.928-5.537-10.707.04-3.137-.186-6.918-2.831-9.009-2.869-2.267-5.931-1.047-9.089-.386-8.108,1.7-13.116-3.241-19.364-7.3a7.767,7.767,0,0,0-5.438-1.463c-9.115,1.614-6.143,16.281-.528,20.053,3.509,2.359,7.7,3.094,11.248,5.455,3.172,2.111,4.167,4.459,5.283,7.926,1.771,5.508,6.577,9.255,11.8,11.191.355.132.712.26,1.07.388,9.011-.614,19.541-1.173,31.344-1.669" transform="translate(-1.349 -777.084)" fill="#d8c2fc" fill-rule="evenodd"/>
    <path id="Trazado_779708" data-name="Trazado 779708" d="M91.3,1046.83c-1.729-.8-3.347-1.621-4.87-2.452a27.8,27.8,0,0,1-2.379-7.784,27.937,27.937,0,0,0,.658,6.818,78.256,78.256,0,0,1-16.61-13.059,36.073,36.073,0,0,1,.233-12.611,30.434,30.434,0,0,0-1.618,11.221c-6.766-6.843-12.648-13.392-24.247-18.239A89.422,89.422,0,0,1,55.8,1020.51a29.567,29.567,0,0,0-10.524,1.154,35.142,35.142,0,0,1,12.126.288c6.088,5.581,10.967,11.2,17.717,16.782a29.551,29.551,0,0,0-10.569,1.15,34.888,34.888,0,0,1,12.442.358,90.216,90.216,0,0,0,10.01,6.8q2.113-.107,4.3-.211" transform="translate(-33.941 -807.831)" fill="#dee7f5" fill-rule="evenodd"/>
    <path id="Trazado_779709" data-name="Trazado 779709" d="M1649.05,834.679c-4.395-18.431,2.314-16.076,9.421-29.509,2.9-5.478,2.2-9.971-.906-15.036-2.037-3.324-4.2-7.508-2.711-11.46,1.62-4.288,5.666-4.979,9.458-6.325,9.741-3.459,11.941-12,16.029-20.392a9.822,9.822,0,0,1,4.873-5.1c10.758-4.209,16.923,13.383,13.33,21.066-2.245,4.8-6.248,8.312-8.536,13.144-2.043,4.316-1.612,7.472-.6,11.9,1.616,7.031-1.13,14.159-5.468,19.625-2.463,3.1-5.242,6.058-6.822,9.756-2.365,5.538-7.361,10.125-13.072,13.292-4.589-.231-9.432-.453-14.5-.664Z" transform="translate(-1316.899 -596.419)" fill="#6b3db8" fill-rule="evenodd"/>
    <path id="Trazado_779710" data-name="Trazado 779710" d="M1671.135,876.242a117.779,117.779,0,0,0,9.684-14,34.74,34.74,0,0,0-2.416-9.86,34.593,34.593,0,0,1,3.638,7.709,99.2,99.2,0,0,0,9.421-24.753,44.576,44.576,0,0,0-8.276-13.311,37.41,37.41,0,0,1,8.869,10.927c2.868-11.709,4.979-22.531,14.275-35.253a113.315,113.315,0,0,0-8,19.126,36.989,36.989,0,0,1,11.969-5.617,44.238,44.238,0,0,0-12.764,8.2c-2.945,9.92-4.576,19.1-8.231,29.445a37.036,37.036,0,0,1,12.014-5.649,43.972,43.972,0,0,0-13.055,8.477,123.478,123.478,0,0,1-13.008,24.743q-2.034-.091-4.118-.183" transform="translate(-1335.671 -637.57)" fill="#bc97f9" fill-rule="evenodd"/>
    <path id="Trazado_779711" data-name="Trazado 779711" d="M1597.376,991.275c-.651-2.975.93-5.273.879-10.782-.034-3.553-1.6-5.615-4.538-7.295-1.925-1.1-4.146-2.6-4.47-5-.352-2.6,1.491-4.071,3.028-5.8,3.947-4.44,2.734-9.334,2.506-14.682a5.7,5.7,0,0,1,1.062-3.911c4.254-5.1,12.125,2.017,12.407,6.871.177,3.031-.877,5.905-.716,8.963.147,2.734,1.22,4.2,2.932,6.137,2.721,3.081,3.279,7.419,2.586,11.366a25.694,25.694,0,0,0-.776,6.79,15.509,15.509,0,0,1-1.631,7.9q-6.366-.294-13.27-.561" transform="translate(-1270.186 -752.939)" fill="#d8c2fc" fill-rule="evenodd"/>
    <path id="Trazado_779712" data-name="Trazado 779712" d="M1625.748,1015.338c.141-1.418.228-2.766.269-4.056a19.631,19.631,0,0,0-3.89-4.28,19.569,19.569,0,0,1,3.92,2.858,57.159,57.159,0,0,0-1.992-15.036,25.126,25.126,0,0,0-7.769-4.382,21.153,21.153,0,0,1,7.419,3.022c-1.74-6.672-3.619-12.688-2.409-21.651a64.8,64.8,0,0,0,1.177,11.818,21.484,21.484,0,0,1,4.48-6.141,25.713,25.713,0,0,0-4.179,7.656c1.217,5.8,2.891,10.854,3.866,17.061a21.48,21.48,0,0,1,4.495-6.169,25.5,25.5,0,0,0-4.25,7.879,67.277,67.277,0,0,1,.489,11.49Z" transform="translate(-1291.833 -776.731)" fill="#dee7f5" fill-rule="evenodd"/>
    <path id="Trazado_779713" data-name="Trazado 779713" d="M1847.774,721.842c-3.518-2.706-3.42-5.357-2.327-6.026s3.314,2.105,2.738,5.93q.342.635.667,1.277a56.518,56.518,0,0,1,4.229,11.325,60.731,60.731,0,0,1,1.819,11.963,61.884,61.884,0,0,1-.565,12.1,60.028,60.028,0,0,1-2.945,11.771,56.366,56.366,0,0,1-5.316,10.9c-.141.226-.5.024-.364-.2.26-.416.516-.834.765-1.256a57.141,57.141,0,0,0,4.971-10.963,60.277,60.277,0,0,0,2.629-11.686,61.273,61.273,0,0,0,.282-12.055,59.753,59.753,0,0,0-2.083-11.8,57.121,57.121,0,0,0-4.474-11.176.2.2,0,0,1-.026-.094m2.706,3.9a11.407,11.407,0,0,0,2.3-1.721,4.673,4.673,0,0,0,1.187-1.781,2.177,2.177,0,0,0-.286-2.024c-.938-1.341-1.859-.706-2.478.617a9.318,9.318,0,0,0-.678,2.352,8.6,8.6,0,0,0-.043,2.557m-.168,2.544a5.571,5.571,0,0,0-.825-.908,7.415,7.415,0,0,0-1.03-.733,6.291,6.291,0,0,0-2.19-.819c-1.377-.222-2.393.222-2.045,1.49a1.685,1.685,0,0,0,.446.768,2.044,2.044,0,0,0,.77.442,4.286,4.286,0,0,0,.985.188,7.859,7.859,0,0,0,1.071.019,14.67,14.67,0,0,0,2.817-.448m2.533,3.981a11.31,11.31,0,0,0,2.478-1.427,4.787,4.787,0,0,0,1.4-1.625,2.22,2.22,0,0,0-.036-2.037c-.772-1.437-1.774-.919-2.533.311a8.921,8.921,0,0,0-.966,2.25,11.671,11.671,0,0,0-.277,1.275,6.337,6.337,0,0,0-.072,1.254m-.471,2.5a6.427,6.427,0,0,0-1.644-1.851,6.83,6.83,0,0,0-2.075-1.081,2.5,2.5,0,0,0-1.689-.015c-.411.194-.612.589-.531,1.252.187,1.3,1.629,1.7,3.083,1.806a14.631,14.631,0,0,0,2.857-.111m2.037,4.254a11.461,11.461,0,0,0,2.638-1.13,4.687,4.687,0,0,0,1.574-1.446,2.169,2.169,0,0,0,.209-2.022c-.593-1.512-1.64-1.122-2.555.011a9.313,9.313,0,0,0-1.22,2.117,8.932,8.932,0,0,0-.42,1.233,7.515,7.515,0,0,0-.226,1.237m-.755,2.435a5.867,5.867,0,0,0-.593-1.073,6.634,6.634,0,0,0-.83-.957,7.426,7.426,0,0,0-.943-.776,6.017,6.017,0,0,0-.99-.54c-1.29-.544-2.384-.358-2.337.968.011,1.328,1.435,1.879,2.847,2.158a14.533,14.533,0,0,0,2.847.22m1.45,3.4s.358-.054.876-.183a10.572,10.572,0,0,0,1.866-.64,4.831,4.831,0,0,0,1.734-1.258,2.174,2.174,0,0,0,.435-1.981c-.19-.784-.591-1.109-1.04-1.111a2.378,2.378,0,0,0-1.491.829,8.614,8.614,0,0,0-1.461,1.964,8.105,8.105,0,0,0-.919,2.38" transform="translate(-1473.958 -572.044)" fill="#500c75" fill-rule="evenodd"/>
    <path id="Trazado_779714" data-name="Trazado 779714" d="M252.419,880.594c2.8-3.442,2.1-6,.879-6.4s-2.744,2.807-1.3,6.4q-.185.695-.353,1.4a56.446,56.446,0,0,0-1.515,11.995,60.7,60.7,0,0,0,.978,12.059,61.914,61.914,0,0,0,3.331,11.643,59.992,59.992,0,0,0,5.571,10.781,56.407,56.407,0,0,0,7.678,9.382c.191.186.5-.092.308-.281q-.524-.517-1.032-1.045A57.225,57.225,0,0,1,259.6,927a60.308,60.308,0,0,1-5.242-10.769,61.211,61.211,0,0,1-3.046-11.669,59.767,59.767,0,0,1-.686-11.961,57.118,57.118,0,0,1,1.786-11.907.225.225,0,0,0,0-.1m-1.739,4.414a11.349,11.349,0,0,1-2.634-1.145,4.7,4.7,0,0,1-1.562-1.461,2.174,2.174,0,0,1-.187-2.038c.6-1.518,1.646-1.115,2.551.032a9.13,9.13,0,0,1,1.2,2.133,8.509,8.509,0,0,1,.631,2.478m.748,2.437a5.69,5.69,0,0,1,.6-1.072,7.408,7.408,0,0,1,.832-.949,6.294,6.294,0,0,1,1.943-1.3c1.29-.531,2.38-.335,2.334.981a1.7,1.7,0,0,1-.259.849,2.038,2.038,0,0,1-.648.606,4.241,4.241,0,0,1-.915.412,7.747,7.747,0,0,1-1.038.262,14.614,14.614,0,0,1-2.846.211m-1.549,4.457a11.282,11.282,0,0,1-2.741-.819,4.83,4.83,0,0,1-1.741-1.258,2.228,2.228,0,0,1-.433-1.992c.42-1.574,1.517-1.3,2.537-.28a8.961,8.961,0,0,1,1.457,1.968,11.841,11.841,0,0,1,.562,1.179,6.586,6.586,0,0,1,.359,1.2m1.034,2.331a6.371,6.371,0,0,1,1.175-2.18,6.8,6.8,0,0,1,1.771-1.529,2.514,2.514,0,0,1,1.639-.4c.443.094.732.433.8,1.1.119,1.314-1.195,2.028-2.585,2.467a14.775,14.775,0,0,1-2.8.55m-1.006,4.608a11.4,11.4,0,0,1-2.826-.493,4.662,4.662,0,0,1-1.867-1.047,2.167,2.167,0,0,1-.667-1.919c.228-1.61,1.337-1.471,2.488-.578a9.262,9.262,0,0,1,1.674,1.779,8.862,8.862,0,0,1,.693,1.106,7.43,7.43,0,0,1,.5,1.152m1.293,2.2a5.905,5.905,0,0,1,.331-1.183,6.992,6.992,0,0,1,.588-1.12,7.466,7.466,0,0,1,.741-.973,6.009,6.009,0,0,1,.84-.753c1.13-.825,2.238-.895,2.5.4.293,1.3-.967,2.162-2.276,2.757a14.554,14.554,0,0,1-2.722.868m-.628,3.645s-.359.03-.893.025a10.375,10.375,0,0,1-1.963-.2,4.794,4.794,0,0,1-1.978-.825,2.181,2.181,0,0,1-.878-1.828c0-.8.321-1.213.757-1.318a2.368,2.368,0,0,1,1.642.463,8.509,8.509,0,0,1,1.872,1.574,8.055,8.055,0,0,1,1.441,2.105" transform="translate(-195.435 -698.683)" fill="#500c75" fill-rule="evenodd"/>
    <path id="Trazado_779715" data-name="Trazado 779715" d="M1689.887,992.324c2.585-14.134,6.512-10.409,15.535-17.492,3.679-2.89,4.568-6.218,3.965-10.7-.4-2.936-.618-6.51,1.623-8.783,2.429-2.463,5.442-1.678,8.48-1.425,7.8.644,11.931-4.579,17.326-9.118a7.361,7.361,0,0,1,4.934-2.009c8.736.444,7.63,14.55,2.8,18.747-3.022,2.625-6.866,3.806-9.927,6.437-2.733,2.352-3.4,4.672-4.045,8.054-1.028,5.374-5.107,9.451-9.781,11.882-2.651,1.379-5.482,2.557-7.705,4.625a15.085,15.085,0,0,1-1.205,1.009c-6.615-.42-13.965-.812-21.958-1.175Z" transform="translate(-1350.659 -753.539)" fill="#d8c2fc" fill-rule="evenodd"/>
    <path id="Trazado_779716" data-name="Trazado 779716" d="M1710.711,1022.242a85.057,85.057,0,0,0,8.969-5.6,26.365,26.365,0,0,0,1.339-7.581,26.442,26.442,0,0,1,.166,6.474,74.191,74.191,0,0,0,14.082-14.2,34.087,34.087,0,0,0-1.665-11.8,28.767,28.767,0,0,1,2.806,10.338c5.559-7.212,10.326-14.048,20.65-19.953a84.667,84.667,0,0,0-11.385,10.743,27.942,27.942,0,0,1,10-.153,33.283,33.283,0,0,0-11.34,1.693c-5.069,5.95-9,11.8-14.692,17.819a27.91,27.91,0,0,1,10.044-.158,32.976,32.976,0,0,0-11.63,1.793,88.906,88.906,0,0,1-13.1,10.8c-1.391-.072-2.81-.141-4.246-.211" transform="translate(-1367.302 -783.208)" fill="#dee7f5" fill-rule="evenodd"/>
    <path id="Trazado_779717" data-name="Trazado 779717" d="M200,1176.666c110.457,0,200,4.182,200,9.342s-89.543,9.342-200,9.342-200-4.182-200-9.342,89.542-9.342,200-9.342" transform="translate(0 -940.462)" fill="#6b3db8" fill-rule="evenodd"/>
    <path id="Trazado_779718" data-name="Trazado 779718" d="M535.284,125.52a.5.5,0,0,1,0-1.008l1.02.011a.5.5,0,1,1-.024,1.007Zm-4.506-.75a.5.5,0,1,1,.121,1c-.329.04-.658.079-.986.126a.5.5,0,1,1-.146-1c.336-.049.674-.09,1.011-.13m-6,1.179a.5.5,0,0,1,.274.97l-.954.28a.5.5,0,1,1-.3-.962q.486-.152.978-.288m-5.744,2.111a.5.5,0,1,1,.428.913c-.3.139-.6.281-.9.427a.5.5,0,1,1-.448-.9Zm-5.337,2.99a.5.5,0,1,1,.563.834l-.819.565a.5.5,0,0,1-.584-.821Zm-4.8,3.789a.5.5,0,1,1,.686.736l-.721.686a.5.5,0,1,1-.7-.721Zm-4.153,4.489a.5.5,0,0,1,.792.623c-.205.258-.4.522-.6.785a.5.5,0,0,1-.813-.6c.21-.267.411-.544.624-.812m-3.4,5.086a.5.5,0,1,1,.879.491c-.162.288-.317.58-.474.872a.5.5,0,1,1-.893-.465c.16-.3.32-.6.488-.9m-2.56,5.557a.5.5,0,0,1,.946.344l-.329.936a.5.5,0,1,1-.958-.316c.12-.311.225-.646.341-.964m-1.652,5.894a.5.5,0,1,1,.99.188l-.178.979a.5.5,0,0,1-.994-.164Zm-.7,6.077a.5.5,0,1,1,1.006.032l-.023.994a.5.5,0,1,1-1.008-.006c0-.341.013-.68.025-1.021m.248,6.111a.5.5,0,1,1,1-.12c.038.329.083.657.13.987a.5.5,0,1,1-1,.145c-.048-.335-.1-.674-.134-1.011m1.2,6a.5.5,0,0,1,.967-.281q.135.478.284.953a.5.5,0,0,1-.961.3c-.1-.322-.2-.651-.291-.977M500,179.787a.5.5,0,0,1,.913-.428c.138.3.282.6.43.895a.5.5,0,0,1-.9.454c-.154-.3-.3-.617-.443-.921m3.01,5.325a.5.5,0,1,1,.835-.563c.184.273.373.546.565.815a.5.5,0,0,1-.817.589q-.3-.418-.583-.842m3.808,4.79a.5.5,0,1,1,.733-.689l.688.717a.5.5,0,1,1-.717.71c-.238-.243-.472-.49-.7-.738m4.506,4.137a.5.5,0,0,1,.617-.8q.392.308.792.6a.5.5,0,1,1-.6.812Zm5.1,3.382a.5.5,0,0,1,.486-.883l.876.473a.5.5,0,1,1-.465.894Zm5.566,2.538a.5.5,0,0,1,.341-.947l.939.328a.5.5,0,0,1-.317.957Zm5.9,1.629a.5.5,0,1,1,.19-.989c.323.062.655.111.976.175a.5.5,0,1,1-.158.994Zm6.081.68a.5.5,0,1,1,.032-1.006l.993.021a.5.5,0,0,1-.006,1.008Zm6.112-.271a.5.5,0,1,1-.127-1c.329-.042.658-.085.985-.136a.5.5,0,0,1,.153,1c-.337.051-.673.1-1.011.137m5.994-1.224a.5.5,0,1,1-.281-.966c.318-.09.635-.188.952-.288a.5.5,0,0,1,.3.961c-.325.1-.65.2-.976.294m5.726-2.154a.5.5,0,0,1-.431-.912c.3-.139.6-.284.9-.435a.5.5,0,0,1,.454.9c-.3.153-.61.3-.918.446m5.315-3.03a.5.5,0,0,1-.568-.832l.815-.57a.5.5,0,0,1,.589.817Zm4.775-3.824a.5.5,0,0,1-.691-.735c.241-.224.474-.465.715-.687a.5.5,0,0,1,.712.712Zm4.12-4.523a.5.5,0,1,1-.8-.617l.6-.791a.5.5,0,0,1,.815.593c-.2.275-.411.544-.616.815m3.364-5.112a.5.5,0,0,1-.886-.48l.469-.879a.5.5,0,0,1,.9.459Zm2.517-5.574a.5.5,0,0,1-.948-.341l.323-.938a.5.5,0,1,1,.959.313Zm1.606-5.905a.5.5,0,0,1-.99-.183l.171-.981a.5.5,0,0,1,1,.158Zm.657-6.084a.5.5,0,1,1-1.007-.024l.017-.994a.5.5,0,1,1,1.008,0Zm-.294-6.107a.5.5,0,1,1-1,.126c-.032-.313-.084-.672-.138-.981a.5.5,0,1,1,1-.158c.05.329.108.682.142,1.013m-1.249-5.994a.5.5,0,1,1-.965.288l-.291-.951a.5.5,0,0,1,.957-.313Zm-2.177-5.719a.5.5,0,1,1-.908.439l-.439-.895a.5.5,0,0,1,.9-.46c.155.3.3.608.449.915m-3.05-5.3a.5.5,0,0,1-.828.575l-.573-.814a.5.5,0,1,1,.815-.593Zm-3.842-4.758a.5.5,0,1,1-.73.693l-.694-.714a.5.5,0,1,1,.713-.712Zm-4.538-4.1a.5.5,0,0,1-.613.8l-.8-.6a.5.5,0,0,1,.593-.813Zm-5.124-3.342a.5.5,0,0,1-.481.885l-.873-.463a.5.5,0,1,1,.45-.9c.295.162.606.316.9.478m-5.586-2.5a.5.5,0,1,1-.334.949l-.941-.32a.5.5,0,1,1,.311-.958q.484.158.965.329m-5.912-1.585a.5.5,0,0,1-.177.992l-.981-.168a.5.5,0,0,1,.154-1c.335.051.67.111,1,.171" transform="translate(-396.749 -99.517)" fill="#6b3db8" fill-rule="evenodd"/>
    <path id="Trazado_779719" data-name="Trazado 779719" d="M1273.613,201.561a.5.5,0,1,1,0-.991l1,.013a.494.494,0,1,1-.026.989Zm-4.425-.736a.495.495,0,1,1,.117.983c-.322.038-.646.077-.968.124a.495.495,0,0,1-.143-.979c.329-.049.663-.089.994-.128m-5.9,1.158a.494.494,0,0,1,.269.951l-.938.277a.495.495,0,0,1-.294-.945c.32-.1.64-.194.962-.282m-5.644,2.073a.495.495,0,1,1,.42.9c-.3.138-.591.277-.883.422a.5.5,0,0,1-.44-.887Zm-5.243,2.938a.494.494,0,1,1,.554.819l-.8.553a.495.495,0,1,1-.574-.806Zm-4.715,3.721a.494.494,0,0,1,.672.723l-.708.672a.494.494,0,1,1-.691-.706Zm-4.08,4.41a.495.495,0,1,1,.778.612c-.2.254-.4.51-.591.77a.5.5,0,1,1-.8-.586c.207-.264.4-.535.612-.8m-3.342,4.994a.5.5,0,0,1,.866.482c-.162.284-.312.571-.467.859a.495.495,0,0,1-.877-.458c.158-.3.316-.591.478-.883m-2.514,5.459a.494.494,0,1,1,.928.339l-.324.919a.494.494,0,1,1-.938-.311c.117-.307.218-.636.333-.947m-1.621,5.789a.494.494,0,1,1,.972.184l-.177.962a.494.494,0,0,1-.975-.162Zm-.691,5.967a.494.494,0,1,1,.988.032l-.022.977a.5.5,0,0,1-.99-.006c0-.333.013-.668.024-1m.243,6a.5.5,0,1,1,.983-.119c.038.322.083.646.128.968a.495.495,0,1,1-.979.143c-.047-.329-.094-.661-.132-.992m1.182,5.894a.494.494,0,1,1,.949-.275c.089.313.181.625.279.936a.494.494,0,1,1-.941.3c-.1-.318-.2-.64-.286-.96m2.094,5.63a.495.495,0,1,1,.9-.418c.135.294.278.587.422.877a.494.494,0,1,1-.883.444c-.153-.29-.3-.6-.435-.9m2.956,5.231a.494.494,0,0,1,.819-.554c.181.269.365.539.555.8a.494.494,0,0,1-.8.578c-.2-.273-.388-.548-.573-.827m3.74,4.706a.494.494,0,0,1,.719-.678l.676.706a.495.495,0,1,1-.7.7c-.235-.239-.465-.48-.693-.725m4.425,4.064a.495.495,0,0,1,.606-.781c.258.2.516.4.779.591a.495.495,0,0,1-.587.8Zm5.009,3.322a.494.494,0,1,1,.476-.866l.861.463a.494.494,0,0,1-.456.878Zm5.467,2.493a.494.494,0,1,1,.335-.93l.923.322a.494.494,0,1,1-.311.938Zm5.79,1.6a.495.495,0,0,1,.187-.972c.318.062.644.107.958.171a.495.495,0,1,1-.154.977Zm5.973.668a.5.5,0,0,1,.032-.99l.975.021a.5.5,0,0,1-.006.99Zm6-.267a.494.494,0,1,1-.124-.981c.324-.04.646-.083.968-.132a.494.494,0,1,1,.151.977c-.332.051-.663.094-.994.135m5.888-1.2a.5.5,0,0,1-.277-.951c.313-.089.625-.184.936-.282a.495.495,0,0,1,.3.943c-.32.1-.638.2-.958.29m5.625-2.118a.5.5,0,0,1-.426-.894c.3-.138.589-.279.881-.426a.494.494,0,0,1,.444.883c-.3.151-.6.3-.9.437m5.22-2.975a.495.495,0,1,1-.557-.817l.8-.559a.494.494,0,1,1,.578.8Zm4.689-3.757a.494.494,0,1,1-.678-.719c.237-.222.467-.458.7-.676a.495.495,0,1,1,.7.7Zm4.049-4.44a.5.5,0,0,1-.783-.606l.588-.78a.494.494,0,1,1,.8.584c-.2.271-.4.535-.6.8m3.3-5.024a.495.495,0,0,1-.87-.471l.46-.863a.495.495,0,0,1,.881.45Zm2.473-5.474a.5.5,0,1,1-.932-.335l.318-.919a.494.494,0,1,1,.94.305Zm1.578-5.8a.5.5,0,0,1-.973-.181l.169-.962a.494.494,0,1,1,.976.156Zm.646-5.975a.5.5,0,0,1-.99-.024l.015-.977a.5.5,0,1,1,.99,0Zm-.29-6a.494.494,0,1,1-.981.124c-.032-.305-.081-.661-.136-.964a.495.495,0,1,1,.977-.155c.049.324.106.668.139.994m-1.224-5.887a.5.5,0,0,1-.949.284l-.286-.936a.495.495,0,1,1,.941-.3Zm-2.139-5.615a.5.5,0,0,1-.893.429l-.429-.878a.494.494,0,1,1,.88-.452c.152.3.3.6.443.9m-3-5.21a.5.5,0,1,1-.813.565l-.561-.8a.494.494,0,0,1,.8-.582Zm-3.774-4.674a.495.495,0,0,1-.715.684l-.682-.7a.5.5,0,0,1,.7-.7Zm-4.455-4.03a.495.495,0,0,1-.6.785l-.782-.586a.495.495,0,0,1,.582-.8Zm-5.031-3.282a.495.495,0,1,1-.474.868l-.857-.454a.495.495,0,1,1,.443-.885c.29.16.6.313.889.471m-5.487-2.453a.494.494,0,1,1-.33.932l-.924-.315a.495.495,0,1,1,.3-.941c.316.106.635.213.949.324m-5.807-1.557a.5.5,0,0,1-.174.975l-.964-.166a.494.494,0,1,1,.151-.977c.33.051.659.109.987.168" transform="translate(-987.419 -160.308)" fill="#6b3db8" fill-rule="evenodd"/>
    <path id="Trazado_779720" data-name="Trazado 779720" d="M827.99,546.146a.472.472,0,1,1,0-.943l.956.011a.473.473,0,0,1-.024.945Zm-4.221-.7a.471.471,0,1,1,.114.936c-.309.038-.617.075-.924.119a.471.471,0,1,1-.138-.932c.315-.047.632-.087.947-.122m-5.622,1.1a.472.472,0,1,1,.257.908l-.894.264a.472.472,0,0,1-.279-.9c.3-.094.61-.184.916-.269m-5.381,1.977a.472.472,0,1,1,.4.855c-.282.132-.564.264-.842.4a.472.472,0,0,1-.42-.846Zm-5,2.8a.471.471,0,1,1,.527.781l-.768.527a.471.471,0,1,1-.546-.768Zm-4.5,3.548a.472.472,0,0,1,.643.691l-.677.64a.471.471,0,0,1-.659-.674Zm-3.89,4.207a.472.472,0,0,1,.742.584c-.193.241-.379.488-.566.734a.472.472,0,1,1-.761-.559c.2-.25.384-.51.585-.759m-3.187,4.762a.472.472,0,0,1,.824.461c-.153.269-.3.542-.443.817a.473.473,0,0,1-.838-.437c.15-.28.3-.563.457-.841m-2.4,5.2a.472.472,0,0,1,.886.324l-.309.876a.472.472,0,1,1-.9-.3c.112-.292.21-.606.319-.9m-1.548,5.521a.472.472,0,0,1,.927.177l-.168.917a.472.472,0,0,1-.931-.155Zm-.658,5.693a.472.472,0,0,1,.943.03l-.022.93a.472.472,0,0,1-.943-.006c0-.318.012-.636.023-.955m.232,5.723a.472.472,0,0,1,.938-.113c.034.309.077.618.121.925a.472.472,0,0,1-.933.138c-.046-.316-.091-.633-.126-.949m1.126,5.622a.472.472,0,1,1,.907-.264c.085.3.172.6.265.893a.472.472,0,1,1-.9.286c-.1-.3-.186-.61-.273-.915m2,5.371a.473.473,0,1,1,.856-.4c.129.281.264.561.4.838a.472.472,0,1,1-.843.426c-.146-.279-.284-.578-.416-.862m2.82,4.988a.471.471,0,1,1,.781-.527c.172.256.349.512.529.763a.471.471,0,1,1-.765.552c-.185-.26-.369-.522-.546-.787m3.567,4.487a.472.472,0,1,1,.687-.646l.645.672a.472.472,0,0,1-.671.665c-.224-.228-.443-.457-.661-.691m4.222,3.875a.472.472,0,1,1,.579-.746q.366.288.741.565a.472.472,0,1,1-.56.759Zm4.776,3.167a.472.472,0,0,1,.455-.827l.821.443a.471.471,0,1,1-.436.836Zm5.213,2.378a.472.472,0,0,1,.32-.889l.879.307a.472.472,0,1,1-.3.9Zm5.523,1.525a.472.472,0,0,1,.178-.926c.3.058.614.1.914.164a.472.472,0,0,1-.148.932Zm5.7.638a.472.472,0,1,1,.03-.944l.931.019a.472.472,0,1,1-.007.943Zm5.725-.256a.472.472,0,1,1-.119-.936c.308-.038.615-.077.923-.124a.471.471,0,1,1,.143.932q-.473.071-.947.128m5.614-1.145a.472.472,0,0,1-.264-.906c.3-.087.6-.177.893-.271a.472.472,0,0,1,.285.9c-.3.1-.608.19-.914.277m5.363-2.021a.472.472,0,0,1-.4-.853c.282-.132.561-.265.838-.407a.472.472,0,1,1,.426.844q-.427.215-.861.416m4.979-2.837a.472.472,0,1,1-.531-.78l.763-.533a.471.471,0,1,1,.552.764Zm4.474-3.582a.472.472,0,0,1-.648-.687c.226-.211.444-.437.67-.644a.471.471,0,0,1,.667.667Zm3.858-4.235a.472.472,0,0,1-.746-.578l.559-.742a.473.473,0,0,1,.765.555c-.189.258-.384.51-.578.764m3.15-4.79a.471.471,0,1,1-.829-.45l.439-.823a.472.472,0,1,1,.84.431Zm2.357-5.22a.472.472,0,0,1-.889-.32l.3-.877a.471.471,0,1,1,.9.292Zm1.507-5.532a.472.472,0,1,1-.928-.171l.16-.919a.472.472,0,0,1,.932.149Zm.614-5.7a.472.472,0,1,1-.943-.025l.017-.93a.471.471,0,1,1,.941,0ZM864.127,577a.472.472,0,0,1-.936.119c-.028-.292-.077-.631-.13-.919a.473.473,0,1,1,.934-.149c.045.311.1.639.132.949m-1.167-5.613a.473.473,0,0,1-.906.269l-.273-.891a.472.472,0,1,1,.9-.292Zm-2.041-5.357a.473.473,0,1,1-.851.41l-.41-.838a.472.472,0,0,1,.842-.429c.145.282.284.571.42.857m-2.857-4.968a.472.472,0,0,1-.776.539l-.537-.763a.472.472,0,0,1,.763-.555Zm-3.6-4.457a.472.472,0,0,1-.683.651l-.65-.67a.471.471,0,1,1,.667-.667Zm-4.252-3.843a.471.471,0,1,1-.572.749l-.746-.559a.472.472,0,0,1,.556-.763Zm-4.8-3.132a.472.472,0,0,1-.452.829l-.817-.431a.472.472,0,1,1,.422-.846c.277.155.569.3.847.448m-5.232-2.339a.472.472,0,0,1-.314.891l-.883-.3a.472.472,0,0,1,.292-.9c.3.1.6.2.9.309m-5.538-1.484a.472.472,0,1,1-.166.928l-.919-.156a.472.472,0,1,1,.144-.932c.313.047.628.1.94.16" transform="translate(-632.666 -435.759)" fill="#6b3db8" fill-rule="evenodd"/>
    <path id="Trazado_779721" data-name="Trazado 779721" d="M1246.164,752.9a.508.508,0,0,1,0-1.017l1.028.013a.508.508,0,1,1-.026,1.015Zm-4.542-.755a.507.507,0,1,1,.123,1.007c-.333.039-.665.079-.994.128a.508.508,0,0,1-.149-1.005c.339-.049.682-.09,1.021-.13m-6.05,1.186a.508.508,0,1,1,.277.977l-.962.284a.508.508,0,0,1-.3-.97c.328-.1.657-.2.987-.292m-5.79,2.13a.508.508,0,0,1,.429.921c-.3.139-.606.282-.9.431a.508.508,0,1,1-.452-.909Zm-5.38,3.013a.507.507,0,1,1,.567.841l-.825.569a.508.508,0,1,1-.589-.827Zm-4.841,3.819a.508.508,0,0,1,.691.744l-.729.689a.507.507,0,0,1-.708-.725Zm-4.188,4.527a.508.508,0,1,1,.8.629c-.207.26-.407.523-.606.791a.509.509,0,0,1-.821-.6c.215-.269.414-.548.629-.817m-3.427,5.126a.507.507,0,1,1,.885.5c-.164.292-.32.586-.478.881a.508.508,0,0,1-.9-.471c.162-.3.324-.606.493-.906m-2.583,5.6a.508.508,0,0,1,.955.349l-.333.943a.508.508,0,1,1-.964-.32c.121-.314.226-.651.343-.972m-1.665,5.941a.508.508,0,0,1,1,.19l-.181.987a.508.508,0,1,1-1-.166Zm-.708,6.126a.508.508,0,1,1,1.015.034l-.024,1a.508.508,0,1,1-1.015-.007c0-.343.013-.685.025-1.028m.25,6.159a.508.508,0,1,1,1.009-.12c.036.331.083.663.13.992a.507.507,0,1,1-1,.147c-.049-.337-.1-.678-.135-1.019m1.211,6.051a.508.508,0,1,1,.975-.283c.092.32.187.642.288.96a.509.509,0,0,1-.97.307c-.1-.326-.2-.655-.294-.985m2.151,5.779a.507.507,0,1,1,.919-.431c.139.3.286.6.435.9a.507.507,0,0,1-.906.458c-.158-.3-.307-.622-.448-.928m3.034,5.368a.507.507,0,1,1,.842-.567c.186.275.377.552.569.821a.507.507,0,1,1-.823.593c-.2-.279-.4-.563-.588-.848m3.839,4.83a.508.508,0,0,1,.74-.7l.693.725a.508.508,0,1,1-.723.714c-.241-.243-.476-.491-.71-.742m4.542,4.169a.508.508,0,0,1,.623-.8c.261.207.529.41.8.608a.508.508,0,1,1-.6.817Zm5.141,3.41a.508.508,0,1,1,.49-.891l.883.476a.507.507,0,1,1-.469.9Zm5.61,2.559a.508.508,0,0,1,.344-.957l.946.331a.508.508,0,1,1-.318.964Zm5.945,1.642a.508.508,0,0,1,.19-1c.326.064.661.111.985.177a.508.508,0,0,1-.16,1Zm6.129.686a.508.508,0,1,1,.032-1.015l1,.021a.507.507,0,0,1-.006,1.015ZM1251,830a.508.508,0,0,1-.128-1.007c.331-.042.663-.085.992-.136a.507.507,0,1,1,.155,1c-.339.053-.678.1-1.019.141m6.043-1.235a.507.507,0,1,1-.284-.974c.322-.092.642-.192.96-.292a.508.508,0,1,1,.307.968c-.328.1-.656.205-.983.3m5.771-2.173a.507.507,0,0,1-.435-.917c.3-.141.6-.288.9-.439a.508.508,0,1,1,.456.908c-.305.155-.614.305-.925.448m5.358-3.053a.508.508,0,0,1-.572-.84l.821-.574a.508.508,0,0,1,.6.825Zm4.813-3.856a.507.507,0,1,1-.7-.738c.243-.228.478-.471.723-.695a.507.507,0,0,1,.716.719Zm4.154-4.557a.508.508,0,0,1-.8-.623l.6-.8a.508.508,0,0,1,.821.6c-.2.277-.414.548-.621.823m3.389-5.156a.508.508,0,1,1-.893-.484l.475-.885a.5.5,0,0,1,.682-.22.511.511,0,0,1,.222.684Zm2.539-5.617a.508.508,0,0,1-.957-.344l.328-.945a.507.507,0,1,1,.964.315Zm1.619-5.954a.507.507,0,1,1-1-.184l.173-.987a.507.507,0,0,1,1,.158Zm.663-6.131a.509.509,0,1,1-1.017-.026l.019-1a.507.507,0,1,1,1.013,0Zm-.3-6.158a.507.507,0,1,1-1.005.128c-.034-.314-.083-.678-.14-.99a.507.507,0,0,1,1-.158c.053.333.109.687.143,1.021m-1.258-6.041a.507.507,0,1,1-.972.29l-.294-.958a.507.507,0,1,1,.964-.315ZM1281.6,774.3a.508.508,0,1,1-.915.441l-.443-.9a.508.508,0,1,1,.9-.463c.158.3.305.614.454.923m-3.075-5.346a.507.507,0,1,1-.834.578l-.578-.819a.508.508,0,0,1,.821-.6Zm-3.873-4.8a.507.507,0,1,1-.734.7l-.7-.719a.508.508,0,0,1,.718-.719Zm-4.574-4.135a.508.508,0,0,1-.618.806l-.8-.6a.508.508,0,1,1,.6-.821Zm-5.163-3.371a.508.508,0,0,1-.486.893l-.881-.465a.509.509,0,1,1,.456-.909c.3.166.61.32.911.482m-5.632-2.516a.507.507,0,1,1-.337.956l-.949-.324a.507.507,0,1,1,.313-.964c.326.106.651.215.974.332m-5.96-1.6a.508.508,0,0,1-.177,1l-.99-.168a.508.508,0,0,1,.154-1c.339.053.676.111,1.013.171" transform="translate(-964.679 -600.952)" fill="#6b3db8" fill-rule="evenodd"/>
    <path id="Trazado_779722" data-name="Trazado 779722" d="M366.418,770.209a.466.466,0,1,1,0-.932l.943.011a.466.466,0,1,1-.023.932Zm-4.17-.693a.467.467,0,0,1,.112.926c-.3.034-.609.072-.912.117a.466.466,0,0,1-.136-.923q.466-.067.936-.12m-5.555,1.09a.467.467,0,0,1,.254.9l-.882.258a.466.466,0,1,1-.277-.891q.45-.139.9-.266m-5.315,1.955a.466.466,0,1,1,.394.844c-.278.13-.557.26-.831.4a.467.467,0,0,1-.415-.836Zm-4.939,2.766a.467.467,0,0,1,.522.774l-.76.522a.466.466,0,0,1-.539-.761Zm-4.445,3.506a.466.466,0,1,1,.635.682l-.667.635a.467.467,0,1,1-.652-.669Zm-3.843,4.154a.467.467,0,1,1,.733.578c-.19.239-.375.48-.557.725a.466.466,0,1,1-.752-.552c.194-.247.38-.5.577-.751M335,787.7a.466.466,0,1,1,.813.454c-.151.267-.295.537-.439.808a.467.467,0,0,1-.827-.431c.149-.279.3-.557.453-.831m-2.37,5.143a.465.465,0,1,1,.875.318l-.3.866a.466.466,0,1,1-.885-.294c.111-.288.208-.6.315-.891m-1.529,5.453a.466.466,0,1,1,.915.175l-.165.9a.466.466,0,0,1-.92-.151Zm-.651,5.625a.466.466,0,1,1,.931.028l-.022.921a.466.466,0,0,1-.932-.006c0-.314.012-.631.023-.943m.231,5.653a.466.466,0,0,1,.926-.111c.034.3.076.609.12.913a.466.466,0,0,1-.923.134c-.044-.311-.089-.623-.123-.936m1.112,5.555a.466.466,0,1,1,.895-.26c.085.294.17.59.264.881a.466.466,0,1,1-.888.282c-.1-.3-.185-.6-.27-.9m1.974,5.3a.466.466,0,0,1,.844-.4c.128.277.262.556.4.829a.466.466,0,0,1-.832.42c-.144-.275-.282-.573-.41-.853m2.785,4.928a.465.465,0,1,1,.772-.52c.171.252.346.5.523.753a.466.466,0,1,1-.755.546c-.183-.258-.363-.516-.54-.779m3.524,4.435a.466.466,0,1,1,.679-.638l.637.665a.466.466,0,0,1-.664.655c-.22-.224-.437-.452-.652-.682m4.17,3.828a.467.467,0,0,1,.573-.738q.361.285.732.559a.466.466,0,1,1-.554.75Zm4.718,3.13a.466.466,0,1,1,.449-.817l.812.437a.466.466,0,1,1-.43.827Zm5.151,2.348a.465.465,0,1,1,.315-.876l.87.3a.466.466,0,1,1-.294.885Zm5.456,1.508a.466.466,0,1,1,.176-.915c.3.056.606.1.9.162a.466.466,0,1,1-.146.921Zm5.627.629a.466.466,0,0,1,.03-.932l.92.019a.466.466,0,1,1,0,.932Zm5.657-.25a.466.466,0,1,1-.117-.925q.456-.057.911-.124a.466.466,0,1,1,.141.921c-.311.047-.623.088-.936.128m5.548-1.134a.466.466,0,1,1-.261-.894c.3-.083.589-.175.882-.267a.466.466,0,0,1,.282.888c-.3.094-.6.189-.9.273m5.3-1.994a.467.467,0,0,1-.4-.844q.417-.194.828-.4a.466.466,0,1,1,.421.832q-.422.212-.85.413m4.92-2.8a.467.467,0,0,1-.527-.77l.755-.527a.466.466,0,0,1,.545.757Zm4.417-3.538a.467.467,0,0,1-.639-.68c.223-.207.44-.431.662-.637a.466.466,0,1,1,.659.659Zm3.812-4.186a.466.466,0,1,1-.736-.57l.554-.732a.466.466,0,1,1,.753.548c-.185.256-.379.5-.571.755m3.114-4.732a.466.466,0,1,1-.819-.444l.433-.812a.466.466,0,1,1,.83.424Zm2.329-5.156a.466.466,0,0,1-.878-.316l.3-.868a.466.466,0,1,1,.887.288Zm1.487-5.466a.466.466,0,1,1-.917-.169l.159-.908a.466.466,0,0,1,.921.147Zm.608-5.628a.466.466,0,0,1-.932-.025l.015-.919a.466.466,0,1,1,.932,0Zm-.272-5.653a.466.466,0,1,1-.925.117c-.029-.288-.077-.621-.128-.908a.466.466,0,1,1,.921-.147c.047.307.1.631.132.938m-1.155-5.546a.466.466,0,1,1-.892.266l-.27-.879a.466.466,0,1,1,.887-.288Zm-2.015-5.291a.466.466,0,0,1-.84.4l-.406-.828a.466.466,0,1,1,.83-.424c.143.279.281.563.415.847m-2.823-4.909a.466.466,0,1,1-.765.531l-.531-.751a.466.466,0,0,1,.753-.55Zm-3.555-4.4a.466.466,0,0,1-.675.644l-.641-.661a.466.466,0,1,1,.659-.659Zm-4.2-3.794a.465.465,0,1,1-.567.738l-.737-.552a.466.466,0,0,1,.549-.753Zm-4.74-3.1a.466.466,0,0,1-.446.819l-.808-.427a.466.466,0,1,1,.417-.834c.273.153.56.294.837.443m-5.17-2.31a.466.466,0,0,1-.31.879l-.872-.3a.466.466,0,1,1,.288-.887c.3.1.6.2.893.3m-5.471-1.467a.467.467,0,0,1-.163.919l-.909-.154a.467.467,0,0,1,.142-.923c.31.049.619.1.929.158" transform="translate(-264.1 -614.852)" fill="#6b3db8" fill-rule="evenodd"/>
    <path id="Trazado_779723" data-name="Trazado 779723" d="M1018.9,266.179a.442.442,0,0,1,0-.883c.309,0,.606.013.914.034a.442.442,0,0,1-.06.881c-.288-.019-.563-.03-.853-.032m-3.542-.356a.442.442,0,0,1,.262.844c-.27.081-.541.177-.8.279a.441.441,0,1,1-.324-.821c.279-.111.574-.215.864-.3m-4.717,2.732a.442.442,0,0,1,.6.644c-.208.194-.4.4-.6.6a.442.442,0,1,1-.652-.6c.209-.224.42-.442.646-.651m-3.044,4.523a.442.442,0,0,1,.825.314c-.1.266-.192.531-.272.8a.441.441,0,1,1-.848-.247c.091-.3.185-.58.294-.87m-.741,5.4a.442.442,0,0,1,.88-.081,7.809,7.809,0,0,0,.106.842.442.442,0,1,1-.871.149c-.053-.292-.09-.612-.115-.91m1.7,5.182a.442.442,0,1,1,.753-.462c.146.241.3.48.468.708a.442.442,0,0,1-.717.516c-.178-.25-.346-.5-.5-.763m3.8,3.9a.442.442,0,0,1,.477-.744c.243.158.484.286.729.433a.441.441,0,1,1-.416.778c-.265-.139-.539-.3-.79-.467m5.134,1.838a.442.442,0,1,1,.1-.877c.281.034.563.053.846.066a.442.442,0,1,1-.032.883c-.3-.013-.612-.034-.913-.072m5.417-.6a.442.442,0,0,1-.292-.834,8.094,8.094,0,0,0,.787-.311.442.442,0,1,1,.358.808,8.413,8.413,0,0,1-.853.337m4.6-2.924a.442.442,0,1,1-.633-.618c.2-.2.388-.411.576-.627a.442.442,0,1,1,.674.571c-.2.231-.4.456-.617.674m2.854-4.644a.441.441,0,0,1-.838-.279c.09-.269.171-.54.239-.817a.442.442,0,1,1,.857.217c-.075.3-.16.587-.258.879m.522-5.427a.442.442,0,0,1-.875.117c-.038-.282-.083-.559-.141-.838a.442.442,0,1,1,.864-.183c.064.3.113.6.153.9m-1.913-5.107a.441.441,0,0,1-.734.49c-.154-.233-.324-.465-.5-.687a.441.441,0,0,1,.693-.546c.188.239.369.492.537.744m-3.96-3.747a.442.442,0,0,1-.447.763c-.243-.145-.495-.277-.749-.4a.442.442,0,1,1,.39-.793c.275.139.54.279.806.433" transform="translate(-804.741 -212.04)" fill="#6b3db8" fill-rule="evenodd"/>
    <path id="Trazado_779724" data-name="Trazado 779724" d="M312.787,612.547a.442.442,0,0,1,0-.883c.309,0,.606.013.913.032a.443.443,0,0,1-.06.883c-.288-.021-.565-.03-.853-.032m-3.543-.356a.442.442,0,1,1,.263.844c-.27.081-.54.175-.8.279a.441.441,0,1,1-.324-.821c.281-.111.575-.215.864-.3m-4.717,2.733a.442.442,0,1,1,.6.644c-.208.194-.4.394-.6.6a.442.442,0,0,1-.654-.595c.209-.224.421-.443.646-.652m-3.043,4.523a.442.442,0,1,1,.826.314c-.1.266-.192.531-.272.8a.441.441,0,1,1-.847-.246c.091-.3.185-.58.294-.87m-.742,5.4a.442.442,0,1,1,.879-.081,8.346,8.346,0,0,0,.106.842.441.441,0,1,1-.87.149c-.054-.292-.09-.612-.116-.909m1.7,5.18a.442.442,0,1,1,.753-.461c.146.241.3.482.468.71a.442.442,0,0,1-.717.516c-.178-.25-.345-.5-.5-.764m3.8,3.905a.442.442,0,1,1,.476-.744c.242.158.484.286.73.433a.441.441,0,1,1-.417.778c-.265-.139-.539-.305-.789-.467m5.132,1.838a.442.442,0,1,1,.1-.877c.281.034.563.053.846.066a.442.442,0,0,1-.034.883c-.3-.013-.613-.036-.914-.072m5.418-.6a.442.442,0,0,1-.292-.834c.259-.081.538-.2.788-.311a.442.442,0,0,1,.359.808,8.465,8.465,0,0,1-.855.337m4.6-2.924a.441.441,0,1,1-.631-.618c.2-.2.388-.412.574-.629a.442.442,0,0,1,.674.57c-.2.232-.4.458-.618.676m2.856-4.646a.441.441,0,1,1-.838-.277c.09-.269.17-.542.239-.817a.442.442,0,1,1,.857.217c-.076.3-.161.587-.258.877m.522-5.425a.442.442,0,1,1-.876.115c-.038-.281-.085-.557-.141-.836a.441.441,0,1,1,.863-.183c.065.3.113.6.154.9m-1.913-5.107a.441.441,0,0,1-.734.49c-.154-.235-.324-.465-.5-.687a.442.442,0,1,1,.694-.548c.186.241.37.491.537.746m-3.961-3.747a.442.442,0,0,1-.445.763c-.245-.145-.494-.277-.75-.4a.442.442,0,1,1,.39-.793c.274.139.54.277.8.433" transform="translate(-240.37 -488.878)" fill="#6b3db8" fill-rule="evenodd"/>
    <path id="Trazado_779725" data-name="Trazado 779725" d="M868.961,1010.227a.442.442,0,0,1,0-.883c.308,0,.605.013.912.032a.442.442,0,0,1-.059.883c-.288-.021-.565-.03-.853-.032m-3.543-.356a.442.442,0,1,1,.262.844c-.269.079-.54.175-.8.279a.441.441,0,0,1-.324-.821c.281-.111.575-.215.865-.3M860.7,1012.6a.442.442,0,1,1,.6.644c-.208.194-.4.394-.6.6a.441.441,0,1,1-.652-.593c.209-.224.421-.443.646-.652m-3.044,4.523a.442.442,0,1,1,.826.314c-.1.266-.192.531-.272.8a.441.441,0,1,1-.847-.247c.092-.3.185-.58.294-.87m-.741,5.4a.442.442,0,1,1,.88-.081,7.869,7.869,0,0,0,.106.842.442.442,0,1,1-.871.149c-.053-.292-.09-.612-.115-.91m1.7,5.18a.442.442,0,1,1,.753-.461c.146.241.3.482.468.71a.441.441,0,0,1-.716.516c-.177-.25-.345-.5-.5-.764m3.8,3.906a.443.443,0,0,1,.477-.746c.242.158.483.288.73.433a.442.442,0,0,1-.418.78c-.264-.139-.537-.305-.789-.467m5.133,1.838a.442.442,0,1,1,.1-.878c.279.034.563.053.845.066a.442.442,0,0,1-.033.883c-.3-.013-.613-.036-.914-.071m5.418-.6a.442.442,0,0,1-.293-.834c.26-.081.539-.2.789-.311a.442.442,0,1,1,.358.808,8.866,8.866,0,0,1-.854.337m4.6-2.924a.442.442,0,0,1-.632-.618c.2-.2.388-.412.574-.629a.445.445,0,0,1,.623-.051.44.44,0,0,1,.051.621c-.2.232-.4.458-.617.676m2.856-4.645a.441.441,0,1,1-.838-.277q.134-.4.238-.817a.442.442,0,1,1,.857.216q-.113.443-.257.878m.521-5.427a.441.441,0,1,1-.875.117c-.038-.281-.085-.559-.142-.838a.441.441,0,0,1,.863-.181c.066.3.113.6.153.9m-1.912-5.1a.442.442,0,1,1-.735.489c-.154-.235-.323-.465-.5-.687a.442.442,0,0,1,.695-.548c.186.241.369.491.536.746M875.08,1011a.442.442,0,1,1-.446.763c-.244-.145-.494-.277-.749-.4a.442.442,0,0,1,.39-.795c.274.141.541.279.806.435" transform="translate(-684.897 -806.728)" fill="#6b3db8" fill-rule="evenodd"/>
    <path id="Trazado_779726" data-name="Trazado 779726" d="M1647.027,612.547a.442.442,0,0,1,0-.883c.309,0,.606.013.911.032a.442.442,0,0,1-.058.883c-.288-.021-.565-.03-.853-.032m-3.542-.356a.442.442,0,0,1,.262.844c-.271.081-.541.175-.8.279a.442.442,0,0,1-.326-.821c.28-.111.576-.215.866-.3m-4.717,2.733a.442.442,0,0,1,.6.644c-.209.194-.4.394-.6.6a.442.442,0,0,1-.653-.595c.211-.224.422-.443.648-.652m-3.043,4.523a.441.441,0,1,1,.825.314c-.1.266-.192.531-.271.8a.441.441,0,1,1-.848-.246c.09-.3.185-.58.294-.87m-.742,5.4a.441.441,0,1,1,.878-.081c.024.267.056.58.107.842a.441.441,0,1,1-.87.149,8.642,8.642,0,0,1-.115-.909m1.7,5.18a.442.442,0,1,1,.753-.461c.145.241.3.482.467.71a.442.442,0,0,1-.718.516c-.177-.25-.344-.5-.5-.764m3.8,3.905a.441.441,0,1,1,.474-.744c.243.158.486.286.731.433a.442.442,0,1,1-.418.778c-.263-.139-.538-.305-.787-.467m5.133,1.838a.441.441,0,1,1,.1-.877c.28.034.563.053.845.066a.442.442,0,1,1-.034.883c-.3-.013-.61-.036-.911-.072m5.417-.6a.442.442,0,1,1-.292-.834c.258-.081.537-.2.787-.311a.442.442,0,1,1,.358.808,8.468,8.468,0,0,1-.853.337m4.6-2.924a.442.442,0,0,1-.633-.618c.2-.2.388-.412.577-.629a.441.441,0,0,1,.674.57c-.2.232-.4.458-.617.676m2.854-4.646a.441.441,0,1,1-.838-.277c.088-.269.171-.542.239-.817a.442.442,0,0,1,.857.217c-.077.3-.16.587-.258.877m.52-5.425a.438.438,0,0,1-.376.5.444.444,0,0,1-.5-.38c-.037-.281-.083-.557-.141-.836a.442.442,0,0,1,.864-.183c.064.3.113.6.151.9m-1.911-5.107a.442.442,0,0,1-.736.49c-.153-.235-.322-.465-.493-.687a.442.442,0,1,1,.693-.548c.186.241.369.491.537.746m-3.96-3.747a.442.442,0,1,1-.447.763c-.245-.145-.5-.277-.749-.4a.442.442,0,0,1,.389-.793c.275.139.539.277.806.433" transform="translate(-1306.775 -488.878)" fill="#6b3db8" fill-rule="evenodd"/>
    <path id="Trazado_779727" data-name="Trazado 779727" d="M1569.939,430.037a214.974,214.974,0,0,0-32.018-1.783c1.909-5.766,3.5-12.564,4.952-18.974,4.444-19.674,7.6-40.661,12.715-40.554q19.588-2.474,44.764.943c-5.1-.027-8.252,20.919-12.688,40.554-3.732,16.516-8.429,35.618-17.038,32.97-4.964-1.352,7.08-11.694-.452-13.127-.079-.013-.158-.023-.236-.03" transform="translate(-1229.199 -293.878)" fill="#fff" fill-rule="evenodd"/>
    <path id="Trazado_779728" data-name="Trazado 779728" d="M1430.895,669.169a214.961,214.961,0,0,1,32.018,1.783c-3.774-.339-5.425,5.886-5.892,11.191-.506,5.732-.67,11.613-8.331,11.988q-15.753-2.474-44.675-.951h0c7.542-.429,7.707-6.278,8.212-11.982.478-5.414,2.186-11.786,6.127-11.159q5.971-.695,12.534-.87Z" transform="translate(-1122.172 -534.793)" fill="#fff" fill-rule="evenodd"/>
    <path id="Trazado_779729" data-name="Trazado 779729" d="M1675.082,691.577q-3.2-.316-7.483-1.077c.032-.36.062-.719.094-1.077.467-5.3,2.118-11.53,5.892-11.191.077.011.156.021.235.03,7.532,1.433-4.512,11.775.452,13.127a5.62,5.62,0,0,0,.81.188" transform="translate(-1332.845 -542.073)" fill="#d8c2fc" fill-rule="evenodd"/>
    <path id="Trazado_779730" data-name="Trazado 779730" d="M1846.62,440.835a54.433,54.433,0,0,0,7.02.746q-3.949,7.415-7.086,4.6c-1.1-1.1-.714-3.073.066-5.348" transform="translate(-1475.331 -352.342)" fill="#6b3db8" fill-rule="evenodd"/>
    <path id="Trazado_779731" data-name="Trazado 779731" d="M1819.151,396.36q-5.322-.184-9.372-.637c2.386-10.46,4.764-18.177,7.858-18.16a2.773,2.773,0,0,1,1.811.851c2.392,2.706-.277,7.764-1.676,11.85-.78,2.275-1.167,4.248-.066,5.348a2.821,2.821,0,0,0,1.444.748" transform="translate(-1446.484 -301.771)" fill="#d8c2fc" fill-rule="evenodd"/>
    <path id="Trazado_779732" data-name="Trazado 779732" d="M1606.617,399.614a.457.457,0,0,0,.118-.906c-5.738-.761-11.746-1.213-17.432-1.435-6.83-.269-13.191-.209-18.049.04a.456.456,0,1,0,.045.911c4.839-.247,11.17-.307,17.968-.04,5.661.222,11.641.672,17.349,1.429M1592.5,452.727a.456.456,0,1,0,.16-.9c-5.5-.99-11.265-1.695-16.719-2.164-6.549-.565-12.677-.791-17.379-.768a.456.456,0,0,0,0,.911c4.657-.02,10.754.205,17.3.768,5.448.467,11.185,1.168,16.635,2.151m2.041-5.757a.458.458,0,1,0,.132-.906c-5.591-.827-11.46-1.356-17.019-1.659-6.669-.363-12.887-.4-17.646-.224a.456.456,0,0,0,.032.912c4.731-.172,10.922-.138,17.565.224,5.525.3,11.362.828,16.936,1.653m1.487-5.336a.457.457,0,0,0,.121-.906c-5.655-.749-11.577-1.194-17.179-1.416-6.73-.264-13-.2-17.789.041a.456.456,0,1,0,.047.911c4.766-.245,11.008-.3,17.707-.039,5.578.218,11.472.663,17.094,1.408m1.608-4.888a.456.456,0,0,0,.12-.9c-5.74-.761-11.747-1.213-17.433-1.437-6.828-.269-13.189-.209-18.049.04a.457.457,0,0,0,.047.913c4.836-.249,11.17-.309,17.968-.041,5.66.222,11.641.672,17.347,1.429m.866-5.3a.456.456,0,0,0,.117-.9c-5.736-.761-11.747-1.213-17.43-1.437-6.832-.269-13.192-.209-18.051.04a.456.456,0,1,0,.047.911c4.838-.247,11.171-.307,17.966-.04,5.66.222,11.643.672,17.35,1.429m.772-5.3a.456.456,0,1,0,.117-.9c-5.736-.761-11.746-1.214-17.429-1.437-6.83-.269-13.193-.209-18.051.04a.457.457,0,0,0,.047.913c4.837-.249,11.172-.309,17.968-.042,5.659.222,11.641.672,17.349,1.429m1.232-5.3a.456.456,0,0,0,.116-.9c-5.736-.761-11.746-1.213-17.431-1.437-6.83-.269-13.191-.209-18.049.04a.456.456,0,1,0,.045.911c4.839-.247,11.172-.307,17.968-.04,5.661.222,11.641.672,17.351,1.429m1.137-5.3a.457.457,0,1,0,.117-.906c-5.736-.761-11.745-1.213-17.43-1.435-6.83-.269-13.191-.209-18.051.04a.456.456,0,0,0,.047.911c4.838-.247,11.172-.307,17.968-.04,5.66.222,11.643.672,17.349,1.429m1.139-5.3a.456.456,0,0,0,.119-.9c-5.736-.763-11.746-1.215-17.432-1.437-6.83-.269-13.191-.209-18.049.04a.456.456,0,1,0,.045.911c4.84-.247,11.17-.307,17.968-.04,5.66.222,11.641.672,17.349,1.429m1.5-5.3a.457.457,0,1,0,.119-.906c-5.738-.761-11.747-1.213-17.431-1.435-6.828-.269-13.191-.209-18.049.04a.456.456,0,1,0,.047.911c4.836-.247,11.17-.307,17.966-.04,5.66.222,11.643.672,17.349,1.429" transform="translate(-1245.333 -317.383)" fill="#d8c2fc" fill-rule="evenodd"/>
    <path id="Trazado_779733" data-name="Trazado 779733" d="M1499.988,688.477a.457.457,0,1,0,.117-.906c-5.529-.738-11.319-1.177-16.8-1.4-6.583-.265-12.714-.211-17.4.025a.456.456,0,1,0,.043.911c4.663-.233,10.767-.288,17.317-.025,5.453.218,11.219.657,16.718,1.392m-2.821,9.378a.456.456,0,1,0,.147-.9c-5.506-.906-11.283-1.522-16.752-1.906-6.561-.461-12.694-.593-17.388-.5a.456.456,0,1,0,.017.911c4.66-.094,10.761.037,17.311.5,5.446.384,11.193,1,16.665,1.894m1.109-5.11a.457.457,0,0,0,.122-.906c-5.527-.751-11.317-1.205-16.8-1.437-6.58-.28-12.713-.241-17.4-.017a.457.457,0,1,0,.043.913c4.663-.226,10.766-.264,17.317.015,5.451.232,11.214.684,16.712,1.431" transform="translate(-1169.098 -548.29)" fill="#d8c2fc" fill-rule="evenodd"/>
    <path id="Trazado_779734" data-name="Trazado 779734" d="M332.008,679.6a269.934,269.934,0,0,1,40.217-2.241c-2.4-7.242-4.4-15.782-6.221-23.832-5.583-24.711-9.552-51.072-15.973-50.937q-24.6-3.107-56.222,1.184c6.4-.034,10.363,26.274,15.935,50.939,4.687,20.744,10.587,44.738,21.4,41.412,6.234-1.7-8.893-14.688.567-16.49.1-.015.2-.026.3-.036" transform="translate(-234.83 -480.58)" fill="#fff" fill-rule="evenodd"/>
    <path id="Trazado_779735" data-name="Trazado 779735" d="M524.316,979.954a269.948,269.948,0,0,0-40.217,2.241c4.74-.427,6.813,7.391,7.4,14.055.637,7.2.843,14.586,10.463,15.057q19.786-3.11,56.115-1.192h-.006c-9.473-.542-9.681-7.886-10.313-15.051-.6-6.8-2.747-14.8-7.7-14.018q-7.5-.872-15.744-1.092Z" transform="translate(-386.921 -783.179)" fill="#fff" fill-rule="evenodd"/>
    <path id="Trazado_779736" data-name="Trazado 779736" d="M468.29,1008.1q4.025-.4,9.4-1.352-.058-.678-.117-1.354c-.588-6.664-2.662-14.483-7.4-14.055l-.3.036c-9.459,1.8,5.667,14.791-.567,16.49a7.093,7.093,0,0,1-1.017.235" transform="translate(-372.991 -792.327)" fill="#d8c2fc" fill-rule="evenodd"/>
    <path id="Trazado_779737" data-name="Trazado 779737" d="M257.849,693.153a68.172,68.172,0,0,1-8.818.938q4.96,9.313,8.9,5.781c1.383-1.382.9-3.86-.081-6.719" transform="translate(-199.04 -554.009)" fill="#6b3db8" fill-rule="evenodd"/>
    <path id="Trazado_779738" data-name="Trazado 779738" d="M278.044,637.292q6.684-.229,11.772-.8c-2.995-13.138-5.982-22.83-9.868-22.81a3.475,3.475,0,0,0-2.277,1.068c-3.005,3.4.348,9.752,2.106,14.885.979,2.859,1.464,5.337.081,6.719a3.564,3.564,0,0,1-1.814.938" transform="translate(-220.969 -490.491)" fill="#d8c2fc" fill-rule="evenodd"/>
    <path id="Trazado_779739" data-name="Trazado 779739" d="M352.975,641.372a.573.573,0,1,1-.148-1.136c7.206-.957,14.754-1.523,21.894-1.806,8.578-.337,16.569-.262,22.672.051a.574.574,0,0,1-.058,1.147c-6.077-.312-14.032-.388-22.568-.051-7.109.279-14.623.844-21.791,1.795m17.733,66.715a.573.573,0,0,1-.2-1.128c6.909-1.247,14.15-2.131,21-2.719,8.226-.708,15.925-.992,21.829-.964a.572.572,0,0,1-.005,1.145c-5.849-.026-13.508.258-21.73.964-6.842.587-14.049,1.469-20.893,2.7m-2.565-7.231a.575.575,0,1,1-.166-1.137c7.023-1.04,14.4-1.7,21.379-2.085,8.374-.456,16.187-.5,22.163-.282a.574.574,0,0,1-.04,1.147c-5.94-.217-13.717-.173-22.064.28-6.938.379-14.272,1.042-21.272,2.077m-1.87-6.7a.573.573,0,0,1-.148-1.137c7.1-.941,14.54-1.5,21.576-1.778,8.454-.333,16.329-.26,22.342.049a.573.573,0,1,1-.058,1.145c-5.987-.307-13.826-.38-22.239-.049-7.006.275-14.409.832-21.473,1.77m-2.019-6.141a.573.573,0,0,1-.149-1.135c7.207-.957,14.755-1.525,21.894-1.806,8.578-.337,16.569-.262,22.672.051a.573.573,0,1,1-.058,1.145c-6.077-.311-14.032-.386-22.568-.051-7.109.281-14.623.846-21.791,1.8m-1.086-6.662a.573.573,0,0,1-.149-1.137c7.206-.957,14.755-1.523,21.895-1.8,8.578-.337,16.57-.262,22.672.051a.573.573,0,0,1-.058,1.145c-6.077-.311-14.032-.386-22.569-.051-7.109.28-14.623.845-21.791,1.8m-.971-6.664a.573.573,0,1,1-.148-1.136c7.205-.957,14.754-1.523,21.894-1.806,8.577-.337,16.569-.26,22.671.051a.574.574,0,0,1-.059,1.147c-6.076-.313-14.031-.388-22.569-.051-7.108.279-14.621.844-21.79,1.795m-1.545-6.662a.574.574,0,1,1-.149-1.137c7.206-.955,14.754-1.523,21.894-1.8,8.578-.337,16.569-.262,22.671.051a.573.573,0,1,1-.058,1.145c-6.076-.311-14.031-.386-22.567-.051-7.11.28-14.623.846-21.791,1.8m-1.43-6.662a.574.574,0,0,1-.149-1.137c7.206-.957,14.754-1.523,21.894-1.8,8.578-.339,16.569-.262,22.671.049a.574.574,0,0,1-.058,1.146c-6.076-.31-14.031-.386-22.568-.051-7.11.279-14.622.844-21.79,1.8m-1.431-6.664a.573.573,0,1,1-.148-1.136c7.206-.957,14.754-1.525,21.894-1.806,8.578-.337,16.569-.262,22.672.051a.573.573,0,1,1-.058,1.145c-6.077-.311-14.031-.386-22.568-.049-7.11.279-14.622.844-21.791,1.795m-1.891-6.662a.573.573,0,0,1-.148-1.137c7.206-.955,14.754-1.524,21.894-1.8,8.578-.337,16.569-.262,22.672.051a.573.573,0,1,1-.058,1.145c-6.076-.311-14.031-.386-22.568-.051-7.109.28-14.622.845-21.791,1.8" transform="translate(-281.602 -510.096)" fill="#d8c2fc" fill-rule="evenodd"/>
    <path id="Trazado_779740" data-name="Trazado 779740" d="M543.161,1004.2a.572.572,0,1,1-.149-1.135c6.944-.927,14.219-1.48,21.1-1.755,8.267-.333,15.968-.265,21.85.032a.573.573,0,1,1-.054,1.145c-5.856-.3-13.523-.362-21.751-.032-6.851.275-14.09.825-21,1.745m3.543,11.782a.573.573,0,1,1-.183-1.131c6.915-1.137,14.17-1.909,21.039-2.393,8.241-.58,15.943-.746,21.841-.627a.574.574,0,0,1-.023,1.147c-5.852-.119-13.516.047-21.743.627-6.84.48-14.06,1.248-20.932,2.378m-1.393-6.421a.574.574,0,1,1-.153-1.137c6.94-.942,14.214-1.512,21.1-1.8,8.265-.352,15.965-.3,21.849-.021a.573.573,0,1,1-.053,1.145c-5.857-.281-13.524-.329-21.752.021-6.847.29-14.084.856-20.99,1.8" transform="translate(-433.61 -800.131)" fill="#d8c2fc" fill-rule="evenodd"/>
    <path id="Trazado_779741" data-name="Trazado 779741" d="M464.407,180.7c-1.879,27.685-8.543,58.367-39.052,66.3l-.757.2-.758-.2c-30.508-7.937-37.172-38.62-39.051-66.3l-.182-2.666,2.628-.493c12.723-2.384,24.389-7.152,36.107-12.534l1.256-.574,1.254.574c11.718,5.382,23.386,10.15,36.108,12.534l2.628.493Z" transform="translate(-307.402 -131.427)" fill="#bc97f9" fill-rule="evenodd"/>
    <path id="Trazado_779742" data-name="Trazado 779742" d="M474.077,193.167c-12.572-2.357-23.787-6.777-36.807-12.756-13.021,5.979-24.236,10.4-36.808,12.756,2.566,37.814,13.78,57.607,36.808,63.6,23.027-5.992,34.241-25.784,36.807-63.6" transform="translate(-320.073 -144.195)" fill="#8f52f5" fill-rule="evenodd"/>
    <path id="Trazado_779743" data-name="Trazado 779743" d="M491.51,221.556c-10.765-2.521-20.851-6.534-30.96-11.1-10.11,4.565-20.2,8.577-30.961,11.1,1.512,16.818,5.611,37.612,19.43,47.9a36.251,36.251,0,0,0,11.531,5.63,36.249,36.249,0,0,0,11.53-5.63c13.818-10.287,17.917-31.082,19.43-47.9" transform="translate(-343.352 -168.21)" fill="#6b3db8" fill-rule="evenodd"/>
    <path id="Trazado_779744" data-name="Trazado 779744" d="M614.785,221.556c-10.766-2.521-20.851-6.534-30.961-11.1v64.629a36.255,36.255,0,0,0,11.53-5.632c13.819-10.285,17.917-31.08,19.431-47.9" transform="translate(-466.627 -168.21)" fill="#8f52f5" fill-rule="evenodd"/>
    <path id="Trazado_779745" data-name="Trazado 779745" d="M493.692,294.879a3.342,3.342,0,0,1,5.434-3.892l6.681,9.314,17.636-24.73a3.336,3.336,0,0,1,5.435,3.868l-20.221,28.353a3.345,3.345,0,0,1-5.564.194Z" transform="translate(-394.088 -219.132)" fill="#fff" fill-rule="evenodd"/>
    <rect id="Rect치ngulo_374230" data-name="Rect치ngulo 374230" width="23.215" height="15.528" transform="translate(181.634 29.392)" fill="#6b3db8"/>
    <path id="Trazado_779746" data-name="Trazado 779746" d="M944.72,167.162a2.695,2.695,0,1,1,0-3.811,2.7,2.7,0,0,1,0,3.811m-4.889-4.275a3.811,3.811,0,0,0,5.1,5.54l2.437,2.437a.265.265,0,0,0,.372,0l.685-.685a.262.262,0,0,0,0-.371l-2.437-2.437a3.811,3.811,0,0,0-6.155-4.484" transform="translate(-750.513 -129.039)" fill="#fbfdff" fill-rule="evenodd"/>
    <path id="Trazado_779747" data-name="Trazado 779747" d="M722.5,852.812H707.336a2.987,2.987,0,0,1-2.987-2.986V834.664a2.986,2.986,0,0,1,2.987-2.987H722.5a2.986,2.986,0,0,1,2.987,2.987v15.162a2.988,2.988,0,0,1-2.987,2.986" transform="translate(-562.958 -664.726)" fill="#6b3db8" fill-rule="evenodd"/>
    <path id="Trazado_779748" data-name="Trazado 779748" d="M725.034,865.632a1.44,1.44,0,1,1,2.141-1.927l1.4,1.557,6.619-6.489a1.438,1.438,0,1,1,2.018,2.05l-7.64,7.489c-.032.034-.065.068-.1.1a1.442,1.442,0,0,1-2.035-.107Z" transform="translate(-579.195 -686.053)" fill="#fff" fill-rule="evenodd"/>
    <path id="Trazado_779749" data-name="Trazado 779749" d="M798.121,233.641h-9.552a1.882,1.882,0,0,1-1.881-1.881v-9.553a1.88,1.88,0,0,1,1.881-1.881h9.552A1.881,1.881,0,0,1,800,222.207v9.553a1.883,1.883,0,0,1-1.882,1.881" transform="translate(-628.768 -176.098)" fill="#6b3db8" fill-rule="evenodd"/>
    <path id="Trazado_779750" data-name="Trazado 779750" d="M799.719,241.72a.908.908,0,1,1,1.349-1.214l.882.981,4.169-4.088a.907.907,0,0,1,1.271,1.294l-4.812,4.717c-.02.021-.042.043-.063.062a.907.907,0,0,1-1.281-.068Z" transform="translate(-638.997 -189.536)" fill="#fff" fill-rule="evenodd"/>
    <path id="Trazado_779751" data-name="Trazado 779751" d="M872.55,254.161H977.883a15,15,0,0,1,14.951,14.952V413.9a15,15,0,0,1-14.951,14.952H872.55A15,15,0,0,1,857.6,413.9V269.113a15,15,0,0,1,14.951-14.952" transform="translate(-685.445 -203.141)" fill="#d8c2fc" fill-rule="evenodd"/>
    <path id="Trazado_779752" data-name="Trazado 779752" d="M889.375,275.212H994.708a10.756,10.756,0,0,1,10.724,10.726V430.726a10.756,10.756,0,0,1-10.724,10.724H889.375a10.756,10.756,0,0,1-10.725-10.724V285.938a10.757,10.757,0,0,1,10.725-10.726" transform="translate(-702.27 -219.966)" fill="#bc97f9" fill-rule="evenodd"/>
    <rect id="Rect치ngulo_374231" data-name="Rect치ngulo 374231" width="104.822" height="149.367" transform="translate(178.839 62.643) rotate(-4.5)" fill="#fff"/>
    <path id="Trazado_779753" data-name="Trazado 779753" d="M958.309,635.3l11.9-.936.936,11.9-11.9.936Zm-1.522-19.329,11.9-.938.936,11.906-11.9.936Zm-1.522-19.33,11.906-.938.938,11.9-11.906.938Zm-1.521-19.331,11.9-.938.937,11.9-11.9.938Zm-1.522-19.33,11.906-.938.937,11.9-11.906.938Z" transform="translate(-761.073 -445.221)" fill="#6b3db8" fill-rule="evenodd"/>
    <path id="Trazado_779754" data-name="Trazado 779754" d="M1057.081,612.577l64.629-5.086a2,2,0,0,1,2.141,1.826v0a2,2,0,0,1-1.83,2.139l-64.626,5.088a1.991,1.991,0,0,1-.313-3.969m.557,7.069a1.99,1.99,0,0,0,.313,3.967l38.815-3.054a1.991,1.991,0,0,0-.31-3.969Zm-2.079-26.4,64.628-5.086a1.991,1.991,0,0,1,.313,3.97l-64.628,5.086a1.991,1.991,0,0,1-.313-3.969m.557,7.071a1.99,1.99,0,1,0,.313,3.967l38.815-3.054a1.991,1.991,0,1,0-.313-3.969Zm-2.079-26.4,64.626-5.086a1.99,1.99,0,1,1,.313,3.968l-64.627,5.088a1.991,1.991,0,0,1-.312-3.969m.557,7.069a1.991,1.991,0,0,0,.313,3.969l38.815-3.056a1.99,1.99,0,1,0-.312-3.968Zm-2.079-26.4,64.628-5.088a1.991,1.991,0,0,1,.313,3.969l-64.629,5.086a2,2,0,0,1-2.139-1.827v0a1.994,1.994,0,0,1,1.827-2.139m.557,7.069a1.99,1.99,0,0,0,.313,3.967l38.817-3.054a1.991,1.991,0,0,0-.313-3.97Zm-2.079-26.4,64.629-5.088a1.99,1.99,0,1,1,.312,3.968l-64.628,5.088a1.99,1.99,0,0,1-.312-3.968m.557,7.067a1.991,1.991,0,0,0,.313,3.969l38.816-3.056a1.99,1.99,0,1,0-.313-3.967Z" transform="translate(-838.553 -423.738)" fill="#6b3db8" fill-rule="evenodd"/>
    <path id="Trazado_779755" data-name="Trazado 779755" d="M1164.251,354.757l39.536-3.113a1.486,1.486,0,1,1,.234,2.962l-39.539,3.114a1.486,1.486,0,0,1-.231-2.964m.416,5.278,20.266-1.595a1.486,1.486,0,0,1,.233,2.962L1164.9,363a1.453,1.453,0,0,1-1.6-1.363,1.536,1.536,0,0,1,1.367-1.6" transform="translate(-929.444 -281.052)" fill="#6b3db8" fill-rule="evenodd"/>
    <path id="Trazado_779756" data-name="Trazado 779756" d="M1169.965,419.653l39.537-3.113a1.486,1.486,0,1,1,.233,2.962l-39.537,3.113a1.486,1.486,0,1,1-.234-2.962m.416,5.278,20.266-1.6a1.487,1.487,0,1,1,.234,2.964l-20.266,1.595a1.451,1.451,0,0,1-1.6-1.365,1.534,1.534,0,0,1,1.365-1.6" transform="translate(-934.011 -332.92)" fill="#6b3db8" fill-rule="evenodd"/>
    <path id="Trazado_779757" data-name="Trazado 779757" d="M1045.705,175.342h18.526v-3.9a7.641,7.641,0,1,1,15.281,0v3.9h18.523a4.632,4.632,0,0,1,4.617,4.617v8.8a4.631,4.631,0,0,1-4.617,4.617h-52.33a4.631,4.631,0,0,1-4.617-4.617v-8.8a4.632,4.632,0,0,1,4.617-4.617m26.167-6.981a3.38,3.38,0,1,0,3.378,3.38,3.381,3.381,0,0,0-3.378-3.38" transform="translate(-832.1 -130.918)" fill="#8f52f5" fill-rule="evenodd"/>
    <path id="Trazado_779758" data-name="Trazado 779758" d="M959.18,547.882a1.137,1.137,0,0,1,1.841-1.335l3.012,4.143,5.537-9.086a1.135,1.135,0,1,1,1.938,1.185l-6.4,10.492a1.118,1.118,0,0,1-.33.375,1.137,1.137,0,0,1-1.586-.254Zm6.085,77.322a1.136,1.136,0,1,1,1.841-1.333l3.012,4.141,5.539-9.084a1.134,1.134,0,1,1,1.936,1.182L971.2,630.6a1.107,1.107,0,0,1-.33.375,1.138,1.138,0,0,1-1.587-.254Zm-1.52-19.33a1.137,1.137,0,0,1,1.84-1.335l3.013,4.143,5.536-9.086a1.135,1.135,0,0,1,1.938,1.183l-6.395,10.494a1.137,1.137,0,0,1-1.918.121Zm-1.522-19.331a1.136,1.136,0,1,1,1.841-1.333l3.012,4.141,5.538-9.086a1.135,1.135,0,1,1,1.937,1.185l-6.395,10.492a1.1,1.1,0,0,1-.331.375,1.138,1.138,0,0,1-1.587-.254ZM960.7,567.211a1.136,1.136,0,0,1,1.84-1.333l3.013,4.141,5.536-9.084a1.135,1.135,0,1,1,1.939,1.183l-6.4,10.494a1.121,1.121,0,0,1-.33.373,1.136,1.136,0,0,1-1.587-.253Z" transform="translate(-766.461 -432.448)" fill="#500c75" fill-rule="evenodd"/>
    <path id="Trazado_779759" data-name="Trazado 779759" d="M1002.767,429.85a17.751,17.751,0,0,1-33.107,8.9l15.359-8.9Z" transform="translate(-775.01 -343.562)" fill="#fff" fill-rule="evenodd"/>
    <path id="Trazado_779760" data-name="Trazado 779760" d="M1063.921,367.193h-17.748l8.2-15.737a17.732,17.732,0,0,1,9.545,15.737" transform="translate(-836.164 -280.905)" fill="#8f52f5" fill-rule="evenodd"/>
    <path id="Trazado_779761" data-name="Trazado 779761" d="M1054.375,343.465l-8.2,15.737V341.458a17.6,17.6,0,0,1,8.2,2.007" transform="translate(-836.164 -272.914)" fill="#d8c2fc" fill-rule="evenodd"/>
    <path id="Trazado_779762" data-name="Trazado 779762" d="M1020.655,341.457V359.2l-6.409-16.552a17.7,17.7,0,0,1,6.409-1.192" transform="translate(-810.646 -272.913)" fill="#6b3db8" fill-rule="evenodd"/>
    <path id="Trazado_779763" data-name="Trazado 779763" d="M975.494,363.947l-15.359,8.9a17.748,17.748,0,0,1,8.95-25.451Z" transform="translate(-765.485 -277.659)" fill="#dee7f5" fill-rule="evenodd"/>
    <path id="Trazado_779764" data-name="Trazado 779764" d="M1001.518,442.813a12.952,12.952,0,0,1-11.216-6.465l11.216-6.5h12.963a12.962,12.962,0,0,1-12.963,12.963" transform="translate(-791.509 -343.562)" fill="#bc97f9" fill-rule="evenodd"/>
    <path id="Trazado_779765" data-name="Trazado 779765" d="M1059.136,384.077h-12.963l5.992-11.5a12.96,12.96,0,0,1,6.971,11.5" transform="translate(-836.164 -297.789)" fill="#500c75" fill-rule="evenodd"/>
    <path id="Trazado_779766" data-name="Trazado 779766" d="M1046.173,378.245V365.284a12.932,12.932,0,0,1,5.992,1.465Z" transform="translate(-836.164 -291.957)" fill="#8f52f5" fill-rule="evenodd"/>
    <path id="Trazado_779767" data-name="Trazado 779767" d="M1027.538,378.245h0l-4.68-12.087a12.88,12.88,0,0,1,4.68-.874Z" transform="translate(-817.529 -291.957)" fill="#d8c2fc" fill-rule="evenodd"/>
    <path id="Trazado_779768" data-name="Trazado 779768" d="M983.36,388.222a12.968,12.968,0,0,1,6.535-18.586l4.68,12.087Z" transform="translate(-784.566 -295.435)" fill="#6b3db8" fill-rule="evenodd"/>
    <path id="Trazado_779769" data-name="Trazado 779769" d="M384.355,854.4c.105-.926-.234-2.175-.1-3.676,1.016-11.688,3.212-38.092,3.212-38.092s2.486-20.915,2.678-34.155a50.761,50.761,0,0,1-7.891-1.35c-5.636-1.439-9.414-3.738-14.785-6.339-2.931,10.8-8.362,30.63-8.362,30.63s.012,4.226-5.609,4.226c-4.933,0-25.426,17.151-29.482,19.7.524,1.237,1.85,2.463,2.452,3.687,6.514-5.325,40.066-17.576,40.066-17.576l9.1-23.079s2.735,28.291.53,30.5,3.913,33.9,3.913,35.518c0,.2,2.578-.037,4.277,0" transform="translate(-258.971 -616.058)" fill="#f4ae7c" fill-rule="evenodd"/>
    <path id="Trazado_779770" data-name="Trazado 779770" d="M576.621,780.572s1.962,31.278.98,33.117-1.715,4.9-.98,12.626,2.942,21.228,2.942,21.228l7.237.237,2.942-36.917,2.517-34.23.061-.725-9.814-7.363Z" transform="translate(-460.631 -614.267)" fill="#0f3970" fill-rule="evenodd"/>
    <path id="Trazado_779771" data-name="Trazado 779771" d="M345.613,800.124l3.189,5.764s28.895-9.515,34.957-13.978c2.332-1.712,12.024-25.141,12.024-25.141l7.644-9.077.08-5.037-16.416-7.214s-5.963,6.713-7.132,9.427c-2.921,6.762-4.906,29.065-4.906,29.065s.242-.863-5.274.613-24.166,15.577-24.166,15.577" transform="translate(-276.235 -595.802)" fill="#003d81" fill-rule="evenodd"/>
    <path id="Trazado_779772" data-name="Trazado 779772" d="M309.746,1032.312s-1.931-1.25-2.159-1.962.32-2.525-.48-2.938-5.9,1.262-6.665,1.838a2.542,2.542,0,0,0-1.072,2.563c.234.725,7.025,13.027,8.463,14.59s3.221-1.888,2.156-4.039.172-6.676-.243-10.052" transform="translate(-239.22 -821.115)" fill="#142d4d" fill-rule="evenodd"/>
    <path id="Trazado_779773" data-name="Trazado 779773" d="M597.295,1169.585s-2.039,1.051-2.775.9-2.035-1.525-2.789-1.037-1.813,5.764-1.693,6.7a2.524,2.524,0,0,0,1.7,2.2c.751.162,14.8.339,16.867-.137s-.05-3.738-2.442-3.875-5.717-3.452-8.864-4.751" transform="translate(-471.586 -934.609)" fill="#142d4d" fill-rule="evenodd"/>
    <path id="Trazado_779774" data-name="Trazado 779774" d="M661.313,424.456c-4.872-2.572-8.87-3.662-11.438-1.821a46.932,46.932,0,0,0-.825,6.35,1.6,1.6,0,0,1-1.655.4,6.971,6.971,0,0,0-.882-3.227q-4.268.277-.508,5.572c-.1.859-.148,1.58-.16,2.16-2.766-1.8-4.286-5.44-4.206-6.741-.935-8.252,4.084-9.72,6.583-10.007,3.489-6.527,11.2,3.267,17.439,1.817.964,3.485-2.776,6.013-4.348,5.5" transform="translate(-512.745 -331.592)" fill="#0f3970" fill-rule="evenodd"/>
    <path id="Trazado_779775" data-name="Trazado 779775" d="M634.854,463.086a4.8,4.8,0,0,0,2.653.516,11.726,11.726,0,0,0,3-2.516c.012-.584.064-1.309.161-2.171q-3.778-5.319.511-5.6a7.01,7.01,0,0,1,.885,3.243,1.606,1.606,0,0,0,1.663-.4,47.43,47.43,0,0,1,.831-6.38c2.58-1.849,6.6-.755,11.492,1.828q-.408,2.189-1.035,4.57c.6,1.177-.677,4.239-2.849,7.506q-.51,3.288-5.012,1.928a8.4,8.4,0,0,0-.565,1.734,1.339,1.339,0,0,0,.533.695q-1.73,5.1-12.272-4.954" transform="translate(-507.413 -358.752)" fill="#f4ae7c" fill-rule="evenodd"/>
    <path id="Trazado_779776" data-name="Trazado 779776" d="M553.509,546.929c-10.025,10.048-15.324,16.006-24.207,18.994a12.82,12.82,0,0,1-3.847-7.318q-3.3,7.421-6.925,14.633-7.529,2.443-22.133-1.39l-1.16-4.51c-.712-.51-2.881-.461-4.335.463-4.626-8.7-6.746-16.742-6.915-23.844q9.726-18.17,18.62-27.171,3.39-2.144,12.1-1.725,9.775,10.8,11.875,5.845a80.983,80.983,0,0,1,7.587,8.513q3.211,6.011-.921,24.167a102.926,102.926,0,0,1,18.338-10.02,6.556,6.556,0,0,1,1.928,3.359m-58.36,16.279q8.882-10.016,9.275-30.517-5.744,7.567-11.667,14.731,1.977,2.364,2.392,15.786" transform="translate(-386.831 -411.615)" fill="#ffb206" fill-rule="evenodd"/>
    <path id="Trazado_779777" data-name="Trazado 779777" d="M690.565,656.262a128.176,128.176,0,0,0,6.6-19.083q-3.341,16.784-2.233,23.284c1.444.61,3.482.437,6.42-.2a30.153,30.153,0,0,1-6.937,3.32,12.815,12.815,0,0,1-3.847-7.318" transform="translate(-551.941 -509.272)" fill="#d28c65" fill-rule="evenodd"/>
    <path id="Trazado_779778" data-name="Trazado 779778" d="M539.681,637.8a32.9,32.9,0,0,0-.088-4.131q8.882-10.016,9.275-30.517,3.764,20.374-8.928,35.657Z" transform="translate(-431.275 -482.071)" fill="#d28c65" fill-rule="evenodd"/>
    <path id="Trazado_779779" data-name="Trazado 779779" d="M680.621,522.521a9.268,9.268,0,0,0,3.116,1.968,10.994,10.994,0,0,0-.493,1.4,5.679,5.679,0,0,1-2.623-3.363" transform="translate(-543.993 -417.63)" fill="#ed7d5b" fill-rule="evenodd"/>
    <path id="Trazado_779780" data-name="Trazado 779780" d="M969.566,344.48a33.852,33.852,0,0,0-62.1,26.419l-.231.12a1.928,1.928,0,0,0-.814,2.593l3.18,6.084a1.927,1.927,0,0,0,2.595.811l.23-.119a33.853,33.853,0,0,0,57.145-35.91m-4.188,2.188a29.125,29.125,0,1,1-39.3-12.321,29.125,29.125,0,0,1,39.3,12.321" transform="translate(-723.898 -260.8)" fill="#9d7558" fill-rule="evenodd"/>
    <path id="Trazado_779781" data-name="Trazado 779781" d="M848.28,561.985l-15.308,8,3.179,6.082,15.309-8Z" transform="translate(-665.761 -449.172)" fill="#d1a383" fill-rule="evenodd"/>
    <path id="Trazado_779782" data-name="Trazado 779782" d="M528.345,585.172l-3.18-6.082a1.927,1.927,0,0,0-2.594-.814l-13.96,7.3-.022.009-30.151,15.759,0,0-8.351,4.365-30.157,15.761a1.93,1.93,0,0,0-.814,2.595l3.18,6.082a1.927,1.927,0,0,0,2.594.813l13.964-7.3.018-.009,30.157-15.763,8.35-4.365h0l30.154-15.761a1.928,1.928,0,0,0,.813-2.595" transform="translate(-350.791 -462.019)" fill="#9d7558" fill-rule="evenodd"/>
    <path id="Trazado_779783" data-name="Trazado 779783" d="M516.81,766.021h0a15.806,15.806,0,0,0-1.01-5.176c.926-1.454,2.872-2.416,3.731-2.256l2.3,2.789a28.722,28.722,0,0,1,5.682,3.951,3.59,3.59,0,0,1-3.525-.529q1.282,2.234,1.127,2.8-4.879,3.878-6.665,2.817-1.764-2.853-1.636-4.4" transform="translate(-412.257 -606.296)" fill="#f4ae7c" fill-rule="evenodd"/>
    <path id="Trazado_779784" data-name="Trazado 779784" d="M486.6,687.131a58.692,58.692,0,0,0,6.391,18.2c1.107-.755,3.841-2.542,4.683-2.1-.518-1.2-.318-1.024-.437-2.5q-.3-9.759-1.428-13.671a81.563,81.563,0,0,1-9.209.066" transform="translate(-388.918 -549.143)" fill="#d28c65" fill-rule="evenodd"/>
    <path id="Trazado_779785" data-name="Trazado 779785" d="M822.854,634.719c.323-.307,1.557-1.554,2.829-2.751,1.831-.081,4.38-1.766,4.807-3.222.26-1.966,1.021-2.7-.49-3.911-.582-.051-1.889.7-3.2,2.231.078,1.39-1.4,1.827-2.339,2.322-1.2.808-.35.187-1.72,1.075-.606.506-1.448.8-1.763,1.083a6.128,6.128,0,0,1,1.871,3.173" transform="translate(-656.179 -499.403)" fill="#f4ae7c" fill-rule="evenodd"/>
    <path id="Trazado_779786" data-name="Trazado 779786" d="M597.573,556.157A80.973,80.973,0,0,0,577.883,550a51.316,51.316,0,0,0-.8-6.638q18.765,4.593,25.73,10.054Zm-21.541,8.773q1.489.376,3.089.872l-.337.175-3.887,2.032q.633-1.52,1.135-3.079m7.768,10.508,6.565-3.429a27.719,27.719,0,0,1,5.163,2.953q-1.154,2.471-2.345,4.92a51.989,51.989,0,0,0-9.383-4.444m3.336-13.825,6.1-3.188a79.038,79.038,0,0,0-15.325-4.169,41.023,41.023,0,0,1-.8,6.583q4.089,1.028,7.484,2.105ZM602.93,538.2a54.683,54.683,0,0,0-17.829-7.325,20.1,20.1,0,0,1,4.745-2.531q7.071,7.025,9.124,3.749a29.869,29.869,0,0,1,3.959,6.107m-21.21-4.293a28.611,28.611,0,0,0-3.406,5.875c13.509,3.365,20.41,5.805,26.289,10.861a26.686,26.686,0,0,0,.167-7.257c-6.456-4.57-14.45-7.47-23.05-9.479" transform="translate(-459.492 -422.286)" fill="#e89e35" fill-rule="evenodd"/>
    <path id="Trazado_779787" data-name="Trazado 779787" d="M697.891,463.439c-1.393-.834-4.518-.081-3.735.369.255.147,1.179-.06,1.5-.043.645.036,1.76.5,2.211.218a.34.34,0,0,0,.023-.544" transform="translate(-554.711 -370.109)" fill="#0f3970" fill-rule="evenodd"/>
    <path id="Trazado_779788" data-name="Trazado 779788" d="M723.792,469.312c.191.493,1.361.791,1.9,1.154.268.179.883.9,1.178.932.893.113-1.149-2.384-2.763-2.538a.334.334,0,0,0-.31.452" transform="translate(-578.481 -374.74)" fill="#0f3970" fill-rule="evenodd"/>
    <path id="Trazado_779789" data-name="Trazado 779789" d="M699.684,474.207c-.435-.145-.22-1.919.837-1.563.565.188-.123,1.8-.837,1.563" transform="translate(-559.06 -377.728)" fill="#0f3970" fill-rule="evenodd"/>
    <path id="Trazado_779790" data-name="Trazado 779790" d="M726.041,482.712c.438.147,1.333-1.4.276-1.749-.564-.19-.99,1.51-.276,1.749" transform="translate(-579.995 -384.403)" fill="#0f3970" fill-rule="evenodd"/>
    <path id="Trazado_779791" data-name="Trazado 779791" d="M714,483.816c-.054-.192.277-.22.482-.275.753-.194.8.175.34-2.992-.089-.621-.206-.953.017-.977.207-.021.161.228.263.932.5,3.448.491,3.02-.927,3.41a.144.144,0,0,1-.174-.1" transform="translate(-570.668 -383.301)" fill="#ed7d5b" fill-rule="evenodd"/>
    <path id="Trazado_779792" data-name="Trazado 779792" d="M699.732,508.942c-.07-.384.364-.139,3.316.512.882.2-2.741,2.676-3.316-.512" transform="translate(-559.262 -406.631)" fill="#ed7d5b" fill-rule="evenodd"/>
    <rect id="Rect치ngulo_374233" data-name="Rect치ngulo 374233" width="400" height="9" transform="translate(0 245.889)" fill="#6b3db8"/>
  </g>
</svg>
