<svg xmlns="http://www.w3.org/2000/svg" xmlns:xlink="http://www.w3.org/1999/xlink" width="838" height="473" viewBox="0 0 838 473">
  <defs>
    <clipPath id="clip-path">
      <rect id="Rectángulo_374031" data-name="Rectángulo 374031" width="719.949" height="329.779" fill="none"/>
    </clipPath>
    <filter id="Elipse_180" x="192" y="370" width="63" height="62" filterUnits="userSpaceOnUse">
      <feOffset dy="3" input="SourceAlpha"/>
      <feGaussianBlur stdDeviation="3" result="blur"/>
      <feFlood flood-opacity="0.161"/>
      <feComposite operator="in" in2="blur"/>
      <feComposite in="SourceGraphic"/>
    </filter>
    <filter id="Elipse_180-2" x="775" y="271" width="63" height="63" filterUnits="userSpaceOnUse">
      <feOffset dy="3" input="SourceAlpha"/>
      <feGaussianBlur stdDeviation="3" result="blur-2"/>
      <feFlood flood-opacity="0.161"/>
      <feComposite operator="in" in2="blur-2"/>
      <feComposite in="SourceGraphic"/>
    </filter>
    <filter id="Elipse_180-3" x="0" y="212" width="63" height="62" filterUnits="userSpaceOnUse">
      <feOffset dy="3" input="SourceAlpha"/>
      <feGaussianBlur stdDeviation="3" result="blur-3"/>
      <feFlood flood-opacity="0.161"/>
      <feComposite operator="in" in2="blur-3"/>
      <feComposite in="SourceGraphic"/>
    </filter>
    <filter id="Elipse_180-4" x="46.001" y="279" width="62" height="62" filterUnits="userSpaceOnUse">
      <feOffset dy="3" input="SourceAlpha"/>
      <feGaussianBlur stdDeviation="3" result="blur-4"/>
      <feFlood flood-opacity="0.161"/>
      <feComposite operator="in" in2="blur-4"/>
      <feComposite in="SourceGraphic"/>
    </filter>
    <filter id="Elipse_180-5" x="114" y="334" width="64" height="64" filterUnits="userSpaceOnUse">
      <feOffset dy="3" input="SourceAlpha"/>
      <feGaussianBlur stdDeviation="3" result="blur-5"/>
      <feFlood flood-opacity="0.161"/>
      <feComposite operator="in" in2="blur-5"/>
      <feComposite in="SourceGraphic"/>
    </filter>
    <filter id="Elipse_180-6" x="714.999" y="317" width="63" height="64" filterUnits="userSpaceOnUse">
      <feOffset dy="3" input="SourceAlpha"/>
      <feGaussianBlur stdDeviation="3" result="blur-6"/>
      <feFlood flood-opacity="0.161"/>
      <feComposite operator="in" in2="blur-6"/>
      <feComposite in="SourceGraphic"/>
    </filter>
    <filter id="Elipse_180-7" x="496.999" y="403" width="64" height="64" filterUnits="userSpaceOnUse">
      <feOffset dy="3" input="SourceAlpha"/>
      <feGaussianBlur stdDeviation="3" result="blur-7"/>
      <feFlood flood-opacity="0.161"/>
      <feComposite operator="in" in2="blur-7"/>
      <feComposite in="SourceGraphic"/>
    </filter>
    <filter id="Elipse_180-8" x="414.999" y="409" width="64" height="64" filterUnits="userSpaceOnUse">
      <feOffset dy="3" input="SourceAlpha"/>
      <feGaussianBlur stdDeviation="3" result="blur-8"/>
      <feFlood flood-opacity="0.161"/>
      <feComposite operator="in" in2="blur-8"/>
      <feComposite in="SourceGraphic"/>
    </filter>
    <filter id="Elipse_180-9" x="332.999" y="403" width="64" height="64" filterUnits="userSpaceOnUse">
      <feOffset dy="3" input="SourceAlpha"/>
      <feGaussianBlur stdDeviation="3" result="blur-9"/>
      <feFlood flood-opacity="0.161"/>
      <feComposite operator="in" in2="blur-9"/>
      <feComposite in="SourceGraphic"/>
    </filter>
    <clipPath id="clip-path-2">
      <rect id="Rectángulo_374039" data-name="Rectángulo 374039" width="149.279" height="118.388" fill="none"/>
    </clipPath>
    <clipPath id="clip-path-3">
      <rect id="Rectángulo_374043" data-name="Rectángulo 374043" width="218.555" height="24.638" fill="none"/>
    </clipPath>
    <clipPath id="clip-path-4">
      <rect id="Rectángulo_374045" data-name="Rectángulo 374045" width="143.915" height="116.157" fill="none"/>
    </clipPath>
  </defs>
  <g id="Grupo_1065634" data-name="Grupo 1065634" transform="translate(-381 -1015)">
    <g id="Grupo_1064870" data-name="Grupo 1064870" transform="translate(467.232 1053.596)">
      <g id="Grupo_1064869" data-name="Grupo 1064869" transform="translate(0 0)" clip-path="url(#clip-path)">
        <path id="Trazado_778659" data-name="Trazado 778659" d="M340.027,77.145A187.254,187.254,0,0,1,257.075,6.028" transform="translate(-55.479 -1.341)" fill="none" stroke="#500c75" stroke-miterlimit="10" stroke-width="3"/>
        <path id="Trazado_778660" data-name="Trazado 778660" d="M514.73,96.918a187.642,187.642,0,0,1-76.449,16.156,187.677,187.677,0,0,1-75.427-15.7" transform="translate(-78.307 -21.566)" fill="none" stroke="#8f52f5" stroke-miterlimit="10" stroke-width="6"/>
        <path id="Trazado_778661" data-name="Trazado 778661" d="M636.983,8.965a187.272,187.272,0,0,1-80.457,68.382" transform="translate(-120.102 -1.995)" fill="none" stroke="#500c75" stroke-miterlimit="10" stroke-width="3"/>
        <path id="Trazado_778662" data-name="Trazado 778662" d="M664.014,7.108A6.665,6.665,0,1,1,657.349.5a6.636,6.636,0,0,1,6.665,6.608" transform="translate(-140.423 -0.111)" fill="#fff"/>
        <path id="Trazado_778668" data-name="Trazado 778668" d="M367.926,94.991a6.82,6.82,0,1,1-6.82-6.762,6.791,6.791,0,0,1,6.82,6.762" transform="translate(-76.458 -19.632)" fill="#fff"/>
        <path id="Trazado_779296" data-name="Trazado 779296" d="M367.926,94.991a6.82,6.82,0,1,1-6.82-6.762,6.791,6.791,0,0,1,6.82,6.762" transform="translate(-158.458 -86.841)" fill="#fff"/>
        <path id="Trazado_779291" data-name="Trazado 779291" d="M366.605,94.336a6.16,6.16,0,1,1-6.16-6.107,6.134,6.134,0,0,1,6.16,6.107" transform="translate(76.069 -19.152)" fill="#fff"/>
        <path id="Trazado_779293" data-name="Trazado 779293" d="M367.926,94.991a6.82,6.82,0,1,1-6.82-6.762,6.791,6.791,0,0,1,6.82,6.762" transform="translate(154.298 -86.451)" fill="#fff"/>
        <path id="Trazado_778680" data-name="Trazado 778680" d="M6.752,0a6.817,6.817,0,0,1,.026,13.634A6.817,6.817,0,0,1,6.752,0Z" transform="translate(276.46 80.376) rotate(-76.717)" fill="none" stroke="#ffb206" stroke-width="1.624"/>
        <path id="Trazado_779295" data-name="Trazado 779295" d="M6.752,0a6.817,6.817,0,0,1,.026,13.634A6.817,6.817,0,0,1,6.752,0Z" transform="translate(194.46 13.168) rotate(-76.717)" fill="none" stroke="#ffb206" stroke-width="1.624"/>
        <path id="Trazado_779292" data-name="Trazado 779292" d="M6.752,0a6.817,6.817,0,0,1,.026,13.634A6.817,6.817,0,0,1,6.752,0Z" transform="translate(428.326 80.202) rotate(-76.717)" fill="none" stroke="#ffb206" stroke-width="1.624"/>
        <path id="Trazado_779294" data-name="Trazado 779294" d="M6.752,0a6.817,6.817,0,0,1,.026,13.634A6.817,6.817,0,0,1,6.752,0Z" transform="translate(507.215 13.557) rotate(-76.717)" fill="none" stroke="#ffb206" stroke-width="1.624"/>
        <path id="Trazado_778669" data-name="Trazado 778669" d="M422.275,167.743a250.442,250.442,0,0,1-54.026-5.869,21.162,21.162,0,0,0-24.39,13.379l-53.9,147.384a20.95,20.95,0,0,0,14.229,27.411,451.225,451.225,0,0,0,118.085,15.641,451.238,451.238,0,0,0,118.083-15.64,20.951,20.951,0,0,0,14.229-27.412l-53.9-147.383a21.163,21.163,0,0,0-24.391-13.38,250.412,250.412,0,0,1-54.023,5.869" transform="translate(-62.3 -35.909)" fill="#500c75"/>
        <path id="Trazado_778670" data-name="Trazado 778670" d="M142.74,50.793,9.748,135.508a20.921,20.921,0,0,0-5.384,30.466A448.447,448.447,0,0,0,173.8,300.227a21.277,21.277,0,0,0,28.786-11.946l53.9-147.381a21,21,0,0,0-10.312-25.888A248.455,248.455,0,0,1,170.5,55.046a21.392,21.392,0,0,0-27.762-4.254" transform="translate(0 -10.563)" fill="#8f52f5"/>
        <path id="Trazado_778671" data-name="Trazado 778671" d="M590.654,140.9l53.9,147.382a21.278,21.278,0,0,0,28.786,11.946A448.458,448.458,0,0,0,842.779,165.974a20.923,20.923,0,0,0-5.384-30.466L704.4,50.793a21.392,21.392,0,0,0-27.761,4.254,248.452,248.452,0,0,1-75.677,59.966A21,21,0,0,0,590.654,140.9" transform="translate(-127.194 -10.563)" fill="#8f52f5"/>
        <path id="Trazado_778672" data-name="Trazado 778672" d="M422.275,160.614a250.44,250.44,0,0,1-54.026-5.869,21.162,21.162,0,0,0-24.39,13.379l-53.9,147.384a20.95,20.95,0,0,0,14.229,27.411,451.222,451.222,0,0,0,118.085,15.641,451.236,451.236,0,0,0,118.083-15.64,20.951,20.951,0,0,0,14.229-27.412l-53.9-147.383a21.163,21.163,0,0,0-24.391-13.38,250.41,250.41,0,0,1-54.023,5.869" transform="translate(-62.3 -34.323)" fill="#8f52f5"/>
        <path id="Trazado_778673" data-name="Trazado 778673" d="M142.74,43.663,9.748,128.378a20.921,20.921,0,0,0-5.384,30.466A448.447,448.447,0,0,0,173.8,293.1a21.277,21.277,0,0,0,28.786-11.946l53.9-147.381a21,21,0,0,0-10.312-25.888A248.455,248.455,0,0,1,170.5,47.916a21.392,21.392,0,0,0-27.762-4.254" transform="translate(0 -8.977)" fill="#500c75"/>
        <path id="Trazado_778674" data-name="Trazado 778674" d="M590.654,133.771l53.9,147.382A21.278,21.278,0,0,0,673.338,293.1,448.459,448.459,0,0,0,842.779,158.845a20.923,20.923,0,0,0-5.384-30.466L704.4,43.664a21.392,21.392,0,0,0-27.761,4.254,248.451,248.451,0,0,1-75.677,59.966,21,21,0,0,0-10.312,25.888" transform="translate(-127.194 -8.977)" fill="#500c75"/>
        <path id="Trazado_778675" data-name="Trazado 778675" d="M204.868,143.455a35.894,35.894,0,0,0-50.4,0,35.158,35.158,0,0,0-2.348,47.4l-3.676,3.645-.551-.547a3.882,3.882,0,0,0-5.456,0l-19.468,19.3a3.8,3.8,0,0,0,0,5.41l2.952,2.926,2.951,2.926a3.881,3.881,0,0,0,5.456,0l19.468-19.3a3.8,3.8,0,0,0,0-5.409l-.411-.408,3.676-3.644a35.912,35.912,0,0,0,47.808-2.327,35.161,35.161,0,0,0,0-49.97m-5.88,44.14a27.52,27.52,0,0,1-38.641,0,26.956,26.956,0,0,1,0-38.31,27.523,27.523,0,0,1,38.641,0,26.955,26.955,0,0,1,0,38.31" transform="translate(-26.294 -29.622)" fill="#f6f6f6"/>
        <path id="Trazado_778676" data-name="Trazado 778676" d="M446.841,271.62a21.925,21.925,0,0,0,20.706-14.6,21.511,21.511,0,0,0,1.241-7.159,21.947,21.947,0,0,0-43.892,0,21.512,21.512,0,0,0,1.313,7.356,21.925,21.925,0,0,0,20.633,14.4m7.328,2.615-4.95,4.677,6.437,28.323-8.815,8.667-8.815-8.667,6.437-28.323-4.951-4.677a44.06,44.06,0,0,0-36.993,43.335h88.644a44.061,44.061,0,0,0-36.994-43.335" transform="translate(-86.867 -50.757)" fill="#fff"/>
        <path id="Trazado_778677" data-name="Trazado 778677" d="M690.853,229.908h90.006V171.853H690.853Zm71.065-29.614a1.7,1.7,0,0,1-1.7-1.688v-8.338l-20.643,20.467a1.713,1.713,0,0,1-2.407,0l-7.273-7.21-18.135,17.981a1.711,1.711,0,0,1-2.407,0,1.676,1.676,0,0,1,0-2.386l19.338-19.174a1.711,1.711,0,0,1,2.407,0l7.273,7.209L758.092,187.6h-8.9a1.688,1.688,0,1,1,0-3.376h12.729a1.7,1.7,0,0,1,1.7,1.688v12.693a1.7,1.7,0,0,1-1.7,1.688" transform="translate(-149.091 -38.24)" fill="#fff"/>
        <path id="Trazado_778678" data-name="Trazado 778678" d="M690.853,251.819v1.554h43.3v2.22a7.775,7.775,0,0,1-7.807,7.741H708.46v3.376h54.791v-3.376H745.367a7.775,7.775,0,0,1-7.808-7.741v-2.22h43.3v-1.554Z" transform="translate(-149.091 -55.688)" fill="#fff"/>
        <path id="Trazado_778679" data-name="Trazado 778679" d="M783.991,168.177V155.332H685.107v12.845l4.505-2.975h90.006Z" transform="translate(-147.851 -34.564)" fill="#fff"/>
      </g>
    </g>
    <g id="Grupo_1064901" data-name="Grupo 1064901" transform="translate(582.346 1390.654)">
      <g transform="matrix(1, 0, 0, 1, -201.35, -375.65)" filter="url(#Elipse_180)">
        <ellipse id="Elipse_180-10" data-name="Elipse 180" cx="22.5" cy="22" rx="22.5" ry="22" transform="translate(201 376)" fill="#fff"/>
      </g>
      <text id="_" data-name="+" transform="translate(22.654 31.346)" fill="#ffb206" font-size="24" font-family="Roboto-Black, Roboto" font-weight="800"><tspan x="-6.41" y="0">+</tspan></text>
    </g>
    <g id="Grupo_1065266" data-name="Grupo 1065266" transform="translate(1165.457 1292.457)">
      <g transform="matrix(1, 0, 0, 1, -784.46, -277.46)" filter="url(#Elipse_180-2)">
        <circle id="Elipse_180-11" data-name="Elipse 180" cx="22.5" cy="22.5" r="22.5" transform="translate(784 277)" fill="#fff"/>
      </g>
      <text id="_2" data-name="+" transform="translate(22.543 31.543)" fill="#ffb206" font-size="24" font-family="Roboto-Black, Roboto" font-weight="800"><tspan x="-6.41" y="0">+</tspan></text>
    </g>
    <g id="Grupo_1064898" data-name="Grupo 1064898" transform="translate(390 1232.729)">
      <g transform="matrix(1, 0, 0, 1, -9, -217.73)" filter="url(#Elipse_180-3)">
        <ellipse id="Elipse_180-12" data-name="Elipse 180" cx="22.5" cy="22" rx="22.5" ry="22" transform="translate(9 218)" fill="#fff"/>
      </g>
      <text id="_3" data-name="+" transform="translate(22 31.271)" fill="#ffb206" font-size="24" font-family="Roboto-Black, Roboto" font-weight="800"><tspan x="-6.41" y="0">+</tspan></text>
    </g>
    <g id="Grupo_1064899" data-name="Grupo 1064899" transform="translate(435.556 1299.543)">
      <g transform="matrix(1, 0, 0, 1, -54.56, -284.54)" filter="url(#Elipse_180-4)">
        <circle id="Elipse_180-13" data-name="Elipse 180" cx="22" cy="22" r="22" transform="translate(55 285)" fill="#fff"/>
      </g>
      <text id="_4" data-name="+" transform="translate(22.445 31.457)" fill="#ffb206" font-size="24" font-family="Roboto-Black, Roboto" font-weight="800"><tspan x="-6.41" y="0">+</tspan></text>
    </g>
    <g id="Grupo_1064900" data-name="Grupo 1064900" transform="translate(504.395 1355.223)">
      <g transform="matrix(1, 0, 0, 1, -123.4, -340.22)" filter="url(#Elipse_180-5)">
        <circle id="Elipse_180-14" data-name="Elipse 180" cx="23" cy="23" r="23" transform="translate(123 340)" fill="#fff"/>
      </g>
      <text id="_5" data-name="+" transform="translate(23.605 31.778)" fill="#ffb206" font-size="24" font-family="Roboto-Black, Roboto" font-weight="800"><tspan x="-6.41" y="0">+</tspan></text>
    </g>
    <g id="Grupo_1065265" data-name="Grupo 1065265" transform="translate(1104.716 1338.013)">
      <g transform="matrix(1, 0, 0, 1, -723.72, -323.01)" filter="url(#Elipse_180-6)">
        <ellipse id="Elipse_180-15" data-name="Elipse 180" cx="22.5" cy="23" rx="22.5" ry="23" transform="translate(724 323)" fill="#fff"/>
      </g>
      <text id="_6" data-name="+" transform="translate(23.283 31.987)" fill="#ffb206" font-size="24" font-family="Roboto-Black, Roboto" font-weight="800"><tspan x="-6.41" y="0">+</tspan></text>
    </g>
    <g id="Grupo_1065264" data-name="Grupo 1065264" transform="translate(887.062 1424.062)">
      <g transform="matrix(1, 0, 0, 1, -506.06, -409.06)" filter="url(#Elipse_180-7)">
        <circle id="Elipse_180-16" data-name="Elipse 180" cx="23" cy="23" r="23" transform="translate(506 409)" fill="#fff"/>
      </g>
      <text id="_7" data-name="+" transform="translate(22.938 31.938)" fill="#8f52f5" font-size="24" font-family="Roboto-Black, Roboto" font-weight="800"><tspan x="-6.41" y="0">+</tspan></text>
    </g>
    <g id="Grupo_1065263" data-name="Grupo 1065263" transform="translate(805.062 1430.136)">
      <g transform="matrix(1, 0, 0, 1, -424.06, -415.14)" filter="url(#Elipse_180-8)">
        <circle id="Elipse_180-17" data-name="Elipse 180" cx="23" cy="23" r="23" transform="translate(424 415)" fill="#fff"/>
      </g>
      <text id="_8" data-name="+" transform="translate(22.938 31.864)" fill="#8f52f5" font-size="24" font-family="Roboto-Black, Roboto" font-weight="800"><tspan x="-6.41" y="0">+</tspan></text>
    </g>
    <g id="Grupo_1065262" data-name="Grupo 1065262" transform="translate(723.062 1424.062)">
      <g transform="matrix(1, 0, 0, 1, -342.06, -409.06)" filter="url(#Elipse_180-9)">
        <circle id="Elipse_180-18" data-name="Elipse 180" cx="23" cy="23" r="23" transform="translate(342 409)" fill="#fff"/>
      </g>
      <text id="_9" data-name="+" transform="translate(22.938 31.938)" fill="#8f52f5" font-size="24" font-family="Roboto-Black, Roboto" font-weight="800"><tspan x="-6.41" y="0">+</tspan></text>
    </g>
    <path id="Trazado_779854" data-name="Trazado 779854" d="M35.9,20.938H27.055V30H21.57V7.25H36.789v4.234H27.055v5.234H35.9ZM47.82,30a5.945,5.945,0,0,1-.5-1.516,4.9,4.9,0,0,1-4.062,1.828A6,6,0,0,1,39.2,28.867a4.6,4.6,0,0,1-1.672-3.633,4.728,4.728,0,0,1,2.031-4.156,10.348,10.348,0,0,1,5.906-1.406h1.625v-.9q0-2.339-2.016-2.339A1.648,1.648,0,0,0,43.2,18.29H37.93a4.72,4.72,0,0,1,2.086-3.98,8.766,8.766,0,0,1,5.32-1.529,7.686,7.686,0,0,1,5.109,1.578,5.487,5.487,0,0,1,1.922,4.328v7.484a7.665,7.665,0,0,0,.719,3.563V30Zm-3.3-3.437a2.937,2.937,0,0,0,1.633-.422,2.644,2.644,0,0,0,.93-.953v-2.7H45.555q-2.75,0-2.75,2.469a1.507,1.507,0,0,0,.484,1.164A1.753,1.753,0,0,0,44.523,26.563ZM64.133,25.25a1.216,1.216,0,0,0-.7-1.078,10.7,10.7,0,0,0-2.672-.844,12.184,12.184,0,0,1-3.25-1.148,5.444,5.444,0,0,1-1.953-1.727,4.123,4.123,0,0,1-.672-2.328A4.673,4.673,0,0,1,56.8,14.289a7.917,7.917,0,0,1,5.031-1.508A8.771,8.771,0,0,1,67.211,14.3a4.74,4.74,0,0,1,2.031,3.984H63.961q0-2.031-2.141-2.031a2.122,2.122,0,0,0-1.391.461,1.427,1.427,0,0,0-.562,1.148A1.31,1.31,0,0,0,60.555,19a6.5,6.5,0,0,0,2.2.719,18.971,18.971,0,0,1,2.648.672q3.812,1.313,3.813,4.7a4.428,4.428,0,0,1-2.055,3.766,9.01,9.01,0,0,1-5.32,1.453,9.2,9.2,0,0,1-3.875-.781A6.48,6.48,0,0,1,55.3,27.406a4.812,4.812,0,0,1-.953-2.828h4.922a2.035,2.035,0,0,0,.781,1.711,3.214,3.214,0,0,0,1.922.539,2.528,2.528,0,0,0,1.617-.437A1.4,1.4,0,0,0,64.133,25.25Zm15.719,5.063a8.691,8.691,0,0,1-6.3-2.32,8.013,8.013,0,0,1-2.406-6.039v-.437a10.383,10.383,0,0,1,.961-4.578,7.031,7.031,0,0,1,2.8-3.07,8.467,8.467,0,0,1,4.375-1.086,7.318,7.318,0,0,1,5.625,2.211,8.688,8.688,0,0,1,2.063,6.164V23.2H76.508a3.8,3.8,0,0,0,1.234,2.234,3.673,3.673,0,0,0,2.469.813,4.732,4.732,0,0,0,3.906-1.75l2.406,2.844a6.726,6.726,0,0,1-2.789,2.164A9.425,9.425,0,0,1,79.852,30.313Zm-.594-13.469q-2.312,0-2.75,3.063H81.82V19.5a2.608,2.608,0,0,0-.641-1.961A2.549,2.549,0,0,0,79.258,16.844ZM97.945,25.25a1.216,1.216,0,0,0-.7-1.078,10.7,10.7,0,0,0-2.672-.844,12.184,12.184,0,0,1-3.25-1.148,5.444,5.444,0,0,1-1.953-1.727,4.123,4.123,0,0,1-.672-2.328,4.673,4.673,0,0,1,1.922-3.836,7.917,7.917,0,0,1,5.031-1.508,8.771,8.771,0,0,1,5.375,1.516,4.74,4.74,0,0,1,2.031,3.984H97.773q0-2.031-2.141-2.031a2.122,2.122,0,0,0-1.391.461,1.427,1.427,0,0,0-.562,1.148A1.31,1.31,0,0,0,94.367,19a6.5,6.5,0,0,0,2.2.719,18.971,18.971,0,0,1,2.648.672q3.812,1.313,3.813,4.7a4.428,4.428,0,0,1-2.055,3.766,9.01,9.01,0,0,1-5.32,1.453,9.2,9.2,0,0,1-3.875-.781,6.48,6.48,0,0,1-2.656-2.125,4.812,4.812,0,0,1-.953-2.828h4.922a2.035,2.035,0,0,0,.781,1.711,3.214,3.214,0,0,0,1.922.539,2.528,2.528,0,0,0,1.617-.437A1.4,1.4,0,0,0,97.945,25.25Zm14.844-3.828a10.327,10.327,0,0,1,1.734-6.328,5.709,5.709,0,0,1,4.844-2.312,4.855,4.855,0,0,1,3.813,1.781V6h5.281V30h-4.734l-.266-1.812a4.986,4.986,0,0,1-4.125,2.125A5.7,5.7,0,0,1,114.555,28,10.655,10.655,0,0,1,112.789,21.422Zm5.266.328q0,4.5,2.625,4.5a2.592,2.592,0,0,0,2.5-1.469V18.344a2.522,2.522,0,0,0-2.469-1.5q-2.437,0-2.641,3.938Zm21.578,8.563a8.691,8.691,0,0,1-6.3-2.32,8.013,8.013,0,0,1-2.406-6.039v-.437a10.383,10.383,0,0,1,.961-4.578,7.031,7.031,0,0,1,2.8-3.07,8.467,8.467,0,0,1,4.375-1.086,7.318,7.318,0,0,1,5.625,2.211,8.688,8.688,0,0,1,2.063,6.164V23.2H136.289a3.8,3.8,0,0,0,1.234,2.234,3.673,3.673,0,0,0,2.469.813A4.732,4.732,0,0,0,143.9,24.5l2.406,2.844a6.726,6.726,0,0,1-2.789,2.164A9.425,9.425,0,0,1,139.633,30.313Zm-.594-13.469q-2.313,0-2.75,3.063H141.6V19.5a2.608,2.608,0,0,0-.641-1.961A2.549,2.549,0,0,0,139.039,16.844ZM162.4,30h-5.281V6H162.4Zm12.766,0a5.945,5.945,0,0,1-.5-1.516,4.9,4.9,0,0,1-4.062,1.828,6,6,0,0,1-4.062-1.445,4.6,4.6,0,0,1-1.672-3.633,4.728,4.728,0,0,1,2.031-4.156,10.348,10.348,0,0,1,5.906-1.406h1.625v-.9q0-2.339-2.016-2.339a1.648,1.648,0,0,0-1.875,1.853h-5.266a4.72,4.72,0,0,1,2.086-3.98,8.766,8.766,0,0,1,5.32-1.529,7.686,7.686,0,0,1,5.109,1.578,5.487,5.487,0,0,1,1.922,4.328v7.484a7.665,7.665,0,0,0,.719,3.563V30Zm-3.3-3.437a2.937,2.937,0,0,0,1.633-.422,2.644,2.644,0,0,0,.93-.953v-2.7H172.9q-2.75,0-2.75,2.469a1.507,1.507,0,0,0,.484,1.164A1.753,1.753,0,0,0,171.867,26.563ZM47.227,76a5.945,5.945,0,0,1-.5-1.516,4.9,4.9,0,0,1-4.062,1.828A6,6,0,0,1,38.6,74.867a4.6,4.6,0,0,1-1.672-3.633,4.728,4.728,0,0,1,2.031-4.156,10.348,10.348,0,0,1,5.906-1.406h1.625v-.9q0-2.339-2.016-2.339A1.648,1.648,0,0,0,42.6,64.29H37.336a4.72,4.72,0,0,1,2.086-3.98,8.766,8.766,0,0,1,5.32-1.529,7.686,7.686,0,0,1,5.109,1.578,5.487,5.487,0,0,1,1.922,4.328v7.484a7.665,7.665,0,0,0,.719,3.563V76Zm-3.3-3.437a2.937,2.937,0,0,0,1.633-.422,2.644,2.644,0,0,0,.93-.953v-2.7H44.961q-2.75,0-2.75,2.469a1.507,1.507,0,0,0,.484,1.164A1.753,1.753,0,0,0,43.93,72.563Zm20.828,1.609a5.429,5.429,0,0,1-4.516,2.141A5.324,5.324,0,0,1,56.031,74.7a6.8,6.8,0,0,1-1.43-4.648V59.094h5.266V70.078a1.893,1.893,0,0,0,2.109,2.172,2.752,2.752,0,0,0,2.578-1.3V59.094h5.3V76H64.914Zm7.313-6.75A10.327,10.327,0,0,1,73.8,61.094a5.709,5.709,0,0,1,4.844-2.312,4.855,4.855,0,0,1,3.813,1.781V52h5.281V76H83.008l-.266-1.812a4.986,4.986,0,0,1-4.125,2.125A5.7,5.7,0,0,1,73.836,74,10.655,10.655,0,0,1,72.07,67.422Zm5.266.328q0,4.5,2.625,4.5a2.592,2.592,0,0,0,2.5-1.469V64.344a2.522,2.522,0,0,0-2.469-1.5q-2.437,0-2.641,3.938ZM96.289,76H91.008V59.094h5.281ZM90.7,54.734a2.35,2.35,0,0,1,.813-1.844,3.455,3.455,0,0,1,4.219,0,2.5,2.5,0,0,1,0,3.688,3.455,3.455,0,0,1-4.219,0A2.35,2.35,0,0,1,90.7,54.734Zm14.969.156v4.2h2.781V62.75h-2.781v7.734a1.975,1.975,0,0,0,.344,1.328,1.844,1.844,0,0,0,1.359.375,7.725,7.725,0,0,0,1.313-.094v3.766a9.718,9.718,0,0,1-2.969.453,5.516,5.516,0,0,1-4.016-1.281,5.252,5.252,0,0,1-1.3-3.891V62.75H98.242V59.094H100.4v-4.2Zm3.719,12.5a9.978,9.978,0,0,1,.984-4.508,7.04,7.04,0,0,1,2.828-3.039,8.518,8.518,0,0,1,4.328-1.062,7.774,7.774,0,0,1,5.984,2.352,9.024,9.024,0,0,1,2.188,6.4v.188a8.755,8.755,0,0,1-2.2,6.273,7.794,7.794,0,0,1-5.945,2.32,7.883,7.883,0,0,1-5.8-2.164,8.464,8.464,0,0,1-2.359-5.867Zm5.266.328a6.291,6.291,0,0,0,.734,3.438,2.447,2.447,0,0,0,2.172,1.094q2.813,0,2.875-4.328v-.531q0-4.547-2.906-4.547-2.641,0-2.859,3.922Zm23.594-3.859-1.734-.125q-2.484,0-3.187,1.563V76h-5.266V59.094h4.938l.172,2.172a4.077,4.077,0,0,1,3.7-2.484,5.135,5.135,0,0,1,1.469.188ZM145.883,76h-5.3V59.094h5.3Zm-1.969-23.687h5.563l-4.344,4.906-4.3-.008ZM158.789,76a5.945,5.945,0,0,1-.5-1.516,4.9,4.9,0,0,1-4.062,1.828,6,6,0,0,1-4.062-1.445,4.6,4.6,0,0,1-1.672-3.633,4.728,4.728,0,0,1,2.031-4.156,10.348,10.348,0,0,1,5.906-1.406h1.625v-.9q0-2.339-2.016-2.339a1.648,1.648,0,0,0-1.875,1.853H148.9a4.72,4.72,0,0,1,2.086-3.98,8.766,8.766,0,0,1,5.32-1.529,7.686,7.686,0,0,1,5.109,1.578,5.487,5.487,0,0,1,1.922,4.328v7.484a7.665,7.665,0,0,0,.719,3.563V76Zm-3.3-3.437a2.937,2.937,0,0,0,1.633-.422,2.644,2.644,0,0,0,.93-.953v-2.7h-1.531q-2.75,0-2.75,2.469a1.507,1.507,0,0,0,.484,1.164A1.753,1.753,0,0,0,155.492,72.563Z" transform="translate(732 1009)" fill="#12263f"/>
    <g id="Grupo_1064918" data-name="Grupo 1064918" transform="translate(467.233 1237.313)">
      <g id="Grupo_1064917" data-name="Grupo 1064917" clip-path="url(#clip-path-2)">
        <path id="Trazado_778681" data-name="Trazado 778681" d="M4.533,6.811,1.626,9.59,0,7.891,8.251,0,11.33,3.219a5.142,5.142,0,0,1,1.224,1.959,3.467,3.467,0,0,1,.072,2.009,3.726,3.726,0,0,1-1.063,1.743,3.278,3.278,0,0,1-2.706,1A4.786,4.786,0,0,1,5.958,8.3ZM5.911,5.493l1.452,1.52a2.07,2.07,0,0,0,1.3.725,1.6,1.6,0,0,0,1.246-.513,1.884,1.884,0,0,0,.639-1.3,1.847,1.847,0,0,0-.557-1.354L8.5,3.017Z" fill="#12263f"/>
        <rect id="Rectángulo_374037" data-name="Rectángulo 374037" width="12.044" height="2.274" transform="matrix(0.714, -0.701, 0.701, 0.714, 7.132, 15.3)" fill="#12263f"/>
        <path id="Trazado_778682" data-name="Trazado 778682" d="M18.785,28.224a2.505,2.505,0,0,1,.376-.7,2.745,2.745,0,0,1-2.166-.859,3.013,3.013,0,0,1-.956-1.969,2.318,2.318,0,0,1,.7-1.867,2.4,2.4,0,0,1,2.169-.763,4.942,4.942,0,0,1,2.563,1.521l.739.735.344-.344A1.4,1.4,0,0,0,23,23.1a1.19,1.19,0,0,0-.427-.922,1.349,1.349,0,0,0-.83-.438.93.93,0,0,0-.761.3l-1.607-1.6a2.275,2.275,0,0,1,1.284-.646A3.007,3.007,0,0,1,22.27,20a4.7,4.7,0,0,1,1.575,1.063,3.709,3.709,0,0,1,1.209,2.314,2.758,2.758,0,0,1-.909,2.22L21.552,28.21A4.046,4.046,0,0,0,20.5,29.744l-.094.094Zm-.217-2.44a1.942,1.942,0,0,0,.814.494,1.469,1.469,0,0,0,.868.017l1.028-1.034-.6-.6q-1.206-1.2-2.114-.443l-.1.089a.907.907,0,0,0-.281.705,1.156,1.156,0,0,0,.385.769" transform="translate(-5.296 -6.528)" fill="#12263f"/>
        <path id="Trazado_778683" data-name="Trazado 778683" d="M31.4,28.542l-.629.755a2.96,2.96,0,0,1,2.545.873,2.461,2.461,0,0,1,.9,1.963,3.688,3.688,0,0,1-1.156,2.173l-3.8,3.948-1.633-1.572,3.765-3.908a1.471,1.471,0,0,0,.5-.972,1.4,1.4,0,0,0-.526-.957,1.555,1.555,0,0,0-1.6-.409l-4.15,4.309-1.633-1.572,5.885-6.111Z" transform="translate(-7.921 -8.939)" fill="#12263f"/>
        <path id="Trazado_778684" data-name="Trazado 778684" d="M37.07,45.85a4.161,4.161,0,0,1-1.442-2.91,4.068,4.068,0,0,1,1.223-3.03L37,39.75a5.124,5.124,0,0,1,1.92-1.335A3.627,3.627,0,0,1,41,38.234a3.935,3.935,0,0,1,1.882,1.011,3.517,3.517,0,0,1,1.256,2.671,4.46,4.46,0,0,1-1.392,2.959l-.631.677-3.952-3.685a2.1,2.1,0,0,0-.425,1.427,2,2,0,0,0,.682,1.321,2.445,2.445,0,0,0,2.144.7l-.036,1.671a3.4,3.4,0,0,1-1.777-.119,4.515,4.515,0,0,1-1.686-1.02m4.565-5.274a1.415,1.415,0,0,0-1.112-.412,2.37,2.37,0,0,0-1.284.59l2.305,2.15.124-.133a1.684,1.684,0,0,0,.5-1.133,1.461,1.461,0,0,0-.532-1.061" transform="translate(-11.767 -12.604)" fill="#12263f"/>
        <path id="Trazado_778685" data-name="Trazado 778685" d="M47.115,54.964a2.524,2.524,0,0,1,.342-.717,2.743,2.743,0,0,1-2.2-.754,3.015,3.015,0,0,1-1.05-1.921,2.321,2.321,0,0,1,.612-1.9,2.4,2.4,0,0,1,2.13-.866,4.933,4.933,0,0,1,2.633,1.4l.773.7.326-.361a1.4,1.4,0,0,0,.407-.9,1.193,1.193,0,0,0-.47-.9,1.356,1.356,0,0,0-.851-.4.932.932,0,0,0-.745.341l-1.682-1.519a2.273,2.273,0,0,1,1.252-.708,3.006,3.006,0,0,1,1.614.131,4.672,4.672,0,0,1,1.624.987,3.7,3.7,0,0,1,1.319,2.253,2.76,2.76,0,0,1-.8,2.262l-2.465,2.728A4.055,4.055,0,0,0,48.9,56.4l-.089.1Zm-.334-2.426a1.95,1.95,0,0,0,.836.455,1.477,1.477,0,0,0,.868-.025l.978-1.083-.629-.567q-1.262-1.141-2.132-.342l-.1.094a.908.908,0,0,0-.247.717,1.158,1.158,0,0,0,.422.751" transform="translate(-14.595 -15.327)" fill="#12263f"/>
        <path id="Trazado_778686" data-name="Trazado 778686" d="M56.972,61.348a1.489,1.489,0,0,0,.994.412,1.209,1.209,0,0,0,.912-.422l1.6,1.4a2.908,2.908,0,0,1-1.395.879,3.111,3.111,0,0,1-1.686,0,3.964,3.964,0,0,1-1.6-.873,3.682,3.682,0,0,1-1.4-2.76,4.579,4.579,0,0,1,1.315-3.1l.1-.112a4.529,4.529,0,0,1,2.846-1.668,3.646,3.646,0,0,1,2.922,1.007,3.569,3.569,0,0,1,1.323,2.363,3.207,3.207,0,0,1-.854,2.458l-1.6-1.4a1.563,1.563,0,0,0,.4-1.078,1.516,1.516,0,0,0-1.786-1.347,3.344,3.344,0,0,0-1.538,1.143l-.155.177a3.392,3.392,0,0,0-.942,1.682,1.385,1.385,0,0,0,.537,1.232" transform="translate(-17.97 -18.196)" fill="#12263f"/>
        <path id="Trazado_778687" data-name="Trazado 778687" d="M63.869,68.349,62.141,66.87l5.516-6.447L69.385,61.9Zm5.114-9.68a1.111,1.111,0,0,1,.8-.416,1.471,1.471,0,0,1,1.41,1.205,1.2,1.2,0,0,1-1.1,1.278,1.455,1.455,0,0,1-1.4-1.2,1.112,1.112,0,0,1,.286-.871" transform="translate(-20.527 -19.241)" fill="#12263f"/>
        <path id="Trazado_778688" data-name="Trazado 778688" d="M69.9,68.31a5.025,5.025,0,0,1,1.815-1.416,3.56,3.56,0,0,1,2.054-.278,4.077,4.077,0,0,1,1.975.944,3.859,3.859,0,0,1,1.479,2.6,4.215,4.215,0,0,1-.9,2.968l-.36.456a4.442,4.442,0,0,1-2.845,1.706,4.225,4.225,0,0,1-4.5-3.748,4.515,4.515,0,0,1,1.21-3.157Zm1.637,1.575A3.18,3.18,0,0,0,70.7,71.6a1.634,1.634,0,0,0,1.982,1.664A3.469,3.469,0,0,0,74.333,72a3.14,3.14,0,0,0,.822-1.707,1.5,1.5,0,0,0-.582-1.335,1.479,1.479,0,0,0-1.4-.327,3.525,3.525,0,0,0-1.635,1.249m6.732-4.651,1.9,1.582-3.225.475-1.415-1.181Z" transform="translate(-22.666 -21.548)" fill="#12263f"/>
        <path id="Trazado_778689" data-name="Trazado 778689" d="M84.117,75.19,83.557,76a2.962,2.962,0,0,1,2.612.647,2.463,2.463,0,0,1,1.065,1.877,3.694,3.694,0,0,1-.962,2.266l-3.442,4.267L81.065,83.63l3.408-4.223a1.474,1.474,0,0,0,.413-1.012,1.4,1.4,0,0,0-.607-.908,1.558,1.558,0,0,0-1.628-.267l-3.758,4.656-1.763-1.423,5.328-6.6Z" transform="translate(-25.477 -24.394)" fill="#12263f"/>
        <path id="Trazado_778690" data-name="Trazado 778690" d="M95.149,88.979a5.11,5.11,0,0,1,2.631-1.964,2.887,2.887,0,0,1,2.648.551,2.6,2.6,0,0,1,1.059,1.98l2.637-3.432,1.8,1.386-7.339,9.55L96.966,95.8l.462-.782a2.668,2.668,0,0,1-2.373-.49,2.879,2.879,0,0,1-1.187-2.4,5.28,5.28,0,0,1,1.281-3.154m1.695,1.514a3.342,3.342,0,0,0-.786,1.7,1.354,1.354,0,0,0,.57,1.24,1.515,1.515,0,0,0,1.716.2l2.043-2.658a1.5,1.5,0,0,0-.621-1.6q-1.3-1-2.921,1.112" transform="translate(-31.007 -28.445)" fill="#12263f"/>
        <path id="Trazado_778691" data-name="Trazado 778691" d="M106.6,103.687a4.161,4.161,0,0,1-1.757-2.731,4.067,4.067,0,0,1,.879-3.147l.131-.176a5.123,5.123,0,0,1,1.76-1.54,3.625,3.625,0,0,1,2.049-.412,3.925,3.925,0,0,1,1.984.795,3.522,3.522,0,0,1,1.545,2.515,4.456,4.456,0,0,1-1.054,3.1l-.551.743-4.338-3.222a2.108,2.108,0,0,0-.263,1.465,2,2,0,0,0,.824,1.238,2.446,2.446,0,0,0,2.209.459l.15,1.665a3.4,3.4,0,0,1-1.779.08,4.526,4.526,0,0,1-1.789-.826m3.95-5.75a1.418,1.418,0,0,0-1.151-.286,2.367,2.367,0,0,0-1.21.729l2.53,1.88.108-.146a1.683,1.683,0,0,0,.37-1.182,1.463,1.463,0,0,0-.647-1" transform="translate(-34.618 -31.6)" fill="#12263f"/>
        <rect id="Rectángulo_374038" data-name="Rectángulo 374038" width="12.045" height="2.274" transform="translate(79.227 77.175) rotate(-54.494)" fill="#12263f"/>
        <path id="Trazado_778692" data-name="Trazado 778692" d="M127.64,118.669a2.516,2.516,0,0,1,.248-.754,2.741,2.741,0,0,1-2.281-.47,3.011,3.011,0,0,1-1.284-1.772,2.319,2.319,0,0,1,.366-1.961,2.4,2.4,0,0,1,2-1.128,4.936,4.936,0,0,1,2.789,1.053l.856.6.279-.4a1.4,1.4,0,0,0,.289-.946,1.191,1.191,0,0,0-.581-.834,1.352,1.352,0,0,0-.893-.287.933.933,0,0,0-.7.432l-1.86-1.294a2.281,2.281,0,0,1,1.153-.861,3.008,3.008,0,0,1,1.618-.072,4.682,4.682,0,0,1,1.736.773,3.705,3.705,0,0,1,1.593,2.069,2.756,2.756,0,0,1-.51,2.345l-2.1,3.018a4.052,4.052,0,0,0-.767,1.692l-.076.109ZM127,116.3a1.96,1.96,0,0,0,.887.346,1.471,1.471,0,0,0,.857-.135l.834-1.2-.7-.483q-1.4-.972-2.158-.07l-.083.105a.908.908,0,0,0-.154.743,1.157,1.157,0,0,0,.513.691" transform="translate(-41.041 -36.3)" fill="#12263f"/>
        <path id="Trazado_778693" data-name="Trazado 778693" d="M143.118,129.132a2.512,2.512,0,0,1,.23-.76,2.738,2.738,0,0,1-2.292-.417,3.008,3.008,0,0,1-1.324-1.743,2.317,2.317,0,0,1,.321-1.969,2.4,2.4,0,0,1,1.977-1.174,4.928,4.928,0,0,1,2.811.988l.87.576.269-.405a1.4,1.4,0,0,0,.268-.952,1.188,1.188,0,0,0-.6-.82,1.349,1.349,0,0,0-.9-.267.931.931,0,0,0-.688.448l-1.889-1.252a2.277,2.277,0,0,1,1.132-.887,3.019,3.019,0,0,1,1.617-.11,4.707,4.707,0,0,1,1.753.733,3.7,3.7,0,0,1,1.641,2.032,2.76,2.76,0,0,1-.455,2.356l-2.03,3.066a4.067,4.067,0,0,0-.728,1.709l-.073.112Zm-.692-2.349a1.955,1.955,0,0,0,.895.325,1.472,1.472,0,0,0,.855-.153l.8-1.217-.706-.467q-1.418-.939-2.16-.019l-.08.107a.907.907,0,0,0-.137.746,1.156,1.156,0,0,0,.528.679" transform="translate(-46.127 -39.747)" fill="#12263f"/>
        <path id="Trazado_778694" data-name="Trazado 778694" d="M154.565,134.937a2.844,2.844,0,0,1-2.5-.392,2.679,2.679,0,0,1-1.332-1.782,3.347,3.347,0,0,1,.62-2.33l2.995-4.684,1.909,1.221-2.957,4.623a1.123,1.123,0,0,0,.3,1.768,1.633,1.633,0,0,0,1.765.179l3.239-5.066,1.917,1.225-4.571,7.148-1.8-1.149Z" transform="translate(-49.778 -41.537)" fill="#12263f"/>
        <path id="Trazado_778695" data-name="Trazado 778695" d="M163.113,136.045a5.116,5.116,0,0,1,2.415-2.224,2.888,2.888,0,0,1,2.69.277,2.594,2.594,0,0,1,1.257,1.861l2.271-3.685,1.936,1.193-6.318,10.255-1.743-1.074.38-.825a2.666,2.666,0,0,1-2.411-.242,2.877,2.877,0,0,1-1.427-2.266,5.276,5.276,0,0,1,.95-3.269m1.841,1.332a3.341,3.341,0,0,0-.606,1.776,1.352,1.352,0,0,0,.694,1.175,1.516,1.516,0,0,0,1.727.021l1.759-2.854a1.5,1.5,0,0,0-.783-1.526q-1.4-.859-2.792,1.407" transform="translate(-53.56 -43.692)" fill="#12263f"/>
        <path id="Trazado_778696" data-name="Trazado 778696" d="M174.253,147.111l-1.95-1.169,4.362-7.277,1.95,1.169Zm3.426-10.4a1.114,1.114,0,0,1,.724-.544,1.469,1.469,0,0,1,1.59.953,1.2,1.2,0,0,1-.87,1.444,1.457,1.457,0,0,1-1.58-.948,1.114,1.114,0,0,1,.136-.906" transform="translate(-56.915 -44.97)" fill="#12263f"/>
        <path id="Trazado_778697" data-name="Trazado 778697" d="M185.8,141.8l-1.056,1.8,1.25.735-.842,1.434-1.251-.735-2.144,3.651a1.013,1.013,0,0,0-.186.673q.051.267.492.525a3.661,3.661,0,0,0,.6.291l-.869,1.481a4.681,4.681,0,0,1-1.286-.519,2.164,2.164,0,0,1-.877-3.308l2.315-3.942-1.068-.628.842-1.433,1.069.628,1.056-1.8Z" transform="translate(-59.194 -46.459)" fill="#12263f"/>
        <path id="Trazado_778698" data-name="Trazado 778698" d="M186.562,150.8a5.018,5.018,0,0,1,1.537-1.714,3.555,3.555,0,0,1,1.974-.636,4.081,4.081,0,0,1,2.11.581,3.863,3.863,0,0,1,1.915,2.3,4.218,4.218,0,0,1-.362,3.08l-.274.511a4.435,4.435,0,0,1-2.5,2.182,4.225,4.225,0,0,1-5.087-2.9,4.511,4.511,0,0,1,.634-3.321Zm1.889,1.262a3.171,3.171,0,0,0-.52,1.832,1.633,1.633,0,0,0,2.243,1.288,3.467,3.467,0,0,0,1.4-1.527,3.138,3.138,0,0,0,.508-1.826,1.5,1.5,0,0,0-.808-1.211,1.482,1.482,0,0,0-1.438-.074,3.529,3.529,0,0,0-1.389,1.518" transform="translate(-61.367 -49.037)" fill="#12263f"/>
        <path id="Trazado_778699" data-name="Trazado 778699" d="M203.185,157.551a6.18,6.18,0,0,0-.684-.449,1.66,1.66,0,0,0-1.9-.053l-2.683,4.86-1.984-1.1,4.1-7.427,1.874,1.035-.435.916a2.1,2.1,0,0,1,2.219-.109,2.362,2.362,0,0,1,.568.431Z" transform="translate(-64.723 -50.666)" fill="#12263f"/>
        <path id="Trazado_778700" data-name="Trazado 778700" d="M205.809,165.08,203.815,164l4.031-7.465,1.994,1.076Zm5.079-10.812,2.174,1.173L210,156.548l-1.621-.875Z" transform="translate(-67.325 -50.958)" fill="#12263f"/>
        <path id="Trazado_778701" data-name="Trazado 778701" d="M213.938,170.809a2.512,2.512,0,0,1,.152-.779,2.745,2.745,0,0,1-2.322-.182,3.017,3.017,0,0,1-1.495-1.6,2.316,2.316,0,0,1,.119-1.992,2.4,2.4,0,0,1,1.847-1.369,4.937,4.937,0,0,1,2.9.7l.923.485.226-.431a1.4,1.4,0,0,0,.169-.974,1.19,1.19,0,0,0-.68-.755,1.349,1.349,0,0,0-.923-.174.929.929,0,0,0-.638.516l-2.007-1.053a2.275,2.275,0,0,1,1.037-1,3,3,0,0,1,1.6-.274,4.687,4.687,0,0,1,1.819.55,3.7,3.7,0,0,1,1.838,1.854,2.755,2.755,0,0,1-.212,2.389l-1.708,3.257a4.041,4.041,0,0,0-.55,1.775l-.062.118Zm-.928-2.266a1.953,1.953,0,0,0,.923.232,1.463,1.463,0,0,0,.834-.24l.678-1.291-.75-.394q-1.507-.791-2.15.2l-.069.114a.907.907,0,0,0-.06.757,1.158,1.158,0,0,0,.595.622" transform="translate(-69.402 -53.484)" fill="#12263f"/>
      </g>
    </g>
    <g id="Grupo_1064921" data-name="Grupo 1064921" transform="translate(717.929 1383.374)">
      <rect id="Rectángulo_374040" data-name="Rectángulo 374040" width="11.417" height="2.353" transform="translate(0 11.026) rotate(-74.947)" fill="#12263f"/>
      <g id="Grupo_1064920" data-name="Grupo 1064920" transform="translate(0 0)">
        <g id="Grupo_1064919" data-name="Grupo 1064919" clip-path="url(#clip-path-3)">
          <path id="Trazado_778702" data-name="Trazado 778702" d="M10.478,6.419l-.148.94a2.983,2.983,0,0,1,2.626-.52,2.262,2.262,0,0,1,1.9,1.773,2.917,2.917,0,0,1,2.777-.678,2.533,2.533,0,0,1,1.817,1.252,3.7,3.7,0,0,1,.1,2.509L18.314,16.97,16.1,16.451l1.234-5.268a1.617,1.617,0,0,0-.033-1.092,1.255,1.255,0,0,0-.893-.551,1.413,1.413,0,0,0-1.6.625l-1.322,5.674-2.207-.517,1.233-5.26a1.6,1.6,0,0,0-.039-1.1,1.263,1.263,0,0,0-.887-.546,1.468,1.468,0,0,0-1.542.46l-1.369,5.84-2.206-.517L8.408,5.934Z" transform="translate(-2.138 -1.96)" fill="#12263f"/>
          <path id="Trazado_778703" data-name="Trazado 778703" d="M34.564,16.171a5.094,5.094,0,0,1-1.486,2.906,2.856,2.856,0,0,1-2.588.688,2.643,2.643,0,0,1-1.863-1.282l-.781,3.922-2.223-.442,2.294-11.521,2.061.411-.085.83a2.663,2.663,0,0,1,2.3-.549,2.872,2.872,0,0,1,2.165,1.614,5.224,5.224,0,0,1,.229,3.308Zm-2.191-.6a3.34,3.34,0,0,0-.055-1.874,1.366,1.366,0,0,0-1.07-.869,1.484,1.484,0,0,0-1.6.514l-.678,3.407a1.509,1.509,0,0,0,1.29,1.112q1.592.316,2.111-2.29" transform="translate(-8.464 -3.449)" fill="#12263f"/>
          <rect id="Rectángulo_374041" data-name="Rectángulo 374041" width="12.045" height="2.274" transform="translate(26.743 17.057) rotate(-79.736)" fill="#12263f"/>
          <path id="Trazado_778704" data-name="Trazado 778704" d="M49.9,23.411a4.163,4.163,0,0,1-2.813-1.624,4.068,4.068,0,0,1-.66-3.2l.036-.216a5.12,5.12,0,0,1,.859-2.175,3.628,3.628,0,0,1,1.633-1.3,3.933,3.933,0,0,1,2.128-.2,3.522,3.522,0,0,1,2.525,1.53,4.458,4.458,0,0,1,.479,3.234l-.15.913-5.331-.879a2.105,2.105,0,0,0,.437,1.423,2.006,2.006,0,0,0,1.3.723,2.446,2.446,0,0,0,2.174-.6l.9,1.412a3.409,3.409,0,0,1-1.546.885,4.516,4.516,0,0,1-1.968.084m.879-6.92a1.417,1.417,0,0,0-1.154.273,2.371,2.371,0,0,0-.743,1.2l3.11.513.029-.179a1.684,1.684,0,0,0-.212-1.22,1.458,1.458,0,0,0-1.031-.589" transform="translate(-15.312 -4.832)" fill="#12263f"/>
          <path id="Trazado_778705" data-name="Trazado 778705" d="M61.906,16.417l-.062.95a2.98,2.98,0,0,1,2.568-.759A2.262,2.262,0,0,1,66.464,18.2a2.913,2.913,0,0,1,2.7-.931,2.532,2.532,0,0,1,1.925,1.079,3.69,3.69,0,0,1,.335,2.489L70.68,26.2l-2.253-.313.745-5.359a1.616,1.616,0,0,0-.135-1.084,1.251,1.251,0,0,0-.94-.467,1.415,1.415,0,0,0-1.532.769L65.77,25.52l-2.244-.312.743-5.351a1.6,1.6,0,0,0-.141-1.1A1.261,1.261,0,0,0,63.2,18.3a1.47,1.47,0,0,0-1.493.6l-.825,5.941-2.245-.312,1.167-8.4Z" transform="translate(-19.368 -5.326)" fill="#12263f"/>
          <path id="Trazado_778706" data-name="Trazado 778706" d="M83.048,28a4.165,4.165,0,0,1-2.888-1.483,4.068,4.068,0,0,1-.818-3.164l.025-.218a5.144,5.144,0,0,1,.751-2.215,3.63,3.63,0,0,1,1.568-1.383,3.927,3.927,0,0,1,2.115-.306,3.52,3.52,0,0,1,2.6,1.4,4.46,4.46,0,0,1,.638,3.206l-.105.919-5.367-.615a2.1,2.1,0,0,0,.506,1.4A2.007,2.007,0,0,0,83.4,26.2a2.447,2.447,0,0,0,2.142-.709l.964,1.365a3.408,3.408,0,0,1-1.5.96A4.526,4.526,0,0,1,83.048,28m.538-6.955a1.418,1.418,0,0,0-1.139.329,2.367,2.367,0,0,0-.683,1.238l3.132.359.021-.18a1.687,1.687,0,0,0-.272-1.208,1.463,1.463,0,0,0-1.059-.538" transform="translate(-26.196 -6.341)" fill="#12263f"/>
          <path id="Trazado_778707" data-name="Trazado 778707" d="M94.787,20.474l-.023.982a2.962,2.962,0,0,1,2.537-.9,2.462,2.462,0,0,1,1.922.982,3.7,3.7,0,0,1,.443,2.422l-.526,5.455L96.884,29.2l.521-5.4a1.468,1.468,0,0,0-.212-1.073,1.408,1.408,0,0,0-1.007-.424,1.561,1.561,0,0,0-1.507.674L94.1,28.932l-2.255-.218.815-8.446Z" transform="translate(-30.34 -6.695)" fill="#12263f"/>
          <path id="Trazado_778708" data-name="Trazado 778708" d="M108.691,18.641l-.17,2.079,1.446.118-.136,1.657-1.445-.119-.346,4.22a1.008,1.008,0,0,0,.125.686.9.9,0,0,0,.671.26,3.634,3.634,0,0,0,.668,0l-.14,1.712a4.674,4.674,0,0,1-1.384.09,2.164,2.164,0,0,1-2.227-2.6l.373-4.556-1.235-.1.135-1.656,1.235.1.17-2.079Z" transform="translate(-34.648 -6.096)" fill="#12263f"/>
          <path id="Trazado_778709" data-name="Trazado 778709" d="M118.079,30.976a2.505,2.505,0,0,1-.176-.774,2.742,2.742,0,0,1-2.2.771,3.016,3.016,0,0,1-2.013-.859,2.318,2.318,0,0,1-.7-1.87,2.394,2.394,0,0,1,1.136-2,4.928,4.928,0,0,1,2.932-.534l1.041.07.033-.484a1.4,1.4,0,0,0-.238-.96,1.185,1.185,0,0,0-.927-.416,1.351,1.351,0,0,0-.914.213.933.933,0,0,0-.375.729l-2.261-.152a2.271,2.271,0,0,1,.545-1.331,3.011,3.011,0,0,1,1.349-.9,4.685,4.685,0,0,1,1.886-.23,3.7,3.7,0,0,1,2.431.953,2.758,2.758,0,0,1,.77,2.272l-.247,3.67A4.038,4.038,0,0,0,120.373,31l-.009.133Zm-1.764-1.7a1.959,1.959,0,0,0,.938-.161,1.472,1.472,0,0,0,.667-.557l.1-1.455-.845-.057q-1.7-.115-1.886,1.051l-.017.133a.9.9,0,0,0,.251.717,1.154,1.154,0,0,0,.795.329" transform="translate(-37.323 -7.347)" fill="#12263f"/>
          <path id="Trazado_778710" data-name="Trazado 778710" d="M129.553,29.959a1.485,1.485,0,0,0,1.035-.294,1.209,1.209,0,0,0,.453-.9l2.123.105a2.914,2.914,0,0,1-.549,1.555,3.1,3.1,0,0,1-1.319,1.049,3.977,3.977,0,0,1-1.794.307,3.682,3.682,0,0,1-2.809-1.3,4.578,4.578,0,0,1-.891-3.244l.007-.148a4.526,4.526,0,0,1,1.2-3.073A3.642,3.642,0,0,1,129.923,23a3.569,3.569,0,0,1,2.5,1.031,3.206,3.206,0,0,1,.855,2.456l-2.122-.105a1.559,1.559,0,0,0-.354-1.095,1.516,1.516,0,0,0-2.237.053,3.347,3.347,0,0,0-.5,1.85l-.011.235a3.389,3.389,0,0,0,.305,1.9,1.383,1.383,0,0,0,1.186.633" transform="translate(-41.552 -7.594)" fill="#12263f"/>
          <path id="Trazado_778711" data-name="Trazado 778711" d="M140.911,30.474l-2.273-.082.305-8.479,2.273.082Zm-2.022-10.76a1.117,1.117,0,0,1,.371-.826,1.467,1.467,0,0,1,1.853.066,1.2,1.2,0,0,1-.064,1.685,1.455,1.455,0,0,1-1.842-.067,1.111,1.111,0,0,1-.318-.859" transform="translate(-45.795 -6.141)" fill="#12263f"/>
          <path id="Trazado_778712" data-name="Trazado 778712" d="M144.335,26.215a5.032,5.032,0,0,1,.533-2.239,3.551,3.551,0,0,1,1.432-1.5,4.08,4.08,0,0,1,2.132-.5,3.864,3.864,0,0,1,2.781,1.11,4.218,4.218,0,0,1,1.151,2.878l0,.581a4.439,4.439,0,0,1-1.156,3.109,4.224,4.224,0,0,1-5.852-.119,4.509,4.509,0,0,1-1.027-3.221Zm2.262.208a3.176,3.176,0,0,0,.416,1.859,1.634,1.634,0,0,0,2.588.062,3.485,3.485,0,0,0,.5-2.012,3.136,3.136,0,0,0-.425-1.846,1.5,1.5,0,0,0-1.288-.679,1.477,1.477,0,0,0-1.3.621,3.532,3.532,0,0,0-.5,2m2.353-7.837,2.469.052L149.2,21.023l-1.842-.039Z" transform="translate(-47.676 -6.139)" fill="#12263f"/>
          <path id="Trazado_778713" data-name="Trazado 778713" d="M160.3,23.947l.073.98a2.963,2.963,0,0,1,2.436-1.143,2.462,2.462,0,0,1,2.01.786,3.7,3.7,0,0,1,.68,2.367l.015,5.481-2.266.006L163.23,27a1.469,1.469,0,0,0-.316-1.047,1.407,1.407,0,0,0-1.043-.322,1.559,1.559,0,0,0-1.433.819l.015,5.983-2.266.007-.023-8.485Z" transform="translate(-52.245 -7.856)" fill="#12263f"/>
          <path id="Trazado_778714" data-name="Trazado 778714" d="M176.835,26.194a5.116,5.116,0,0,1,.789-3.186,2.884,2.884,0,0,1,2.4-1.253,2.6,2.6,0,0,1,2.075.859l-.137-4.326,2.272-.072.384,12.038-2.046.066-.139-.9a2.667,2.667,0,0,1-2.145,1.127,2.883,2.883,0,0,1-2.44-1.1,5.283,5.283,0,0,1-1.009-3.251m2.27.1a3.35,3.35,0,0,0,.473,1.816,1.354,1.354,0,0,0,1.228.6,1.518,1.518,0,0,0,1.453-.934l-.106-3.352a1.5,1.5,0,0,0-1.494-.84q-1.638.052-1.554,2.713" transform="translate(-58.411 -6.017)" fill="#12263f"/>
          <path id="Trazado_778715" data-name="Trazado 778715" d="M194.626,31.692a4.163,4.163,0,0,1-3.093-.99,4.067,4.067,0,0,1-1.325-2.987L190.2,27.5a5.123,5.123,0,0,1,.378-2.308,3.632,3.632,0,0,1,1.319-1.621,3.93,3.93,0,0,1,2.036-.649,3.522,3.522,0,0,1,2.793.958,4.464,4.464,0,0,1,1.157,3.058l.047.924-5.4.274a2.1,2.1,0,0,0,.729,1.3,2,2,0,0,0,1.423.431,2.448,2.448,0,0,0,2-1.052L197.854,30a3.392,3.392,0,0,1-1.321,1.193,4.526,4.526,0,0,1-1.906.5m-.611-6.949a1.415,1.415,0,0,0-1.07.512,2.368,2.368,0,0,0-.47,1.333l3.148-.159-.009-.181a1.689,1.689,0,0,0-.467-1.148,1.459,1.459,0,0,0-1.132-.356" transform="translate(-62.824 -7.568)" fill="#12263f"/>
          <rect id="Rectángulo_374042" data-name="Rectángulo 374042" width="2.274" height="12.044" transform="translate(139.769 11.419) rotate(-4.104)" fill="#12263f"/>
          <path id="Trazado_778716" data-name="Trazado 778716" d="M220.68,29.741a2.532,2.532,0,0,1-.29-.738,2.748,2.748,0,0,1-2.057,1.094,3.011,3.011,0,0,1-2.12-.545,2.322,2.322,0,0,1-.97-1.743,2.4,2.4,0,0,1,.822-2.147,4.93,4.93,0,0,1,2.817-.97l1.039-.088-.04-.484a1.4,1.4,0,0,0-.38-.912,1.188,1.188,0,0,0-.98-.272,1.348,1.348,0,0,0-.871.35.932.932,0,0,0-.261.778l-2.258.191a2.285,2.285,0,0,1,.338-1.4,3.006,3.006,0,0,1,1.2-1.089,4.67,4.67,0,0,1,1.83-.512,3.7,3.7,0,0,1,2.547.575,2.758,2.758,0,0,1,1.106,2.13l.31,3.664a4.042,4.042,0,0,0,.49,1.792l.011.133Zm-2-1.412a1.957,1.957,0,0,0,.9-.3,1.471,1.471,0,0,0,.574-.651l-.123-1.454-.843.072q-1.7.143-1.706,1.324l0,.133a.9.9,0,0,0,.356.67,1.152,1.152,0,0,0,.836.2" transform="translate(-71.06 -7.014)" fill="#12263f"/>
          <path id="Trazado_778717" data-name="Trazado 778717" d="M239.246,27.9a2.511,2.511,0,0,1-.309-.731,2.741,2.741,0,0,1-2.028,1.145,3.01,3.01,0,0,1-2.133-.492,2.32,2.32,0,0,1-1.013-1.718,2.4,2.4,0,0,1,.768-2.167,4.924,4.924,0,0,1,2.793-1.04l1.037-.114-.053-.483a1.4,1.4,0,0,0-.4-.9,1.19,1.19,0,0,0-.986-.247,1.355,1.355,0,0,0-.863.371.932.932,0,0,0-.241.784l-2.252.247a2.27,2.27,0,0,1,.3-1.406,3.009,3.009,0,0,1,1.171-1.119,4.71,4.71,0,0,1,1.816-.558,3.7,3.7,0,0,1,2.561.512,2.76,2.76,0,0,1,1.158,2.1l.4,3.656a4.049,4.049,0,0,0,.534,1.779l.015.132Zm-2.034-1.362a1.958,1.958,0,0,0,.9-.323,1.473,1.473,0,0,0,.558-.665l-.159-1.45-.842.092q-1.692.186-1.672,1.367l.006.133a.911.911,0,0,0,.372.662,1.16,1.16,0,0,0,.841.183" transform="translate(-77.147 -6.419)" fill="#12263f"/>
          <path id="Trazado_778718" data-name="Trazado 778718" d="M251.847,25.354a2.84,2.84,0,0,1-2.173,1.305,2.681,2.681,0,0,1-2.165-.514,3.351,3.351,0,0,1-1.018-2.186l-.705-5.515,2.249-.287.7,5.443q.169,1.316,1.366,1.163a1.634,1.634,0,0,0,1.469-.994L250.8,17.8l2.256-.289,1.075,8.416-2.116.271Z" transform="translate(-81.188 -5.785)" fill="#12263f"/>
          <path id="Trazado_778719" data-name="Trazado 778719" d="M259.19,19.139a5.11,5.11,0,0,1,.42-3.255,2.888,2.888,0,0,1,2.237-1.519,2.6,2.6,0,0,1,2.16.617l-.631-4.282,2.25-.331,1.755,11.916-2.025.3-.24-.877a2.667,2.667,0,0,1-2,1.365,2.88,2.88,0,0,1-2.55-.817,5.279,5.279,0,0,1-1.374-3.115m2.266-.163a3.348,3.348,0,0,0,.678,1.749,1.352,1.352,0,0,0,1.287.453,1.516,1.516,0,0,0,1.337-1.094l-.49-3.318a1.5,1.5,0,0,0-1.58-.664q-1.621.238-1.234,2.873" transform="translate(-85.588 -3.425)" fill="#12263f"/>
          <path id="Trazado_778720" data-name="Trazado 778720" d="M271.413,11.323a1.115,1.115,0,0,1,.2-.883,1.472,1.472,0,0,1,1.831-.3,1.2,1.2,0,0,1,.267,1.665,1.452,1.452,0,0,1-1.819.3,1.111,1.111,0,0,1-.479-.78m4.09,10.155-2.245.365L271.9,13.469l2.245-.365Z" transform="translate(-89.647 -3.284)" fill="#12263f"/>
          <path id="Trazado_778721" data-name="Trazado 778721" d="M279.968,10.476l.359,2.055,1.429-.25.286,1.638-1.429.25.728,4.171a1.008,1.008,0,0,0,.293.634.907.907,0,0,0,.715.082,3.665,3.665,0,0,0,.646-.169l.3,1.692a4.675,4.675,0,0,1-1.317.437,2.163,2.163,0,0,1-2.808-1.953l-.786-4.5-1.22.212-.286-1.637,1.22-.214-.358-2.054Z" transform="translate(-91.457 -3.46)" fill="#12263f"/>
          <path id="Trazado_778722" data-name="Trazado 778722" d="M286.011,16.655a5.032,5.032,0,0,1,.051-2.3,3.555,3.555,0,0,1,1.084-1.767,4.081,4.081,0,0,1,1.98-.933,3.857,3.857,0,0,1,2.951.5,4.217,4.217,0,0,1,1.73,2.572l.126.567a4.434,4.434,0,0,1-.477,3.282,4.224,4.224,0,0,1-5.747,1.114,4.517,4.517,0,0,1-1.681-2.935Zm2.255-.271a3.175,3.175,0,0,0,.8,1.73,1.634,1.634,0,0,0,2.542-.483,3.474,3.474,0,0,0,.072-2.073,3.146,3.146,0,0,0-.8-1.717,1.5,1.5,0,0,0-1.4-.394,1.478,1.478,0,0,0-1.14.881,3.519,3.519,0,0,0-.066,2.056" transform="translate(-94.44 -3.819)" fill="#12263f"/>
          <path id="Trazado_778723" data-name="Trazado 778723" d="M303.451,10.967a6.293,6.293,0,0,0-.811.11,1.662,1.662,0,0,0-1.465,1.205l1.166,5.428-2.216.476-1.781-8.3,2.093-.449.274.976a2.1,2.1,0,0,1,1.6-1.539,2.354,2.354,0,0,1,.711-.049Z" transform="translate(-98.549 -2.914)" fill="#12263f"/>
          <path id="Trazado_778724" data-name="Trazado 778724" d="M307.59,2.73,310,2.173l-1.568,2.858-1.8.416Zm3.338,11.47-2.208.511-1.912-8.267,2.208-.511Z" transform="translate(-101.288 -0.718)" fill="#12263f"/>
          <path id="Trazado_778725" data-name="Trazado 778725" d="M319.865,13.622a2.467,2.467,0,0,1-.408-.681,2.745,2.745,0,0,1-1.848,1.419,3.013,3.013,0,0,1-2.18-.188,2.318,2.318,0,0,1-1.244-1.56,2.4,2.4,0,0,1,.456-2.253,4.926,4.926,0,0,1,2.619-1.421l1.011-.258-.121-.471a1.4,1.4,0,0,0-.525-.837,1.185,1.185,0,0,0-1.011-.106,1.347,1.347,0,0,0-.8.488.932.932,0,0,0-.129.81l-2.2.561a2.282,2.282,0,0,1,.1-1.435,3.008,3.008,0,0,1,1-1.271,4.687,4.687,0,0,1,1.72-.808,3.7,3.7,0,0,1,2.608.147,2.757,2.757,0,0,1,1.44,1.919l.91,3.563a4.057,4.057,0,0,0,.779,1.687l.033.129Zm-2.206-1.063a1.952,1.952,0,0,0,.841-.445,1.463,1.463,0,0,0,.459-.737L318.6,9.963l-.82.21q-1.649.421-1.465,1.588l.025.131a.907.907,0,0,0,.462.6,1.152,1.152,0,0,0,.858.064" transform="translate(-103.528 -1.799)" fill="#12263f"/>
        </g>
      </g>
    </g>
    <g id="Grupo_1064924" data-name="Grupo 1064924" transform="translate(1043.266 1237.312)">
      <path id="Trazado_778726" data-name="Trazado 778726" d="M7.711,151.245l1.647,8.623-6.7-5.68L0,155.737,5.745,165.6l2.034-1.184-1.571-2.7-2.91-4.53,6.934,5.8,1.395-.814-1.617-8.9,2.507,4.773,1.57,2.7,2.041-1.187-5.747-9.866Z" transform="translate(0 -49.446)" fill="#12263f"/>
      <g id="Grupo_1064923" data-name="Grupo 1064923" transform="translate(0)">
        <g id="Grupo_1064922" data-name="Grupo 1064922" clip-path="url(#clip-path-4)">
          <path id="Trazado_778727" data-name="Trazado 778727" d="M22.25,154.567a5.03,5.03,0,0,1-.759-2.174,3.549,3.549,0,0,1,.4-2.034,4.071,4.071,0,0,1,1.526-1.567,3.87,3.87,0,0,1,2.941-.565,4.215,4.215,0,0,1,2.521,1.8l.315.488a4.423,4.423,0,0,1,.7,3.241,3.788,3.788,0,0,1-1.88,2.532,3.8,3.8,0,0,1-3.112.523,4.512,4.512,0,0,1-2.6-2.16Zm2.017-1.045a3.18,3.18,0,0,0,1.353,1.341,1.633,1.633,0,0,0,2.211-1.343,3.462,3.462,0,0,0-.66-1.967,3.142,3.142,0,0,0-1.353-1.327,1.5,1.5,0,0,0-1.449.123,1.475,1.475,0,0,0-.76,1.223,3.539,3.539,0,0,0,.658,1.949" transform="translate(-7.094 -48.933)" fill="#12263f"/>
          <path id="Trazado_778728" data-name="Trazado 778728" d="M32.889,142.584l.585.79a2.958,2.958,0,0,1,1.451-2.266,2.459,2.459,0,0,1,2.12-.406,3.7,3.7,0,0,1,1.837,1.639l2.935,4.63L39.9,148.184,37,143.6a1.472,1.472,0,0,0-.826-.717,1.409,1.409,0,0,0-1.055.284,1.555,1.555,0,0,0-.775,1.457l3.2,5.053-1.913,1.213-4.542-7.166Z" transform="translate(-10.269 -46.445)" fill="#12263f"/>
          <path id="Trazado_778729" data-name="Trazado 778729" d="M40.408,134.425a1.121,1.121,0,0,1-.172-.889,1.469,1.469,0,0,1,1.554-1.012,1.2,1.2,0,0,1,.917,1.415,1.453,1.453,0,0,1-1.544,1.005,1.109,1.109,0,0,1-.755-.519m7.844,7.637L46.346,143.3l-4.629-7.111,1.906-1.24Z" transform="translate(-13.281 -43.769)" fill="#12263f"/>
          <path id="Trazado_778730" data-name="Trazado 778730" d="M48.25,129.868l1.154,1.738,1.208-.8.919,1.385-1.209.8,2.342,3.529a1,1,0,0,0,.523.461.9.9,0,0,0,.687-.211,3.617,3.617,0,0,0,.525-.415l.95,1.43a4.7,4.7,0,0,1-1.031.929,2.164,2.164,0,0,1-3.356-.662l-2.529-3.809-1.033.685-.919-1.385,1.033-.685-1.153-1.738Z" transform="translate(-15.314 -42.898)" fill="#12263f"/>
          <path id="Trazado_778731" data-name="Trazado 778731" d="M56.425,132.727a5.047,5.047,0,0,1-.868-2.134,3.566,3.566,0,0,1,.3-2.052A4.091,4.091,0,0,1,57.3,126.9a3.865,3.865,0,0,1,2.908-.712,4.22,4.22,0,0,1,2.608,1.675l.341.471a4.439,4.439,0,0,1,.865,3.2,4.225,4.225,0,0,1-4.833,3.3,4.514,4.514,0,0,1-2.707-2.026Zm1.963-1.144a3.17,3.17,0,0,0,1.418,1.271,1.634,1.634,0,0,0,2.142-1.452,3.462,3.462,0,0,0-.757-1.931,3.135,3.135,0,0,0-1.418-1.258,1.5,1.5,0,0,0-1.442.195,1.483,1.483,0,0,0-.7,1.26,3.53,3.53,0,0,0,.756,1.914" transform="translate(-18.339 -41.664)" fill="#12263f"/>
          <path id="Trazado_778732" data-name="Trazado 778732" d="M69.917,120.624a6.161,6.161,0,0,0-.7.417,1.659,1.659,0,0,0-.879,1.681l3.19,4.543-1.854,1.3-4.877-6.943,1.751-1.231.634.792a2.1,2.1,0,0,1,.875-2.043,2.361,2.361,0,0,1,.636-.322Z" transform="translate(-21.403 -39.249)" fill="#12263f"/>
          <path id="Trazado_778733" data-name="Trazado 778733" d="M80.605,121.314a4.162,4.162,0,0,1-3.133.851,4.06,4.06,0,0,1-2.735-1.787l-.13-.177a5.129,5.129,0,0,1-.938-2.142,3.626,3.626,0,0,1,.226-2.079,3.924,3.924,0,0,1,1.355-1.651,3.522,3.522,0,0,1,2.865-.715,4.458,4.458,0,0,1,2.633,1.938l.542.751-4.379,3.163a2.1,2.1,0,0,0,1.317.692,2,2,0,0,0,1.428-.413,2.447,2.447,0,0,0,1.1-1.968l1.633.359a3.4,3.4,0,0,1-.459,1.72,4.528,4.528,0,0,1-1.328,1.457m-4.292-5.5a1.416,1.416,0,0,0-.619,1.011,2.362,2.362,0,0,0,.331,1.374l2.555-1.846-.105-.147a1.7,1.7,0,0,0-1.016-.71,1.465,1.465,0,0,0-1.146.317" transform="translate(-24.315 -37.506)" fill="#12263f"/>
          <path id="Trazado_778734" data-name="Trazado 778734" d="M84.83,112.648a5.026,5.026,0,0,1-.958-2.094,3.554,3.554,0,0,1,.2-2.063,4.075,4.075,0,0,1,1.376-1.7,3.867,3.867,0,0,1,2.875-.836,4.216,4.216,0,0,1,2.678,1.561l.36.455a4.432,4.432,0,0,1,1,3.162,4.224,4.224,0,0,1-4.686,3.508,4.512,4.512,0,0,1-2.791-1.909Zm1.911-1.228a3.181,3.181,0,0,0,1.471,1.21,1.635,1.635,0,0,0,2.078-1.544,3.469,3.469,0,0,0-.84-1.9,3.14,3.14,0,0,0-1.47-1.2,1.507,1.507,0,0,0-1.433.258,1.479,1.479,0,0,0-.642,1.288,3.525,3.525,0,0,0,.837,1.879" transform="translate(-27.683 -34.988)" fill="#12263f"/>
          <path id="Trazado_778735" data-name="Trazado 778735" d="M100.14,99.029a5.115,5.115,0,0,1-1.252-3.036,2.887,2.887,0,0,1,1.189-2.429,2.6,2.6,0,0,1,2.181-.536l-2.673-3.4,1.789-1.4,7.439,9.473L107.2,98.957l-.644-.642a2.673,2.673,0,0,1-1.06,2.18,2.885,2.885,0,0,1-2.62.556,5.277,5.277,0,0,1-2.738-2.021m1.886-1.268a3.344,3.344,0,0,0,1.457,1.183,1.352,1.352,0,0,0,1.342-.246,1.517,1.517,0,0,0,.618-1.613l-2.071-2.637a1.5,1.5,0,0,0-1.7.208q-1.289,1.013.356,3.106" transform="translate(-32.665 -29.141)" fill="#12263f"/>
          <path id="Trazado_778736" data-name="Trazado 778736" d="M116.814,93.539a4.159,4.159,0,0,1-3.08,1.027,4.071,4.071,0,0,1-2.833-1.63l-.138-.169a5.12,5.12,0,0,1-1.057-2.087,3.634,3.634,0,0,1,.108-2.087,3.949,3.949,0,0,1,1.261-1.725,3.526,3.526,0,0,1,2.82-.875,4.464,4.464,0,0,1,2.738,1.787l.583.719-4.2,3.405a2.112,2.112,0,0,0,1.356.617,2.007,2.007,0,0,0,1.4-.493A2.446,2.446,0,0,0,116.769,90l1.65.265a3.4,3.4,0,0,1-.362,1.744,4.523,4.523,0,0,1-1.244,1.529M112.22,88.29a1.416,1.416,0,0,0-.561,1.045,2.353,2.353,0,0,0,.408,1.353l2.446-1.987-.114-.141a1.69,1.69,0,0,0-1.054-.651,1.461,1.461,0,0,0-1.125.38" transform="translate(-36.204 -28.393)" fill="#12263f"/>
          <rect id="Rectángulo_374044" data-name="Rectángulo 374044" width="2.273" height="12.044" transform="translate(79.56 50.185) rotate(-40.149)" fill="#12263f"/>
          <path id="Trazado_778737" data-name="Trazado 778737" d="M136.575,76.659a2.524,2.524,0,0,1-.669-.427,2.74,2.74,0,0,1-1.019,2.094,3.019,3.019,0,0,1-2.036.806,2.32,2.32,0,0,1-1.809-.84,2.4,2.4,0,0,1-.6-2.22,4.939,4.939,0,0,1,1.71-2.442l.789-.682-.317-.368a1.406,1.406,0,0,0-.844-.514,1.186,1.186,0,0,0-.952.356,1.354,1.354,0,0,0-.5.795.937.937,0,0,0,.245.782l-1.712,1.482a2.267,2.267,0,0,1-.549-1.329,2.993,2.993,0,0,1,.329-1.585,4.679,4.679,0,0,1,1.178-1.491,3.709,3.709,0,0,1,2.4-1.032,2.759,2.759,0,0,1,2.146,1.073l2.4,2.783a4.065,4.065,0,0,0,1.45,1.161l.088.1Zm-2.448.033a1.943,1.943,0,0,0,.554-.773,1.473,1.473,0,0,0,.082-.864l-.954-1.1-.641.554q-1.286,1.114-.6,2.075l.082.106a.9.9,0,0,0,.682.333,1.152,1.152,0,0,0,.8-.326" transform="translate(-42.381 -23.137)" fill="#12263f"/>
          <path id="Trazado_778738" data-name="Trazado 778738" d="M150.53,64.266a2.528,2.528,0,0,1-.679-.411,2.74,2.74,0,0,1-.971,2.117,3.009,3.009,0,0,1-2.015.853,2.32,2.32,0,0,1-1.829-.8,2.4,2.4,0,0,1-.649-2.205,4.936,4.936,0,0,1,1.653-2.48l.773-.7-.326-.36a1.4,1.4,0,0,0-.855-.495,1.189,1.189,0,0,0-.944.378,1.353,1.353,0,0,0-.481.806.934.934,0,0,0,.264.777l-1.68,1.52a2.27,2.27,0,0,1-.579-1.317,3.012,3.012,0,0,1,.293-1.592,4.689,4.689,0,0,1,1.143-1.517,3.705,3.705,0,0,1,2.374-1.088,2.758,2.758,0,0,1,2.17,1.023l2.47,2.726a4.021,4.021,0,0,0,1.476,1.128l.088.1Zm-2.446.09a1.965,1.965,0,0,0,.535-.787,1.475,1.475,0,0,0,.063-.866l-.979-1.081-.628.569q-1.262,1.141-.552,2.087l.084.1a.905.905,0,0,0,.689.317,1.159,1.159,0,0,0,.789-.344" transform="translate(-46.971 -19.076)" fill="#12263f"/>
          <path id="Trazado_778739" data-name="Trazado 778739" d="M158.91,54.2a2.84,2.84,0,0,1-1,2.33,2.686,2.686,0,0,1-2.057.85,3.346,3.346,0,0,1-2.1-1.177l-3.8-4.06,1.655-1.548,3.748,4.007a1.123,1.123,0,0,0,1.788.143,1.634,1.634,0,0,0,.61-1.666l-4.108-4.392,1.661-1.554,5.8,6.2-1.557,1.458Z" transform="translate(-49.532 -15.569)" fill="#12263f"/>
          <path id="Trazado_778740" data-name="Trazado 778740" d="M162.79,45.037a5.119,5.119,0,0,1-1.558-2.891,2.891,2.891,0,0,1,.933-2.538,2.6,2.6,0,0,1,2.114-.757l-3.008-3.112,1.635-1.58,8.372,8.658-1.471,1.422-.705-.571a2.669,2.669,0,0,1-.832,2.276,2.876,2.876,0,0,1-2.548.822,5.274,5.274,0,0,1-2.931-1.729m1.745-1.454a3.342,3.342,0,0,0,1.571,1.026,1.354,1.354,0,0,0,1.311-.382,1.517,1.517,0,0,0,.448-1.668l-2.331-2.411a1.5,1.5,0,0,0-1.672.381q-1.177,1.139.673,3.054" transform="translate(-53.25 -11.283)" fill="#12263f"/>
          <path id="Trazado_778741" data-name="Trazado 778741" d="M166.658,32.9a1.117,1.117,0,0,1-.349-.836,1.47,1.47,0,0,1,1.318-1.305,1.2,1.2,0,0,1,1.184,1.2,1.453,1.453,0,0,1-1.309,1.3,1.112,1.112,0,0,1-.844-.356m9.227,5.891-1.615,1.6L168.3,34.369l1.616-1.6Z" transform="translate(-54.935 -10.161)" fill="#12263f"/>
          <path id="Trazado_778742" data-name="Trazado 778742" d="M173.4,26.838l1.481,1.468,1.022-1.029,1.181,1.17-1.021,1.03,3.008,2.982a1,1,0,0,0,.6.346.905.905,0,0,0,.631-.346,3.648,3.648,0,0,0,.431-.512l1.219,1.209a4.676,4.676,0,0,1-.821,1.118,2.164,2.164,0,0,1-3.422.031l-3.246-3.218-.872.88L172.415,30.8l.873-.88-1.481-1.469Z" transform="translate(-56.752 -8.865)" fill="#12263f"/>
          <path id="Trazado_778743" data-name="Trazado 778743" d="M182.223,27.717a5.034,5.034,0,0,1-1.281-1.914,3.562,3.562,0,0,1-.127-2.069,4.081,4.081,0,0,1,1.084-1.9,3.863,3.863,0,0,1,2.7-1.286,4.213,4.213,0,0,1,2.894,1.112l.428.392a4.431,4.431,0,0,1,1.5,2.961,4.227,4.227,0,0,1-4.065,4.213,4.519,4.519,0,0,1-3.06-1.437Zm1.69-1.519a3.171,3.171,0,0,0,1.647.958,1.634,1.634,0,0,0,1.8-1.856,3.474,3.474,0,0,0-1.132-1.738,3.144,3.144,0,0,0-1.643-.944,1.5,1.5,0,0,0-1.374.484,1.481,1.481,0,0,0-.428,1.375,3.534,3.534,0,0,0,1.127,1.72" transform="translate(-59.695 -6.786)" fill="#12263f"/>
          <path id="Trazado_778744" data-name="Trazado 778744" d="M192.927,13.169a6.094,6.094,0,0,0-.6.55,1.661,1.661,0,0,0-.521,1.825l4.046,3.8L194.3,21l-6.182-5.81,1.465-1.56.781.646A2.1,2.1,0,0,1,190.8,12.1a2.413,2.413,0,0,1,.558-.445Z" transform="translate(-62.138 -3.849)" fill="#12263f"/>
          <path id="Trazado_778745" data-name="Trazado 778745" d="M192,4.338l1.674-1.816.315,3.245-1.249,1.354Zm9.219,7.6L199.68,13.6l-6.236-5.752,1.536-1.666Z" transform="translate(-63.421 -0.833)" fill="#12263f"/>
          <path id="Trazado_778746" data-name="Trazado 778746" d="M208.387,6.043a2.541,2.541,0,0,1-.718-.34,2.737,2.737,0,0,1-.751,2.2A3.009,3.009,0,0,1,205,8.961a2.313,2.313,0,0,1-1.9-.609,2.4,2.4,0,0,1-.87-2.128,4.927,4.927,0,0,1,1.392-2.635l.7-.775-.362-.325a1.4,1.4,0,0,0-.9-.406,1.192,1.192,0,0,0-.9.472,1.354,1.354,0,0,0-.4.851.934.934,0,0,0,.342.745l-1.516,1.684a2.278,2.278,0,0,1-.71-1.251,3.011,3.011,0,0,1,.129-1.614,4.7,4.7,0,0,1,.984-1.626A3.7,3.7,0,0,1,203.242.022a2.753,2.753,0,0,1,2.262.8l2.732,2.46a4.062,4.062,0,0,0,1.584.972l.1.09Zm-2.426.338a1.936,1.936,0,0,0,.453-.837,1.469,1.469,0,0,0-.025-.867L205.306,3.7l-.567.629q-1.14,1.265-.338,2.134l.094.1a.905.905,0,0,0,.718.245,1.156,1.156,0,0,0,.749-.423" transform="translate(-66.005 0)" fill="#12263f"/>
        </g>
      </g>
    </g>
  </g>
</svg>
